<svg width="20" height="20" viewBox="0 0 20 20" fill="none" xmlns="http://www.w3.org/2000/svg">
<rect width="20" height="20" rx="10" fill="white"/>
<path d="M17.0667 10.1761C17.0667 9.65285 17.0198 9.14971 16.9328 8.66669H10V11.5212H13.9616C13.791 12.4436 13.2723 13.2252 12.4927 13.7484V15.6H14.8717C16.2636 14.3153 17.0667 12.4235 17.0667 10.1761Z" fill="#4285F4"/>
<path d="M9.97775 17.3333C11.945 17.3333 13.5944 16.67 14.7999 15.5387L12.4451 13.6801C11.7927 14.1246 10.9581 14.3872 9.97775 14.3872C8.08003 14.3872 6.47376 13.0842 5.9008 11.3333H3.46655V13.2525C4.66546 15.6734 7.12952 17.3333 9.97775 17.3333Z" fill="#34A853"/>
<path d="M5.86675 11.4103C5.72144 10.9649 5.63888 10.4892 5.63888 10C5.63888 9.51082 5.72144 9.03511 5.86675 8.58976V6.66669H3.4395C2.93094 7.701 2.6663 8.84254 2.66675 10C2.66675 11.1977 2.94745 12.3313 3.4395 13.3334L5.86675 11.4103Z" fill="#FBBC05"/>
<path d="M10.0237 5.61282C11.101 5.61282 12.0682 5.98655 12.8287 6.72056L14.9332 4.59598C13.6625 3.40069 12.0015 2.66669 10.0237 2.66669C7.15536 2.66669 4.67392 4.32662 3.46655 6.7475L5.91798 8.66669C6.49498 6.91585 8.11259 5.61282 10.0237 5.61282Z" fill="#EA4335"/>
</svg>
