<svg width="183" height="191" viewBox="0 0 183 191" fill="none" xmlns="http://www.w3.org/2000/svg">
<path d="M167.746 48.501H130.606C130.606 48.501 134.29 38.4395 139.956 38.4395C145.623 38.4395 147.402 45.3815 147.402 45.3815C147.402 45.3815 151.224 41.6111 154.365 41.6111C157.506 41.6111 160.236 46.618 160.236 46.618C160.236 46.618 164.674 43.915 167.746 48.501Z" fill="#EBEBEB"/>
<path d="M135.322 22.6335H117.967C117.967 22.6335 121.846 16.9932 124.909 16.9932C127.973 16.9932 128.871 20.7375 128.871 20.7375C128.871 20.7375 131.04 19.002 133.023 19.3057C135.006 19.6094 135.322 22.6335 135.322 22.6335Z" fill="#EBEBEB"/>
<path d="M42.2909 53.3258H8.48767C8.48767 53.3258 13.1171 42.9909 18.0676 42.3444C23.0182 41.6979 25.3915 50.024 25.3915 50.024C25.3915 50.024 28.5848 47.0823 31.0969 47.0823C33.6091 47.0823 35.5311 50.9568 35.5311 50.9568C35.5311 50.9568 40.5684 48.3015 42.2909 53.3258Z" fill="#EBEBEB"/>
<path d="M77.3609 9.90336H54.5217C54.5217 9.90336 58.4266 2.41467 62.7046 2.3062C66.9826 2.19773 69.2128 7.97261 69.2128 7.97261C69.2128 7.97261 75.8163 2.66197 77.3609 9.90336Z" fill="#EBEBEB"/>
<path d="M102.057 30.6211H86.6459C86.6459 30.6211 89.2925 25.5664 92.1648 25.497C95.037 25.4276 96.5469 29.3195 96.5469 29.3195C96.5469 29.3195 101.016 25.7356 102.057 30.6211Z" fill="#EBEBEB"/>
<path d="M141.765 54.8701H125.977V137.645H141.765V54.8701Z" fill="#DBDBDB"/>
<path d="M131.496 57.5601H128.428V60.7187H131.496V57.5601Z" fill="#EBEBEB"/>
<path d="M135.422 57.5601H132.355V60.7187H135.422V57.5601Z" fill="#EBEBEB"/>
<path d="M131.496 62.9272H128.428V66.0859H131.496V62.9272Z" fill="#EBEBEB"/>
<path d="M135.422 62.9272H132.355V66.0859H135.422V62.9272Z" fill="#EBEBEB"/>
<path d="M131.496 68.2944H128.428V71.453H131.496V68.2944Z" fill="#EBEBEB"/>
<path d="M135.422 68.2944H132.355V71.453H135.422V68.2944Z" fill="#EBEBEB"/>
<path d="M131.496 73.6572H128.428V76.8158H131.496V73.6572Z" fill="#EBEBEB"/>
<path d="M135.422 73.6572H132.355V76.8158H135.422V73.6572Z" fill="#EBEBEB"/>
<path d="M131.496 79.0244H128.428V82.183H131.496V79.0244Z" fill="#EBEBEB"/>
<path d="M135.422 79.0244H132.355V82.183H135.422V79.0244Z" fill="#EBEBEB"/>
<path d="M131.496 84.3911H128.428V87.5497H131.496V84.3911Z" fill="#EBEBEB"/>
<path d="M135.422 84.3911H132.355V87.5497H135.422V84.3911Z" fill="#EBEBEB"/>
<path d="M131.496 89.7583H128.428V92.9169H131.496V89.7583Z" fill="#EBEBEB"/>
<path d="M135.422 89.7583H132.355V92.9169H135.422V89.7583Z" fill="#EBEBEB"/>
<path d="M131.496 95.1211H128.428V98.2797H131.496V95.1211Z" fill="#EBEBEB"/>
<path d="M135.422 95.1211H132.355V98.2797H135.422V95.1211Z" fill="#EBEBEB"/>
<path d="M131.496 100.488H128.428V103.646H131.496V100.488Z" fill="#EBEBEB"/>
<path d="M135.422 100.488H132.355V103.646H135.422V100.488Z" fill="#EBEBEB"/>
<path d="M131.496 105.855H128.428V109.014H131.496V105.855Z" fill="#EBEBEB"/>
<path d="M135.422 105.855H132.355V109.014H135.422V105.855Z" fill="#EBEBEB"/>
<path d="M131.496 111.218H128.428V114.376H131.496V111.218Z" fill="#EBEBEB"/>
<path d="M135.422 111.218H132.355V114.376H135.422V111.218Z" fill="#EBEBEB"/>
<path d="M131.496 116.585H128.428V119.744H131.496V116.585Z" fill="#EBEBEB"/>
<path d="M135.422 116.585H132.355V119.744H135.422V116.585Z" fill="#EBEBEB"/>
<path d="M131.496 121.952H128.428V125.11H131.496V121.952Z" fill="#EBEBEB"/>
<path d="M135.422 121.952H132.355V125.11H135.422V121.952Z" fill="#EBEBEB"/>
<path d="M131.496 127.319H128.428V130.477H131.496V127.319Z" fill="#EBEBEB"/>
<path d="M136.247 130.478H139.314V127.319H136.247V130.478Z" fill="#EBEBEB"/>
<path d="M136.247 125.11H139.314V121.952H136.247V125.11Z" fill="#EBEBEB"/>
<path d="M136.247 119.748H139.314V116.589H136.247V119.748Z" fill="#EBEBEB"/>
<path d="M136.247 114.381H139.314V111.222H136.247V114.381Z" fill="#EBEBEB"/>
<path d="M136.247 109.014H139.314V105.855H136.247V109.014Z" fill="#EBEBEB"/>
<path d="M136.247 103.646H139.314V100.488H136.247V103.646Z" fill="#EBEBEB"/>
<path d="M136.247 98.2837H139.314V95.1251H136.247V98.2837Z" fill="#EBEBEB"/>
<path d="M136.247 92.9126H139.314V89.754H136.247V92.9126Z" fill="#EBEBEB"/>
<path d="M136.247 87.5498H139.314V84.3912H136.247V87.5498Z" fill="#EBEBEB"/>
<path d="M136.247 82.187H139.314V79.0284H136.247V82.187Z" fill="#EBEBEB"/>
<path d="M136.247 76.8198H139.314V73.6612H136.247V76.8198Z" fill="#EBEBEB"/>
<path d="M136.247 71.4531H139.314V68.2945H136.247V71.4531Z" fill="#EBEBEB"/>
<path d="M136.247 66.0859H139.314V62.9273H136.247V66.0859Z" fill="#EBEBEB"/>
<path d="M136.247 60.7231H139.314V57.5645H136.247V60.7231Z" fill="#EBEBEB"/>
<path d="M135.422 127.319H132.355V130.477H135.422V127.319Z" fill="#EBEBEB"/>
<path d="M154.213 54.8701H141.765V137.645H154.213V54.8701Z" fill="#A6A6A6"/>
<path d="M150.395 130.478H152.929V127.319H150.395V130.478Z" fill="#C7C7C7"/>
<path d="M147.159 130.478H149.692V127.319H147.159V130.478Z" fill="#C7C7C7"/>
<path d="M150.395 125.11H152.929V121.952H150.395V125.11Z" fill="#C7C7C7"/>
<path d="M147.159 125.11H149.692V121.952H147.159V125.11Z" fill="#C7C7C7"/>
<path d="M150.395 119.748H152.929V116.589H150.395V119.748Z" fill="#C7C7C7"/>
<path d="M147.159 119.748H149.692V116.589H147.159V119.748Z" fill="#C7C7C7"/>
<path d="M150.395 114.381H152.929V111.222H150.395V114.381Z" fill="#C7C7C7"/>
<path d="M147.159 114.381H149.692V111.222H147.159V114.381Z" fill="#C7C7C7"/>
<path d="M150.395 109.014H152.929V105.855H150.395V109.014Z" fill="#C7C7C7"/>
<path d="M147.159 109.014H149.692V105.855H147.159V109.014Z" fill="#C7C7C7"/>
<path d="M150.395 103.646H152.929V100.488H150.395V103.646Z" fill="#C7C7C7"/>
<path d="M147.159 103.646H149.692V100.488H147.159V103.646Z" fill="#C7C7C7"/>
<path d="M150.395 98.2837H152.929V95.1251H150.395V98.2837Z" fill="#C7C7C7"/>
<path d="M147.159 98.2837H149.692V95.1251H147.159V98.2837Z" fill="#C7C7C7"/>
<path d="M150.395 92.9126H152.929V89.754H150.395V92.9126Z" fill="#C7C7C7"/>
<path d="M147.159 92.9126H149.692V89.754H147.159V92.9126Z" fill="#C7C7C7"/>
<path d="M150.395 87.5498H152.929V84.3912H150.395V87.5498Z" fill="#C7C7C7"/>
<path d="M147.159 87.5498H149.692V84.3912H147.159V87.5498Z" fill="#C7C7C7"/>
<path d="M150.395 82.187H152.929V79.0284H150.395V82.187Z" fill="#C7C7C7"/>
<path d="M147.159 82.187H149.692V79.0284H147.159V82.187Z" fill="#C7C7C7"/>
<path d="M150.395 76.8198H152.929V73.6612H150.395V76.8198Z" fill="#C7C7C7"/>
<path d="M147.159 76.8198H149.692V73.6612H147.159V76.8198Z" fill="#C7C7C7"/>
<path d="M150.395 71.4531H152.929V68.2945H150.395V71.4531Z" fill="#C7C7C7"/>
<path d="M147.159 71.4531H149.692V68.2945H147.159V71.4531Z" fill="#C7C7C7"/>
<path d="M150.395 66.0859H152.929V62.9273H150.395V66.0859Z" fill="#C7C7C7"/>
<path d="M147.159 66.0859H149.692V62.9273H147.159V66.0859Z" fill="#C7C7C7"/>
<path d="M150.395 60.7231H152.929V57.5645H150.395V60.7231Z" fill="#C7C7C7"/>
<path d="M146.473 57.5601H143.939V60.7187H146.473V57.5601Z" fill="#C7C7C7"/>
<path d="M146.473 62.9272H143.939V66.0859H146.473V62.9272Z" fill="#C7C7C7"/>
<path d="M146.473 68.2944H143.939V71.453H146.473V68.2944Z" fill="#C7C7C7"/>
<path d="M146.473 73.6572H143.939V76.8158H146.473V73.6572Z" fill="#C7C7C7"/>
<path d="M146.473 79.0244H143.939V82.183H146.473V79.0244Z" fill="#C7C7C7"/>
<path d="M146.473 84.3911H143.939V87.5497H146.473V84.3911Z" fill="#C7C7C7"/>
<path d="M146.473 89.7583H143.939V92.9169H146.473V89.7583Z" fill="#C7C7C7"/>
<path d="M146.473 95.1211H143.939V98.2797H146.473V95.1211Z" fill="#C7C7C7"/>
<path d="M146.473 100.488H143.939V103.646H146.473V100.488Z" fill="#C7C7C7"/>
<path d="M146.473 105.855H143.939V109.014H146.473V105.855Z" fill="#C7C7C7"/>
<path d="M146.473 111.218H143.939V114.376H146.473V111.218Z" fill="#C7C7C7"/>
<path d="M146.473 116.585H143.939V119.744H146.473V116.585Z" fill="#C7C7C7"/>
<path d="M146.473 121.952H143.939V125.11H146.473V121.952Z" fill="#C7C7C7"/>
<path d="M146.473 127.319H143.939V130.477H146.473V127.319Z" fill="#C7C7C7"/>
<path d="M147.159 60.7231H149.692V57.5645H147.159V60.7231Z" fill="#C7C7C7"/>
<path d="M44.5643 50.4102H25.886V137.645H44.5643V50.4102Z" fill="#EBEBEB"/>
<path d="M44.5644 48.501H25.4348V50.41H44.5644V48.501Z" fill="#C7C7C7"/>
<path d="M29.4654 53.2261H27.5737V137.65H29.4654V53.2261Z" fill="white"/>
<path d="M32.8149 53.2261H30.9232V137.65H32.8149V53.2261Z" fill="white"/>
<path d="M36.1688 53.2261H34.2771V137.65H36.1688V53.2261Z" fill="white"/>
<path d="M39.5227 53.2261H37.631V137.65H39.5227V53.2261Z" fill="white"/>
<path d="M42.8722 53.2261H40.9805V137.65H42.8722V53.2261Z" fill="white"/>
<path d="M29.4654 55.6382H27.5737V59.4086H29.4654V55.6382Z" fill="#EBEBEB"/>
<path d="M32.8149 55.6382H30.9232V59.4086H32.8149V55.6382Z" fill="#EBEBEB"/>
<path d="M36.1688 55.6382H34.2771V59.4086H36.1688V55.6382Z" fill="#EBEBEB"/>
<path d="M39.5227 55.6382H37.631V59.4086H39.5227V55.6382Z" fill="#EBEBEB"/>
<path d="M42.8722 55.6382H40.9805V59.4086H42.8722V55.6382Z" fill="#EBEBEB"/>
<path d="M29.4654 61.7646H27.5737V65.535H29.4654V61.7646Z" fill="#EBEBEB"/>
<path d="M32.8149 61.7646H30.9232V65.535H32.8149V61.7646Z" fill="#EBEBEB"/>
<path d="M36.1688 61.7646H34.2771V65.535H36.1688V61.7646Z" fill="#EBEBEB"/>
<path d="M39.5227 61.7646H37.631V65.535H39.5227V61.7646Z" fill="#EBEBEB"/>
<path d="M42.8722 61.7646H40.9805V65.535H42.8722V61.7646Z" fill="#EBEBEB"/>
<path d="M29.4654 67.8906H27.5737V71.661H29.4654V67.8906Z" fill="#EBEBEB"/>
<path d="M32.8149 67.8906H30.9232V71.661H32.8149V67.8906Z" fill="#EBEBEB"/>
<path d="M36.1688 67.8906H34.2771V71.661H36.1688V67.8906Z" fill="#EBEBEB"/>
<path d="M39.5227 67.8906H37.631V71.661H39.5227V67.8906Z" fill="#EBEBEB"/>
<path d="M42.8722 67.8906H40.9805V71.661H42.8722V67.8906Z" fill="#EBEBEB"/>
<path d="M29.4654 74.0215H27.5737V77.7919H29.4654V74.0215Z" fill="#EBEBEB"/>
<path d="M32.8149 74.0215H30.9232V77.7919H32.8149V74.0215Z" fill="#EBEBEB"/>
<path d="M36.1688 74.0215H34.2771V77.7919H36.1688V74.0215Z" fill="#EBEBEB"/>
<path d="M39.5227 74.0215H37.631V77.7919H39.5227V74.0215Z" fill="#EBEBEB"/>
<path d="M42.8722 74.0215H40.9805V77.7919H42.8722V74.0215Z" fill="#EBEBEB"/>
<path d="M29.4654 80.1479H27.5737V83.9183H29.4654V80.1479Z" fill="#EBEBEB"/>
<path d="M32.8149 80.1479H30.9232V83.9183H32.8149V80.1479Z" fill="#EBEBEB"/>
<path d="M36.1688 80.1479H34.2771V83.9183H36.1688V80.1479Z" fill="#EBEBEB"/>
<path d="M39.5227 80.1479H37.631V83.9183H39.5227V80.1479Z" fill="#EBEBEB"/>
<path d="M42.8722 80.1479H40.9805V83.9183H42.8722V80.1479Z" fill="#EBEBEB"/>
<path d="M29.4654 86.2744H27.5737V90.0448H29.4654V86.2744Z" fill="#EBEBEB"/>
<path d="M32.8149 86.2744H30.9232V90.0448H32.8149V86.2744Z" fill="#EBEBEB"/>
<path d="M36.1688 86.2744H34.2771V90.0448H36.1688V86.2744Z" fill="#EBEBEB"/>
<path d="M39.5227 86.2744H37.631V90.0448H39.5227V86.2744Z" fill="#EBEBEB"/>
<path d="M42.8722 86.2744H40.9805V90.0448H42.8722V86.2744Z" fill="#EBEBEB"/>
<path d="M29.4654 92.4004H27.5737V96.1708H29.4654V92.4004Z" fill="#EBEBEB"/>
<path d="M32.8149 92.4004H30.9232V96.1708H32.8149V92.4004Z" fill="#EBEBEB"/>
<path d="M36.1688 92.4004H34.2771V96.1708H36.1688V92.4004Z" fill="#EBEBEB"/>
<path d="M39.5227 92.4004H37.631V96.1708H39.5227V92.4004Z" fill="#EBEBEB"/>
<path d="M42.8722 92.4004H40.9805V96.1708H42.8722V92.4004Z" fill="#EBEBEB"/>
<path d="M29.4654 98.5312H27.5737V102.302H29.4654V98.5312Z" fill="#EBEBEB"/>
<path d="M32.8149 98.5312H30.9232V102.302H32.8149V98.5312Z" fill="#EBEBEB"/>
<path d="M36.1688 98.5312H34.2771V102.302H36.1688V98.5312Z" fill="#EBEBEB"/>
<path d="M39.5227 98.5312H37.631V102.302H39.5227V98.5312Z" fill="#EBEBEB"/>
<path d="M42.8722 98.5312H40.9805V102.302H42.8722V98.5312Z" fill="#EBEBEB"/>
<path d="M29.4654 104.657H27.5737V108.428H29.4654V104.657Z" fill="#EBEBEB"/>
<path d="M32.8149 104.657H30.9232V108.428H32.8149V104.657Z" fill="#EBEBEB"/>
<path d="M36.1688 104.657H34.2771V108.428H36.1688V104.657Z" fill="#EBEBEB"/>
<path d="M39.5227 104.657H37.631V108.428H39.5227V104.657Z" fill="#EBEBEB"/>
<path d="M42.8722 104.657H40.9805V108.428H42.8722V104.657Z" fill="#EBEBEB"/>
<path d="M29.4654 110.784H27.5737V114.554H29.4654V110.784Z" fill="#EBEBEB"/>
<path d="M32.8149 110.784H30.9232V114.554H32.8149V110.784Z" fill="#EBEBEB"/>
<path d="M36.1688 110.784H34.2771V114.554H36.1688V110.784Z" fill="#EBEBEB"/>
<path d="M39.5227 110.784H37.631V114.554H39.5227V110.784Z" fill="#EBEBEB"/>
<path d="M42.8722 110.784H40.9805V114.554H42.8722V110.784Z" fill="#EBEBEB"/>
<path d="M29.4654 116.915H27.5737V120.685H29.4654V116.915Z" fill="#EBEBEB"/>
<path d="M32.8149 116.915H30.9232V120.685H32.8149V116.915Z" fill="#EBEBEB"/>
<path d="M36.1688 116.915H34.2771V120.685H36.1688V116.915Z" fill="#EBEBEB"/>
<path d="M39.5227 116.915H37.631V120.685H39.5227V116.915Z" fill="#EBEBEB"/>
<path d="M42.8722 116.915H40.9805V120.685H42.8722V116.915Z" fill="#EBEBEB"/>
<path d="M29.4654 123.041H27.5737V126.811H29.4654V123.041Z" fill="#EBEBEB"/>
<path d="M32.8149 123.041H30.9232V126.811H32.8149V123.041Z" fill="#EBEBEB"/>
<path d="M36.1688 123.041H34.2771V126.811H36.1688V123.041Z" fill="#EBEBEB"/>
<path d="M39.5227 123.041H37.631V126.811H39.5227V123.041Z" fill="#EBEBEB"/>
<path d="M42.8722 123.041H40.9805V126.811H42.8722V123.041Z" fill="#EBEBEB"/>
<path d="M29.4654 129.167H27.5737V132.937H29.4654V129.167Z" fill="#EBEBEB"/>
<path d="M32.8149 129.167H30.9232V132.937H32.8149V129.167Z" fill="#EBEBEB"/>
<path d="M36.1688 129.167H34.2771V132.937H36.1688V129.167Z" fill="#EBEBEB"/>
<path d="M39.5227 129.167H37.631V132.937H39.5227V129.167Z" fill="#EBEBEB"/>
<path d="M42.8722 129.167H40.9805V132.937H42.8722V129.167Z" fill="#EBEBEB"/>
<path d="M29.4654 135.293H27.5737V137.645H29.4654V135.293Z" fill="#EBEBEB"/>
<path d="M32.8149 135.293H30.9232V137.645H32.8149V135.293Z" fill="#EBEBEB"/>
<path d="M36.1688 135.293H34.2771V137.645H36.1688V135.293Z" fill="#EBEBEB"/>
<path d="M39.5227 135.293H37.631V137.645H39.5227V135.293Z" fill="#EBEBEB"/>
<path d="M42.8722 135.293H40.9805V137.645H42.8722V135.293Z" fill="#EBEBEB"/>
<path d="M56.5566 50.4102H44.5643V137.645H56.5566V50.4102Z" fill="#DBDBDB"/>
<path d="M57.0773 48.501H44.5643V50.41H57.0773V48.501Z" fill="#C7C7C7"/>
<path d="M48.1438 53.2261H46.2521V137.65H48.1438V53.2261Z" fill="#C7C7C7"/>
<path d="M51.4977 53.2261H49.606V137.65H51.4977V53.2261Z" fill="#C7C7C7"/>
<path d="M54.8515 53.2261H52.9598V137.65H54.8515V53.2261Z" fill="#C7C7C7"/>
<path d="M48.1438 55.6382H46.2521V59.4086H48.1438V55.6382Z" fill="#DBDBDB"/>
<path d="M51.4977 55.6382H49.606V59.4086H51.4977V55.6382Z" fill="#DBDBDB"/>
<path d="M54.8515 55.6382H52.9598V59.4086H54.8515V55.6382Z" fill="#DBDBDB"/>
<path d="M48.1438 61.7646H46.2521V65.535H48.1438V61.7646Z" fill="#DBDBDB"/>
<path d="M51.4977 61.7646H49.606V65.535H51.4977V61.7646Z" fill="#DBDBDB"/>
<path d="M54.8515 61.7646H52.9598V65.535H54.8515V61.7646Z" fill="#DBDBDB"/>
<path d="M48.1438 67.8906H46.2521V71.661H48.1438V67.8906Z" fill="#DBDBDB"/>
<path d="M51.4977 67.8906H49.606V71.661H51.4977V67.8906Z" fill="#DBDBDB"/>
<path d="M54.8515 67.8906H52.9598V71.661H54.8515V67.8906Z" fill="#DBDBDB"/>
<path d="M48.1438 74.0215H46.2521V77.7919H48.1438V74.0215Z" fill="#DBDBDB"/>
<path d="M51.4977 74.0215H49.606V77.7919H51.4977V74.0215Z" fill="#DBDBDB"/>
<path d="M54.8515 74.0215H52.9598V77.7919H54.8515V74.0215Z" fill="#DBDBDB"/>
<path d="M48.1438 80.1479H46.2521V83.9183H48.1438V80.1479Z" fill="#DBDBDB"/>
<path d="M51.4977 80.1479H49.606V83.9183H51.4977V80.1479Z" fill="#DBDBDB"/>
<path d="M54.8515 80.1479H52.9598V83.9183H54.8515V80.1479Z" fill="#DBDBDB"/>
<path d="M48.1438 86.2744H46.2521V90.0448H48.1438V86.2744Z" fill="#DBDBDB"/>
<path d="M51.4977 86.2744H49.606V90.0448H51.4977V86.2744Z" fill="#DBDBDB"/>
<path d="M54.8515 86.2744H52.9598V90.0448H54.8515V86.2744Z" fill="#DBDBDB"/>
<path d="M48.1438 92.4004H46.2521V96.1708H48.1438V92.4004Z" fill="#DBDBDB"/>
<path d="M51.4977 92.4004H49.606V96.1708H51.4977V92.4004Z" fill="#DBDBDB"/>
<path d="M54.8515 92.4004H52.9598V96.1708H54.8515V92.4004Z" fill="#DBDBDB"/>
<path d="M48.1438 98.5312H46.2521V102.302H48.1438V98.5312Z" fill="#DBDBDB"/>
<path d="M51.4977 98.5312H49.606V102.302H51.4977V98.5312Z" fill="#DBDBDB"/>
<path d="M54.8515 98.5312H52.9598V102.302H54.8515V98.5312Z" fill="#DBDBDB"/>
<path d="M48.1438 104.657H46.2521V108.428H48.1438V104.657Z" fill="#DBDBDB"/>
<path d="M51.4977 104.657H49.606V108.428H51.4977V104.657Z" fill="#DBDBDB"/>
<path d="M54.8515 104.657H52.9598V108.428H54.8515V104.657Z" fill="#DBDBDB"/>
<path d="M48.1438 110.784H46.2521V114.554H48.1438V110.784Z" fill="#DBDBDB"/>
<path d="M51.4977 110.784H49.606V114.554H51.4977V110.784Z" fill="#DBDBDB"/>
<path d="M54.8515 110.784H52.9598V114.554H54.8515V110.784Z" fill="#DBDBDB"/>
<path d="M48.1438 116.915H46.2521V120.685H48.1438V116.915Z" fill="#DBDBDB"/>
<path d="M51.4977 116.915H49.606V120.685H51.4977V116.915Z" fill="#DBDBDB"/>
<path d="M54.8515 116.915H52.9598V120.685H54.8515V116.915Z" fill="#DBDBDB"/>
<path d="M48.1438 123.041H46.2521V126.811H48.1438V123.041Z" fill="#DBDBDB"/>
<path d="M51.4977 123.041H49.606V126.811H51.4977V123.041Z" fill="#DBDBDB"/>
<path d="M54.8515 123.041H52.9598V126.811H54.8515V123.041Z" fill="#DBDBDB"/>
<path d="M48.1438 129.167H46.2521V132.937H48.1438V129.167Z" fill="#DBDBDB"/>
<path d="M51.4977 129.167H49.606V132.937H51.4977V129.167Z" fill="#DBDBDB"/>
<path d="M54.8515 129.167H52.9598V132.937H54.8515V129.167Z" fill="#DBDBDB"/>
<path d="M48.1438 135.293H46.2521V137.645H48.1438V135.293Z" fill="#DBDBDB"/>
<path d="M51.4977 135.293H49.606V137.645H51.4977V135.293Z" fill="#DBDBDB"/>
<path d="M54.8515 135.293H52.9598V137.645H54.8515V135.293Z" fill="#DBDBDB"/>
<path d="M21.0353 82.4692H2.43506V137.645H21.0353V82.4692Z" fill="#EBEBEB"/>
<path d="M21.0309 77.792H5.07727V82.4692H21.0309V77.792Z" fill="#C7C7C7"/>
<path d="M18.9961 84.9116H4.47424V137.645H18.9961V84.9116Z" fill="#DBDBDB"/>
<path d="M18.9961 89.9448H4.47424V91.19H18.9961V89.9448Z" fill="white"/>
<path d="M18.9961 95.1035H4.47424V96.3487H18.9961V95.1035Z" fill="white"/>
<path d="M18.9961 100.267H4.47424V101.512H18.9961V100.267Z" fill="white"/>
<path d="M18.9961 105.43H4.47424V106.675H18.9961V105.43Z" fill="white"/>
<path d="M18.9961 110.588H4.47424V111.834H18.9961V110.588Z" fill="white"/>
<path d="M18.9961 115.751H4.47424V116.997H18.9961V115.751Z" fill="white"/>
<path d="M18.9961 120.915H4.47424V122.16H18.9961V120.915Z" fill="white"/>
<path d="M18.9961 126.074H4.47424V127.319H18.9961V126.074Z" fill="white"/>
<path d="M18.9961 131.237H4.47424V132.482H18.9961V131.237Z" fill="white"/>
<path d="M18.9961 136.4H4.47424V137.645H18.9961V136.4Z" fill="white"/>
<path d="M32.6848 82.4692H21.0353V137.645H32.6848V82.4692Z" fill="#DBDBDB"/>
<path d="M30.9363 77.792H21.0353V82.4692H30.9363V77.792Z" fill="#A6A6A6"/>
<path d="M31.6 84.9116H22.6405V137.645H31.6V84.9116Z" fill="#C7C7C7"/>
<path d="M31.6 89.9448H22.6405V91.19H31.6V89.9448Z" fill="white"/>
<path d="M31.6 95.1035H22.6405V96.3487H31.6V95.1035Z" fill="white"/>
<path d="M31.6 100.267H22.6405V101.512H31.6V100.267Z" fill="white"/>
<path d="M31.6 105.43H22.6405V106.675H31.6V105.43Z" fill="white"/>
<path d="M31.6 110.588H22.6405V111.834H31.6V110.588Z" fill="white"/>
<path d="M31.6 115.751H22.6405V116.997H31.6V115.751Z" fill="white"/>
<path d="M31.6 120.915H22.6405V122.16H31.6V120.915Z" fill="white"/>
<path d="M31.6 126.074H22.6405V127.319H31.6V126.074Z" fill="white"/>
<path d="M31.6 131.237H22.6405V132.482H31.6V131.237Z" fill="white"/>
<path d="M31.6 136.4H22.6405V137.645H31.6V136.4Z" fill="white"/>
<path d="M68.1932 105.343H53.8146V137.645H68.1932V105.343Z" fill="#DBDBDB"/>
<path d="M58.6176 108.142H56.0751V110.12H58.6176V108.142Z" fill="#C7C7C7"/>
<path d="M58.6176 112.367H56.0751V114.346H58.6176V112.367Z" fill="#C7C7C7"/>
<path d="M58.6176 116.593H56.0751V118.572H58.6176V116.593Z" fill="#C7C7C7"/>
<path d="M58.6176 120.819H56.0751V122.798H58.6176V120.819Z" fill="#C7C7C7"/>
<path d="M58.6176 125.05H56.0751V127.028H58.6176V125.05Z" fill="#C7C7C7"/>
<path d="M58.6176 129.275H56.0751V131.254H58.6176V129.275Z" fill="#C7C7C7"/>
<path d="M58.6176 133.501H56.0751V135.48H58.6176V133.501Z" fill="#C7C7C7"/>
<path d="M62.2838 108.142H59.7369V110.12H62.2838V108.142Z" fill="#C7C7C7"/>
<path d="M62.2838 112.367H59.7369V114.346H62.2838V112.367Z" fill="#C7C7C7"/>
<path d="M62.2838 116.593H59.7369V118.572H62.2838V116.593Z" fill="#C7C7C7"/>
<path d="M62.2838 120.819H59.7369V122.798H62.2838V120.819Z" fill="#C7C7C7"/>
<path d="M62.2838 125.05H59.7369V127.028H62.2838V125.05Z" fill="#C7C7C7"/>
<path d="M62.2838 129.275H59.7369V131.254H62.2838V129.275Z" fill="#C7C7C7"/>
<path d="M62.2838 133.501H59.7369V135.48H62.2838V133.501Z" fill="#C7C7C7"/>
<path d="M65.937 108.142H63.3901V110.12H65.937V108.142Z" fill="#C7C7C7"/>
<path d="M65.937 112.367H63.3901V114.346H65.937V112.367Z" fill="#C7C7C7"/>
<path d="M65.937 116.593H63.3901V118.572H65.937V116.593Z" fill="#C7C7C7"/>
<path d="M65.937 120.819H63.3901V122.798H65.937V120.819Z" fill="#C7C7C7"/>
<path d="M65.937 125.05H63.3901V127.028H65.937V125.05Z" fill="#C7C7C7"/>
<path d="M65.937 129.275H63.3901V131.254H65.937V129.275Z" fill="#C7C7C7"/>
<path d="M65.937 133.501H63.3901V135.48H65.937V133.501Z" fill="#C7C7C7"/>
<path d="M78.2807 105.343H68.1931V137.645H78.2807V105.343Z" fill="#A6A6A6"/>
<path d="M75.1829 135.167H77.2524V133.189H75.1829V135.167Z" fill="#C7C7C7"/>
<path d="M75.1829 130.938H77.2524V128.959H75.1829V130.938Z" fill="#C7C7C7"/>
<path d="M75.1829 126.711H77.2524V124.733H75.1829V126.711Z" fill="#C7C7C7"/>
<path d="M75.1829 122.481H77.2524V120.502H75.1829V122.481Z" fill="#C7C7C7"/>
<path d="M75.1829 118.26H77.2524V116.281H75.1829V118.26Z" fill="#C7C7C7"/>
<path d="M75.1829 114.029H77.2524V112.051H75.1829V114.029Z" fill="#C7C7C7"/>
<path d="M75.1829 109.803H77.2524V107.825H75.1829V109.803Z" fill="#C7C7C7"/>
<path d="M72.2023 135.167H74.2719V133.189H72.2023V135.167Z" fill="#C7C7C7"/>
<path d="M72.2023 130.938H74.2719V128.959H72.2023V130.938Z" fill="#C7C7C7"/>
<path d="M72.2023 126.711H74.2719V124.733H72.2023V126.711Z" fill="#C7C7C7"/>
<path d="M72.2023 122.481H74.2719V120.502H72.2023V122.481Z" fill="#C7C7C7"/>
<path d="M72.2023 118.26H74.2719V116.281H72.2023V118.26Z" fill="#C7C7C7"/>
<path d="M72.2023 114.029H74.2719V112.051H72.2023V114.029Z" fill="#C7C7C7"/>
<path d="M72.2023 109.803H74.2719V107.825H72.2023V109.803Z" fill="#C7C7C7"/>
<path d="M69.2301 135.167H71.2997V133.189H69.2301V135.167Z" fill="#C7C7C7"/>
<path d="M69.2301 130.938H71.2997V128.959H69.2301V130.938Z" fill="#C7C7C7"/>
<path d="M69.2301 126.711H71.2997V124.733H69.2301V126.711Z" fill="#C7C7C7"/>
<path d="M69.2301 122.481H71.2997V120.502H69.2301V122.481Z" fill="#C7C7C7"/>
<path d="M69.2301 118.26H71.2997V116.281H69.2301V118.26Z" fill="#C7C7C7"/>
<path d="M69.2301 114.029H71.2997V112.051H69.2301V114.029Z" fill="#C7C7C7"/>
<path d="M69.2301 109.803H71.2997V107.825H69.2301V109.803Z" fill="#C7C7C7"/>
<path d="M165.234 68.2944H155.298V80.0308H165.234V68.2944Z" fill="#DBDBDB"/>
<path d="M171.534 68.2944H165.234V80.4603H171.534V68.2944Z" fill="#C7C7C7"/>
<path d="M171.95 73.4746H165.698V80.46H171.95V73.4746Z" fill="#DBDBDB"/>
<path d="M175.851 73.4746H171.95V80.46H175.851V73.4746Z" fill="#C7C7C7"/>
<path d="M167.551 79.2627H151.489V137.645H167.551V79.2627Z" fill="#EBEBEB"/>
<path d="M158.374 81.7749H153.324V83.8401H158.374V81.7749Z" fill="white"/>
<path d="M164.835 81.7749H159.784V83.8401H164.835V81.7749Z" fill="white"/>
<path d="M158.374 85.2808H153.324V87.346H158.374V85.2808Z" fill="white"/>
<path d="M164.835 85.2808H159.784V87.346H164.835V85.2808Z" fill="white"/>
<path d="M158.374 88.7817H153.324V90.847H158.374V88.7817Z" fill="white"/>
<path d="M164.835 88.7817H159.784V90.847H164.835V88.7817Z" fill="white"/>
<path d="M158.374 92.2876H153.324V94.3528H158.374V92.2876Z" fill="white"/>
<path d="M164.835 92.2876H159.784V94.3528H164.835V92.2876Z" fill="white"/>
<path d="M158.374 95.7891H153.324V97.8543H158.374V95.7891Z" fill="white"/>
<path d="M164.835 95.7891H159.784V97.8543H164.835V95.7891Z" fill="white"/>
<path d="M158.374 99.2949H153.324V101.36H158.374V99.2949Z" fill="white"/>
<path d="M164.835 99.2949H159.784V101.36H164.835V99.2949Z" fill="white"/>
<path d="M158.374 102.8H153.324V104.866H158.374V102.8Z" fill="white"/>
<path d="M164.835 102.8H159.784V104.866H164.835V102.8Z" fill="white"/>
<path d="M158.374 106.302H153.324V108.367H158.374V106.302Z" fill="white"/>
<path d="M164.835 106.302H159.784V108.367H164.835V106.302Z" fill="white"/>
<path d="M158.374 109.808H153.324V111.873H158.374V109.808Z" fill="white"/>
<path d="M164.835 109.808H159.784V111.873H164.835V109.808Z" fill="white"/>
<path d="M158.374 113.313H153.324V115.379H158.374V113.313Z" fill="white"/>
<path d="M164.835 113.313H159.784V115.379H164.835V113.313Z" fill="white"/>
<path d="M158.374 116.815H153.324V118.88H158.374V116.815Z" fill="white"/>
<path d="M164.835 116.815H159.784V118.88H164.835V116.815Z" fill="white"/>
<path d="M158.374 120.32H153.324V122.386H158.374V120.32Z" fill="white"/>
<path d="M164.835 120.32H159.784V122.386H164.835V120.32Z" fill="white"/>
<path d="M158.374 123.826H153.324V125.891H158.374V123.826Z" fill="white"/>
<path d="M164.835 123.826H159.784V125.891H164.835V123.826Z" fill="white"/>
<path d="M158.374 127.328H153.324V129.393H158.374V127.328Z" fill="white"/>
<path d="M164.835 127.328H159.784V129.393H164.835V127.328Z" fill="white"/>
<path d="M180.567 79.2627H167.551V137.645H180.567V79.2627Z" fill="#C7C7C7"/>
<path d="M175.113 129.393H179.261V127.327H175.113V129.393Z" fill="#EBEBEB"/>
<path d="M169.811 129.393H173.959V127.327H169.811V129.393Z" fill="#EBEBEB"/>
<path d="M175.113 125.887H179.261V123.822H175.113V125.887Z" fill="#EBEBEB"/>
<path d="M169.811 125.887H173.959V123.822H169.811V125.887Z" fill="#EBEBEB"/>
<path d="M175.113 122.386H179.261V120.32H175.113V122.386Z" fill="#EBEBEB"/>
<path d="M169.811 122.386H173.959V120.32H169.811V122.386Z" fill="#EBEBEB"/>
<path d="M175.113 118.88H179.261V116.815H175.113V118.88Z" fill="#EBEBEB"/>
<path d="M169.811 118.88H173.959V116.815H169.811V118.88Z" fill="#EBEBEB"/>
<path d="M175.113 115.375H179.261V113.309H175.113V115.375Z" fill="#EBEBEB"/>
<path d="M169.811 115.375H173.959V113.309H169.811V115.375Z" fill="#EBEBEB"/>
<path d="M175.113 111.873H179.261V109.808H175.113V111.873Z" fill="#EBEBEB"/>
<path d="M169.811 111.873H173.959V109.808H169.811V111.873Z" fill="#EBEBEB"/>
<path d="M175.113 108.372H179.261V106.306H175.113V108.372Z" fill="#EBEBEB"/>
<path d="M169.811 108.372H173.959V106.306H169.811V108.372Z" fill="#EBEBEB"/>
<path d="M175.113 104.861H179.261V102.796H175.113V104.861Z" fill="#EBEBEB"/>
<path d="M169.811 104.861H173.959V102.796H169.811V104.861Z" fill="#EBEBEB"/>
<path d="M175.113 101.36H179.261V99.2946H175.113V101.36Z" fill="#EBEBEB"/>
<path d="M169.811 101.36H173.959V99.2946H169.811V101.36Z" fill="#EBEBEB"/>
<path d="M175.113 97.8589H179.261V95.7936H175.113V97.8589Z" fill="#EBEBEB"/>
<path d="M169.811 97.8589H173.959V95.7936H169.811V97.8589Z" fill="#EBEBEB"/>
<path d="M175.113 94.3486H179.261V92.2834H175.113V94.3486Z" fill="#EBEBEB"/>
<path d="M169.811 94.3486H173.959V92.2834H169.811V94.3486Z" fill="#EBEBEB"/>
<path d="M175.113 90.8472H179.261V88.7819H175.113V90.8472Z" fill="#EBEBEB"/>
<path d="M169.811 90.8472H173.959V88.7819H169.811V90.8472Z" fill="#EBEBEB"/>
<path d="M175.113 87.3418H179.261V85.2766H175.113V87.3418Z" fill="#EBEBEB"/>
<path d="M169.811 87.3418H173.959V85.2766H169.811V87.3418Z" fill="#EBEBEB"/>
<path d="M175.113 83.8359H179.261V81.7707H175.113V83.8359Z" fill="#EBEBEB"/>
<path d="M169.811 83.8359H173.959V81.7707H169.811V83.8359Z" fill="#EBEBEB"/>
<path d="M109.529 99.603H90.5812V137.645H109.529V99.603Z" fill="#C7C7C7"/>
<path d="M96.9158 102.896H93.5619V105.226H96.9158V102.896Z" fill="#DBDBDB"/>
<path d="M96.9158 107.877H93.5619V110.207H96.9158V107.877Z" fill="#DBDBDB"/>
<path d="M96.9158 112.854H93.5619V115.183H96.9158V112.854Z" fill="#DBDBDB"/>
<path d="M96.9158 117.83H93.5619V120.16H96.9158V117.83Z" fill="#DBDBDB"/>
<path d="M96.9158 122.811H93.5619V125.141H96.9158V122.811Z" fill="#DBDBDB"/>
<path d="M96.9158 127.788H93.5619V130.118H96.9158V127.788Z" fill="#DBDBDB"/>
<path d="M96.9158 132.764H93.5619V135.094H96.9158V132.764Z" fill="#DBDBDB"/>
<path d="M101.74 102.896H98.3866V105.226H101.74V102.896Z" fill="#DBDBDB"/>
<path d="M101.74 107.877H98.3866V110.207H101.74V107.877Z" fill="#DBDBDB"/>
<path d="M101.74 112.854H98.3866V115.183H101.74V112.854Z" fill="#DBDBDB"/>
<path d="M101.74 117.83H98.3866V120.16H101.74V117.83Z" fill="#DBDBDB"/>
<path d="M101.74 122.811H98.3866V125.141H101.74V122.811Z" fill="#DBDBDB"/>
<path d="M101.74 127.788H98.3866V130.118H101.74V127.788Z" fill="#DBDBDB"/>
<path d="M101.74 132.764H98.3866V135.094H101.74V132.764Z" fill="#DBDBDB"/>
<path d="M106.552 102.896H103.198V105.226H106.552V102.896Z" fill="#DBDBDB"/>
<path d="M106.552 107.877H103.198V110.207H106.552V107.877Z" fill="#DBDBDB"/>
<path d="M106.552 112.854H103.198V115.183H106.552V112.854Z" fill="#DBDBDB"/>
<path d="M106.552 117.83H103.198V120.16H106.552V117.83Z" fill="#DBDBDB"/>
<path d="M106.552 122.811H103.198V125.141H106.552V122.811Z" fill="#DBDBDB"/>
<path d="M106.552 127.788H103.198V130.118H106.552V127.788Z" fill="#DBDBDB"/>
<path d="M106.552 132.764H103.198V135.094H106.552V132.764Z" fill="#DBDBDB"/>
<path d="M109.529 95.6416H96.9158V99.6072H109.529V95.6416Z" fill="#DBDBDB"/>
<path d="M109.528 93.186H101.532V95.6418H109.528V93.186Z" fill="#EBEBEB"/>
<path d="M122.823 99.603H109.529V137.645H122.823V99.603Z" fill="#A6A6A6"/>
<path d="M118.735 134.725H121.464V132.395H118.735V134.725Z" fill="#C7C7C7"/>
<path d="M118.735 129.749H121.464V127.419H118.735V129.749Z" fill="#C7C7C7"/>
<path d="M118.735 124.768H121.464V122.438H118.735V124.768Z" fill="#C7C7C7"/>
<path d="M118.735 119.787H121.464V117.457H118.735V119.787Z" fill="#C7C7C7"/>
<path d="M118.735 114.814H121.464V112.485H118.735V114.814Z" fill="#C7C7C7"/>
<path d="M118.735 109.833H121.464V107.504H118.735V109.833Z" fill="#C7C7C7"/>
<path d="M118.735 104.857H121.464V102.527H118.735V104.857Z" fill="#C7C7C7"/>
<path d="M114.809 134.725H117.538V132.395H114.809V134.725Z" fill="#C7C7C7"/>
<path d="M114.809 129.749H117.538V127.419H114.809V129.749Z" fill="#C7C7C7"/>
<path d="M114.809 124.768H117.538V122.438H114.809V124.768Z" fill="#C7C7C7"/>
<path d="M114.809 119.787H117.538V117.457H114.809V119.787Z" fill="#C7C7C7"/>
<path d="M114.809 114.814H117.538V112.485H114.809V114.814Z" fill="#C7C7C7"/>
<path d="M114.809 109.833H117.538V107.504H114.809V109.833Z" fill="#C7C7C7"/>
<path d="M114.809 104.857H117.538V102.527H114.809V104.857Z" fill="#C7C7C7"/>
<path d="M110.891 134.725H113.62V132.395H110.891V134.725Z" fill="#C7C7C7"/>
<path d="M110.891 129.749H113.62V127.419H110.891V129.749Z" fill="#C7C7C7"/>
<path d="M110.891 124.768H113.62V122.438H110.891V124.768Z" fill="#C7C7C7"/>
<path d="M110.891 119.787H113.62V117.457H110.891V119.787Z" fill="#C7C7C7"/>
<path d="M110.891 114.814H113.62V112.485H110.891V114.814Z" fill="#C7C7C7"/>
<path d="M110.891 109.833H113.62V107.504H110.891V109.833Z" fill="#C7C7C7"/>
<path d="M110.891 104.857H113.62V102.527H110.891V104.857Z" fill="#C7C7C7"/>
<path d="M120.809 95.6416H109.529V99.6072H120.809V95.6416Z" fill="#C7C7C7"/>
<path d="M115.642 93.186H109.529V95.6418H115.642V93.186Z" fill="#DBDBDB"/>
<path d="M91.501 190.942C136.938 190.942 173.772 187.949 173.772 184.256C173.772 180.564 136.938 177.57 91.501 177.57C46.0637 177.57 9.22949 180.564 9.22949 184.256C9.22949 187.949 46.0637 190.942 91.501 190.942Z" fill="#EBEBEB"/>
<path d="M0.000976562 140.799L22.8749 140.695L45.7531 140.656L91.501 140.582L137.249 140.656L160.127 140.691L183.001 140.799L160.127 140.903L137.249 140.942L91.501 141.016L45.7531 140.942L22.8749 140.903L0.000976562 140.799Z" fill="#263238"/>
<path d="M182.02 137.645H0.977173V140.799H182.02V137.645Z" fill="#C7C7C7"/>
<path d="M13.6723 137.645C13.9558 138.677 13.9558 139.767 13.6723 140.799C13.5198 140.289 13.4467 139.757 13.4554 139.224C13.4482 138.69 13.5214 138.158 13.6723 137.645Z" fill="#263238"/>
<path d="M27.8211 137.645C27.9721 138.158 28.0452 138.69 28.038 139.224C28.0468 139.757 27.9736 140.289 27.8211 140.799C27.5377 139.767 27.5377 138.677 27.8211 137.645Z" fill="#263238"/>
<path d="M41.9741 137.645C42.2575 138.677 42.2575 139.767 41.9741 140.799C41.8216 140.289 41.7484 139.757 41.7572 139.224C41.75 138.69 41.8231 138.158 41.9741 137.645Z" fill="#263238"/>
<path d="M56.1227 137.645C56.2737 138.158 56.3468 138.69 56.3397 139.224C56.3484 139.757 56.2752 140.289 56.1227 140.799C55.8393 139.767 55.8393 138.677 56.1227 137.645Z" fill="#263238"/>
<path d="M70.2757 137.645C70.5592 138.677 70.5592 139.767 70.2757 140.799C70.1232 140.289 70.0501 139.757 70.0588 139.224C70.0516 138.69 70.1248 138.158 70.2757 137.645Z" fill="#263238"/>
<path d="M84.4245 137.645C84.5755 138.158 84.6486 138.69 84.6414 139.224C84.6502 139.757 84.577 140.289 84.4245 140.799C84.1411 139.767 84.1411 138.677 84.4245 137.645Z" fill="#263238"/>
<path d="M98.5775 137.645C98.8609 138.677 98.8609 139.767 98.5775 140.799C98.425 140.289 98.3518 139.757 98.3606 139.224C98.3534 138.69 98.4265 138.158 98.5775 137.645Z" fill="#263238"/>
<path d="M112.726 137.645C112.877 138.158 112.95 138.69 112.943 139.224C112.952 139.757 112.879 140.289 112.726 140.799C112.443 139.767 112.443 138.677 112.726 137.645Z" fill="#263238"/>
<path d="M126.879 137.645C127.163 138.677 127.163 139.767 126.879 140.799C126.727 140.289 126.653 139.757 126.662 139.224C126.655 138.69 126.728 138.158 126.879 137.645Z" fill="#263238"/>
<path d="M141.028 137.645C141.179 138.158 141.252 138.69 141.245 139.224C141.254 139.757 141.18 140.289 141.028 140.799C140.744 139.767 140.744 138.677 141.028 137.645Z" fill="#263238"/>
<path d="M155.181 137.645C155.464 138.677 155.464 139.767 155.181 140.799C155.028 140.289 154.955 139.757 154.964 139.224C154.957 138.69 155.03 138.158 155.181 137.645Z" fill="#263238"/>
<path d="M169.33 137.645C169.48 138.158 169.554 138.69 169.546 139.224C169.555 139.757 169.482 140.289 169.33 140.799C169.046 139.767 169.046 138.677 169.33 137.645Z" fill="#263238"/>
<path d="M21.3954 137.645C21.3954 137.645 21.0309 135.94 20.302 135.68C19.5731 135.419 19.1262 136.183 19.1262 136.183C19.1262 136.183 18.957 134.552 17.9201 134.066C16.8831 133.58 16.1108 134.578 16.1108 134.578C16.1108 134.578 15.3168 132.525 13.898 132.525C12.4793 132.525 11.7677 135.563 11.7677 135.563C11.7677 135.563 10.9303 134.664 10.0712 135.172C9.21217 135.68 9.20349 137.675 9.20349 137.675L21.3954 137.645Z" fill="#37474F"/>
<path d="M142.377 137.645C142.377 137.645 142.013 135.94 141.284 135.68C140.555 135.419 140.112 136.183 140.112 136.183C140.112 136.183 139.939 134.552 138.906 134.066C137.874 133.58 137.097 134.578 137.097 134.578C137.097 134.578 136.303 132.525 134.889 132.525C133.474 132.525 132.754 135.563 132.754 135.563C132.754 135.563 131.921 134.664 131.062 135.172C130.203 135.68 130.194 137.675 130.194 137.675L142.377 137.645Z" fill="#455A64"/>
<path d="M53.6236 137.645H40.8026C40.8026 137.645 41.2365 135.84 42.0739 135.71C42.3336 135.684 42.5949 135.74 42.8217 135.869C43.0486 135.998 43.2299 136.194 43.3408 136.43C43.3408 136.43 43.3017 133.909 44.8897 133.48C46.4777 133.05 47.8054 135.276 47.8054 135.276C47.8054 135.276 48.8033 134.005 50.157 134.087C51.5107 134.17 51.8621 136.257 51.8621 136.257C51.8621 136.257 53.077 135.532 53.6236 137.645Z" fill="#37474F"/>
<path d="M10.0018 137.645H3.255C3.255 137.645 3.255 136.643 3.93185 136.374C4.11223 136.296 4.31297 136.279 4.50389 136.325C4.69481 136.371 4.86558 136.478 4.99051 136.63C4.99051 136.63 5.25951 134.781 6.49606 134.781C7.7326 134.781 8.32701 136.374 8.32701 136.374C8.4319 136.222 8.579 136.104 8.75017 136.034C8.92133 135.965 9.10907 135.947 9.29021 135.983C9.97574 136.07 10.0018 137.645 10.0018 137.645Z" fill="#455A64"/>
<path d="M58.9169 137.645H52.1702C52.1702 137.645 52.1702 136.643 52.847 136.374C53.0274 136.296 53.2281 136.279 53.4191 136.325C53.61 136.371 53.7807 136.478 53.9057 136.63C53.9057 136.63 54.179 134.781 55.4156 134.781C56.6521 134.781 57.2422 136.374 57.2422 136.374C57.3471 136.222 57.4942 136.104 57.6653 136.034C57.8365 135.965 58.0242 135.947 58.2054 135.983C58.8909 136.07 58.9169 137.645 58.9169 137.645Z" fill="#455A64"/>
<path d="M169.902 137.645H163.156C163.156 137.645 163.156 136.643 163.832 136.374C164.013 136.296 164.213 136.279 164.404 136.325C164.595 136.371 164.766 136.478 164.891 136.63C164.891 136.63 165.16 134.781 166.397 134.781C167.633 134.781 168.228 136.374 168.228 136.374C168.332 136.221 168.479 136.103 168.65 136.033C168.822 135.964 169.01 135.946 169.191 135.983C169.876 136.07 169.902 137.645 169.902 137.645Z" fill="#455A64"/>
<path d="M179.747 137.645H168.622C168.622 137.645 168.648 135.988 169.742 135.55C170.039 135.425 170.369 135.399 170.682 135.478C170.995 135.556 171.274 135.733 171.477 135.983C171.477 135.983 171.911 132.946 173.963 132.946C176.016 132.946 176.974 135.563 176.974 135.563C177.147 135.312 177.39 135.117 177.672 135.002C177.954 134.887 178.264 134.857 178.562 134.916C179.703 135.051 179.747 137.645 179.747 137.645Z" fill="#37474F"/>
<path d="M129.617 9.89062H122.198V14.0949H129.617V9.89062Z" fill="#263238"/>
<path d="M130.662 8.47607H121.148V11.2268H130.662V8.47607Z" fill="#455A64"/>
<path d="M113.028 14.0456L111.006 16.0674L114.2 19.2611L116.222 17.2393L113.028 14.0456Z" fill="#263238"/>
<path d="M112.55 12.3743L109.338 15.5864L111.424 17.6726L114.636 14.4605L112.55 12.3743Z" fill="#455A64"/>
<path d="M135.592 17.236L137.614 19.2578L140.808 16.0641L138.786 14.0423L135.592 17.236Z" fill="#263238"/>
<path d="M137.169 14.4627L140.382 17.6748L142.468 15.5886L139.256 12.3764L137.169 14.4627Z" fill="#455A64"/>
<path d="M143.457 35.7141C145.731 26.0162 139.714 16.3105 130.016 14.0359C120.318 11.7612 110.612 17.779 108.337 27.477C106.063 37.1749 112.081 46.8806 121.779 49.1552C131.476 51.4298 141.182 45.4121 143.457 35.7141Z" fill="#455A64"/>
<path d="M125.686 48.5097C135.189 48.5097 142.893 40.8057 142.893 31.3022C142.893 21.7988 135.189 14.0947 125.686 14.0947C116.182 14.0947 108.478 21.7988 108.478 31.3022C108.478 40.8057 116.182 48.5097 125.686 48.5097Z" fill="#263238"/>
<path d="M140.94 33.7173C142.155 25.4116 136.406 17.6939 128.101 16.4793C119.795 15.2647 112.077 21.0131 110.863 29.3187C109.648 37.6244 115.397 45.3421 123.702 46.5567C132.008 47.7713 139.725 42.0229 140.94 33.7173Z" fill="white"/>
<path opacity="0.5" d="M141.106 31.5235H125.92V16.3379C129.948 16.3379 133.81 17.9378 136.658 20.7857C139.506 23.6335 141.106 27.496 141.106 31.5235Z" fill="#1E3050"/>
<path d="M126.055 17.4268H125.76V19.7306H126.055V17.4268Z" fill="#C7C7C7"/>
<path d="M118.983 19.2319L118.727 19.3794L119.879 21.3746L120.135 21.2271L118.983 19.2319Z" fill="#C7C7C7"/>
<path d="M113.766 24.3412L113.619 24.5967L115.614 25.7486L115.762 25.4931L113.766 24.3412Z" fill="#C7C7C7"/>
<path d="M114.115 31.376H111.811V31.671H114.115V31.376Z" fill="#C7C7C7"/>
<path d="M116.137 37.4384L114.132 38.5903L114.28 38.847L116.284 37.6951L116.137 37.4384Z" fill="#C7C7C7"/>
<path d="M119.881 41.6629L118.73 43.6587L118.985 43.8061L120.136 41.8103L119.881 41.6629Z" fill="#C7C7C7"/>
<path d="M126.055 43.3164H125.76V45.6203H126.055V43.3164Z" fill="#C7C7C7"/>
<path d="M131.927 41.6552L131.671 41.8027L132.823 43.798L133.079 43.6504L131.927 41.6552Z" fill="#C7C7C7"/>
<path d="M136.19 37.2811L136.042 37.5366L138.038 38.6886L138.185 38.433L136.19 37.2811Z" fill="#C7C7C7"/>
<path d="M140.004 31.376H137.7V31.671H140.004V31.376Z" fill="#C7C7C7"/>
<path d="M138.039 24.3393L136.043 25.4912L136.191 25.7467L138.186 24.5948L138.039 24.3393Z" fill="#C7C7C7"/>
<path d="M132.824 19.2383L131.673 21.2339L131.929 21.3813L133.08 19.3857L132.824 19.2383Z" fill="#C7C7C7"/>
<path d="M126.011 20.5248L126.688 32.4261L125.161 32.4044L125.599 20.5205L126.011 20.5248Z" fill="#1E3050"/>
<path d="M126.428 31.5235C126.428 31.6276 126.397 31.7292 126.339 31.8157C126.281 31.9021 126.199 31.9694 126.103 32.009C126.007 32.0486 125.901 32.0587 125.799 32.0381C125.697 32.0175 125.603 31.9671 125.53 31.8932C125.457 31.8194 125.407 31.7254 125.387 31.6233C125.368 31.5212 125.379 31.4155 125.419 31.3196C125.46 31.2238 125.528 31.1421 125.614 31.0849C125.701 31.0278 125.803 30.9977 125.907 30.9986C125.976 30.9986 126.044 31.0122 126.108 31.0386C126.171 31.065 126.229 31.1038 126.277 31.1526C126.325 31.2014 126.364 31.2593 126.39 31.323C126.415 31.3866 126.428 31.4548 126.428 31.5235Z" fill="#1E3050"/>
<path d="M136.923 31.7014L125.022 32.3739L125.044 30.8467L136.928 31.2849L136.923 31.7014Z" fill="#263238"/>
<path d="M126.428 31.5235C126.428 31.6276 126.397 31.7292 126.339 31.8157C126.281 31.9021 126.199 31.9694 126.103 32.009C126.007 32.0486 125.901 32.0587 125.799 32.0381C125.697 32.0175 125.603 31.9671 125.53 31.8932C125.457 31.8194 125.407 31.7254 125.387 31.6233C125.368 31.5212 125.379 31.4155 125.419 31.3196C125.46 31.2238 125.528 31.1421 125.614 31.0849C125.701 31.0278 125.803 30.9977 125.907 30.9986C125.976 30.9986 126.044 31.0122 126.108 31.0386C126.171 31.065 126.229 31.1038 126.277 31.1526C126.325 31.2014 126.364 31.2593 126.39 31.323C126.415 31.3866 126.428 31.4548 126.428 31.5235Z" fill="#1E3050"/>
<path d="M64.1104 64.1904C66.3449 72.716 69.2562 78.2826 71.2086 80.209C75.8858 84.8255 85.9604 85.8494 91.6268 88.201C93.4707 88.969 98.5688 77.2717 96.6814 76.2478C95.2887 75.4885 79.1138 73.4406 77.7384 73.0197C77.0312 72.8028 71.6642 65.813 68.627 61.8821C63.7329 55.5823 62.8869 59.5349 64.1104 64.1904Z" fill="#F7A9A0"/>
<path d="M100.482 89.841C99.6145 89.8193 99.5841 90.2749 100.795 91.2772C102.005 92.2794 107.641 95.182 106.457 97.0694C105.272 98.9568 97.38 94.7221 95.4927 92.9085C93.6053 91.0949 91.1799 87.5024 91.1799 87.5024C92.8851 88.0188 97.1414 88.8735 100.482 89.841Z" fill="#F7A9A0"/>
<path d="M95.319 75.8789C103.719 77.1805 107.06 78.8249 110.739 83.1203C111.159 83.5844 111.412 84.1752 111.459 84.7994C113.143 86.6911 112.761 88.0578 112.761 88.0578C113.785 90.3009 113.195 91.6416 113.195 91.6416C113.195 91.6416 115.147 93.8847 113.984 95.2905C112.683 96.8698 110.201 93.4075 107.671 92.3401C101.871 89.8887 92.9197 88.0318 91.1842 87.4938L95.319 75.8789Z" fill="#F7A9A0"/>
<path d="M103.38 85.5108C105.087 86.2056 106.744 87.0174 108.34 87.9405C110.021 89.0573 111.617 90.2987 113.112 91.6545C113.122 91.6603 113.134 91.6626 113.146 91.6609C113.157 91.6591 113.168 91.6536 113.176 91.645C113.184 91.6365 113.189 91.6255 113.19 91.6139C113.191 91.6022 113.188 91.5905 113.182 91.5808C110.55 88.6767 107.172 86.5502 103.415 85.4327C103.328 85.4067 103.294 85.4718 103.38 85.5108Z" fill="#263238"/>
<path d="M104.348 81.7927C105.958 82.617 108.769 84.0879 112.704 88.1055C112.704 88.1055 112.743 88.1055 112.73 88.1055C110.595 85.2478 107.706 83.041 104.387 81.7319C104.283 81.6712 104.244 81.7363 104.348 81.7927Z" fill="#263238"/>
<path d="M104.908 79.8057C107.585 81.3156 109.082 82.6042 111.438 84.8083C111.438 84.8083 111.472 84.8083 111.459 84.7866C109.051 82.0011 107.862 81.2635 104.951 79.7059C104.847 79.6538 104.804 79.7449 104.908 79.8057Z" fill="#263238"/>
<path d="M73.6384 68.056L65.9024 75.3061C65.9024 75.3061 62.7785 64.06 62.8002 60.5023C62.8002 56.4889 64.8654 57.374 67.5728 60.0684C70.2802 62.7627 73.6384 68.056 73.6384 68.056Z" fill="#1E3050"/>
<path opacity="0.1" d="M73.6384 68.056L65.9024 75.3061C65.9024 75.3061 62.7785 64.06 62.8002 60.5023C62.8002 56.4889 64.8654 57.374 67.5728 60.0684C70.2802 62.7627 73.6384 68.056 73.6384 68.056Z" fill="black"/>
<path d="M72.0547 66.9105C70.944 67.7001 67.9459 70.5377 67.4426 71.0019C67.1779 71.2492 66.1713 72.2688 65.9067 72.5118C65.872 72.5422 65.9067 72.5899 65.9587 72.5595C66.4664 72.0996 67.0217 71.6918 67.5294 71.2275C68.037 70.7633 71.1956 67.9908 72.0894 66.9495C72.1111 66.9278 72.0807 66.8931 72.0547 66.9105Z" fill="#263238"/>
<path d="M114.635 155.057C113.585 155.4 83.3527 154.189 82.2203 153.456C82.0815 153.373 81.5435 147.559 81.5435 147.559L85.0405 125.219L104.89 125.484L101.059 144.574C101.059 144.574 105.433 146.588 109.038 148.345C111.26 149.421 113.19 150.406 113.633 150.766C114.796 151.694 115.689 154.718 114.635 155.057Z" fill="#F7A9A0"/>
<path d="M114.64 155.057C113.59 155.4 83.3484 154.189 82.2204 153.46C82.0859 153.373 81.5392 147.559 81.5392 147.559L82.6195 140.678L101.662 141.546L101.046 144.557C101.046 144.557 105.415 146.57 109.025 148.323C111.247 149.399 113.177 150.384 113.62 150.744C114.791 151.699 115.685 154.723 114.64 155.057Z" fill="#EBEBEB"/>
<path d="M114.622 155.087C113.551 155.421 83.1185 154.714 81.9774 153.951C81.5435 153.669 81.383 149.226 81.3483 143.854V143.689L100.99 143.928V144.258C100.99 144.258 112.518 149.742 113.685 150.714C114.852 151.686 115.694 154.766 114.622 155.087Z" fill="#C7C7C7"/>
<path d="M112.887 155.174C106.227 155.244 82.9493 154.619 81.9774 153.955C81.5435 153.673 81.383 149.23 81.3483 143.859V143.694L93.6486 143.841L112.887 155.174Z" fill="#A6A6A6"/>
<path d="M114.305 153.907C109.177 153.66 88.4725 153.152 83.3875 153.3C83.3441 153.3 83.3441 153.33 83.3875 153.335C88.4639 153.686 109.168 154.024 114.301 153.99C114.41 153.99 114.414 153.912 114.305 153.907Z" fill="#263238"/>
<path d="M102.621 144.362C100.612 143.928 98.1348 144.188 96.5469 145.594C96.4861 145.646 96.5469 145.733 96.6293 145.711C98.5731 145.134 100.573 144.768 102.595 144.618C102.626 144.616 102.656 144.604 102.678 144.582C102.701 144.561 102.715 144.532 102.718 144.501C102.721 144.47 102.713 144.439 102.695 144.413C102.678 144.388 102.651 144.37 102.621 144.362Z" fill="#263238"/>
<path d="M104.057 145.273C102.048 144.839 99.571 145.104 97.983 146.505C97.9223 146.557 97.983 146.644 98.0655 146.627C100.014 146.052 102.018 145.688 104.044 145.542C104.08 145.544 104.115 145.531 104.141 145.507C104.168 145.483 104.184 145.45 104.185 145.414C104.187 145.378 104.174 145.344 104.15 145.317C104.126 145.291 104.093 145.275 104.057 145.273Z" fill="#263238"/>
<path d="M105.493 146.184C103.485 145.75 101.007 146.015 99.4192 147.416C99.3584 147.473 99.4192 147.555 99.5016 147.538C101.445 146.96 103.445 146.592 105.467 146.44C105.498 146.439 105.528 146.426 105.55 146.405C105.573 146.383 105.587 146.354 105.59 146.323C105.593 146.292 105.585 146.261 105.568 146.236C105.55 146.21 105.524 146.192 105.493 146.184Z" fill="#263238"/>
<path d="M102.725 141.685L80.5673 140.678C80.5673 140.678 88.2252 109.583 87.4095 108.572C86.5418 107.487 54.461 115.514 48.0484 107.556C41.4795 99.4038 44.7726 87.6675 44.7726 87.6675H66.6529C66.6529 87.6675 66.2191 90.6048 66.5141 92.0062C66.5141 92.0062 97.3192 87.2943 104.018 90.8434C105.32 91.542 110.093 95.4642 110.171 99.1825C110.591 115.605 102.725 141.685 102.725 141.685Z" fill="#455A64"/>
<path d="M102.947 137.671C100.317 137.342 97.6836 137.142 95.0413 136.943C92.399 136.743 89.7567 136.587 87.1144 136.487C85.6219 136.426 84.1293 136.439 82.6368 136.387C82.6292 136.39 82.6225 136.395 82.6178 136.401C82.6131 136.408 82.6106 136.416 82.6106 136.424C82.6106 136.432 82.6131 136.44 82.6178 136.447C82.6225 136.453 82.6292 136.458 82.6368 136.461C83.9645 136.556 85.2878 136.726 86.6154 136.83L90.5464 137.116C93.1887 137.29 95.831 137.437 98.4733 137.598C99.9615 137.689 101.45 137.737 102.942 137.771C102.953 137.769 102.963 137.762 102.97 137.754C102.977 137.745 102.981 137.734 102.982 137.723C102.982 137.712 102.979 137.701 102.973 137.691C102.966 137.682 102.957 137.675 102.947 137.671Z" fill="#263238"/>
<path d="M90.8241 106.363C86.5678 106.502 82.3332 106.871 78.0986 107.287C73.8639 107.704 69.6033 108.155 65.334 108.433C63.2166 108.567 61.0906 108.654 58.9647 108.667C57.1988 108.743 55.4314 108.559 53.7191 108.12C52.0191 107.623 50.566 106.509 49.645 104.996C48.7191 103.463 48.1125 101.759 47.8618 99.9851C47.3021 96.397 47.8618 92.7307 48.5169 89.1903C48.5994 88.7564 48.6818 88.3225 48.7599 87.854C48.7599 87.8149 48.7035 87.7976 48.6905 87.854C47.8227 91.4248 47.0114 95.0997 47.2717 98.7876C47.3782 100.597 47.8195 102.372 48.5733 104.02C49.2533 105.622 50.4227 106.968 51.9142 107.864C53.4371 108.732 55.2377 108.988 56.9862 109.075C59.0254 109.179 61.0906 109.075 63.1299 108.984C67.4946 108.771 71.8421 108.32 76.1808 107.869C80.5196 107.417 84.8367 106.975 89.1971 106.758C89.6787 106.732 90.1603 106.715 90.6419 106.697C89.9824 110.602 84.3984 133.849 84.086 135.689C84.0557 135.871 84.2292 135.927 84.277 135.741C85.2315 132.118 90.6506 108.841 91.0107 106.567C91.0165 106.541 91.0158 106.513 91.0088 106.487C91.0017 106.461 90.9885 106.437 90.9702 106.417C90.9519 106.397 90.9291 106.381 90.9037 106.372C90.8783 106.363 90.851 106.36 90.8241 106.363Z" fill="#263238"/>
<path d="M107.906 155.964H60.5526V161.201H107.906V155.964Z" fill="#1E3050"/>
<path d="M18.9397 110.021H21.6254L38.9804 129.875H36.2947L18.9397 110.021Z" fill="#A6A6A6"/>
<path d="M52.7645 108.445H15.4425V110.016H52.7645V108.445Z" fill="#A6A6A6"/>
<path d="M29.0663 110.021H31.752L49.107 129.875H46.4213L29.0663 110.021Z" fill="#A6A6A6"/>
<path d="M46.3345 146.622C59.8194 146.622 67.6335 155.989 67.6335 167.014C67.6335 178.039 60.3964 187.194 47.2457 187.194C32.6935 187.194 25.7428 175.618 25.7428 166.914C25.7428 158.211 32.6848 146.622 46.3345 146.622Z" fill="#37474F"/>
<path d="M44.2605 146.622C57.0816 146.622 64.5052 155.989 64.5052 167.014C64.5052 178.039 57.6282 187.194 45.1196 187.194C31.2833 187.194 24.6841 175.601 24.6841 166.897C24.6841 158.194 31.2833 146.622 44.2605 146.622Z" fill="#263238"/>
<path d="M44.3907 154.541C52.2005 154.541 56.7258 160.25 56.7258 166.967C56.7258 173.683 52.5346 179.258 44.9157 179.258C36.4812 179.258 32.4548 172.204 32.4548 166.897C32.4548 161.591 36.4812 154.541 44.3907 154.541Z" fill="#C7C7C7"/>
<path d="M84.5069 121.904V120.13L39.1278 121.592V125.584C39.1278 125.584 25.9857 140.097 24.6581 155.183L70.1629 156.146L77.4737 155.964H86.4506V146.844C86.4506 146.844 79.6648 141.897 80.8536 131.792C81.2485 128.439 84.5069 121.904 84.5069 121.904Z" fill="#1E3050"/>
<path d="M65.924 154.033C65.4511 154.9 58.5481 156.146 45.4624 156.497C33.6827 156.814 24.8837 156.554 24.2025 155.794C23.5213 155.035 25.2568 141.607 33.2315 134.335C41.2061 127.063 52.4955 126.017 59.9408 130.356C66.488 134.161 71.3735 143.832 65.924 154.033Z" fill="#1E3050"/>
<path opacity="0.1" d="M68.1455 141.32C67.4459 138.14 65.8322 135.234 63.503 132.959C61.1681 130.62 58.2524 128.944 55.0554 128.104C51.4894 127.214 47.7545 127.255 44.2086 128.222C42.4339 128.687 40.7178 129.352 39.0932 130.204C37.3778 131.126 35.7612 132.221 34.2685 133.471C33.8693 133.801 33.4658 134.131 33.071 134.469C33.0363 134.495 33.071 134.543 33.123 134.517C34.6249 133.196 36.2508 132.024 37.9781 131.016C39.5543 130.116 41.2265 129.395 42.9633 128.868C46.4068 127.791 50.0637 127.585 53.6063 128.269C56.808 128.913 59.7754 130.412 62.1927 132.608C64.5219 134.705 66.235 137.398 67.1476 140.396C68.2322 144.049 67.8765 148.071 66.7961 151.677C66.6529 152.163 66.4967 152.64 66.3362 153.117C66.3362 153.169 66.3969 153.187 66.4143 153.139C67.8721 149.395 68.9612 145.36 68.1455 141.32Z" fill="black"/>
<path d="M36.6028 157.882C28.7019 157.882 24.5194 157.639 22.3977 156.797L23.3826 154.319C25.8644 155.304 33.6351 155.287 46.1394 155.144C55.3766 155.035 62.1928 154.163 66.4447 152.541L67.3949 155.031C62.7958 156.766 55.8538 157.686 46.1697 157.799C42.4948 157.851 39.3275 157.882 36.6028 157.882Z" fill="#DBDBDB"/>
<path d="M85.2532 121.297C85.2532 121.297 85.5569 111.37 85.2532 110.979C84.9495 110.589 39.0107 109.76 37.6353 109.882C36.26 110.003 36.1211 121.596 36.2253 122.139C36.3294 122.681 84.0557 121.401 85.2532 121.297Z" fill="#37474F"/>
<path d="M89.5572 111.179C89.4227 111.023 83.6001 110.858 83.279 110.849C82.958 110.84 82.8452 121.423 83.0187 121.414C83.1923 121.405 89.3446 121.492 89.5485 121.266C89.7525 121.041 89.8479 111.517 89.5572 111.179Z" fill="#455A64"/>
<path d="M57.381 109.89C57.2164 110.062 57.1088 110.28 57.0729 110.515C57.0184 110.762 56.9793 111.013 56.9558 111.266C56.8994 111.769 56.869 112.281 56.843 112.788C56.7996 113.812 56.7735 114.841 56.7562 115.873C56.7388 116.906 56.7128 117.93 56.7562 118.949C56.76 119.454 56.7948 119.959 56.8603 120.459C56.8864 120.701 56.9433 120.939 57.0295 121.167C57.0613 121.269 57.1174 121.361 57.1929 121.437C57.2685 121.513 57.3613 121.569 57.4634 121.6C57.3489 121.597 57.2378 121.561 57.1432 121.496C57.0486 121.432 56.9745 121.341 56.9297 121.236C56.8083 121.009 56.7137 120.769 56.6477 120.52C56.5249 120.011 56.4451 119.493 56.4091 118.971C56.329 117.932 56.3029 116.889 56.331 115.847C56.357 114.81 56.4004 113.769 56.5176 112.732C56.5739 112.213 56.6564 111.698 56.7649 111.187C56.8254 110.935 56.8993 110.686 56.9861 110.441C57.0556 110.229 57.177 109.964 57.381 109.89Z" fill="#455A64"/>
<path d="M17.1694 108.424H60.5526V81.4541H17.1694V108.424Z" fill="#37474F"/>
<path d="M17.1694 108.424H48.5126V81.4541H17.1694L17.1694 108.424Z" fill="#263238"/>
<path d="M34.5288 81.4497H31.1576V108.419H34.5288V81.4497Z" fill="#1E3050"/>
<path d="M48.5168 78.9551H16.2886V81.4499H48.5168V78.9551Z" fill="#37474F"/>
<path d="M61.5245 78.9551H48.5126V81.4499H61.5245V78.9551Z" fill="#263238"/>
<path d="M34.8108 78.9551H30.8712V81.4499H34.8108V78.9551Z" fill="#1E3050"/>
<path d="M21.7642 79.0679H53.4327V59.3786H21.7642L21.7642 79.0679Z" fill="#37474F"/>
<path d="M21.7642 79.0679H44.6425V59.3786H21.7642L21.7642 79.0679Z" fill="#263238"/>
<path d="M34.4333 59.3828H31.9733V79.0721H34.4333V59.3828Z" fill="#1E3050"/>
<path d="M44.6424 57.5605H21.1177V59.3828H44.6424V57.5605Z" fill="#37474F"/>
<path d="M54.14 57.5605H44.6425V59.3828H54.14V57.5605Z" fill="#263238"/>
<path d="M34.6416 57.5605H31.765V59.3828H34.6416V57.5605Z" fill="#1E3050"/>
<path d="M145.38 146.458C158.869 146.458 166.679 155.825 166.679 166.85C166.679 177.874 159.441 187.016 146.286 187.016C131.73 187.016 124.779 175.44 124.779 166.741C124.779 158.042 131.73 146.458 145.38 146.458Z" fill="#37474F"/>
<path d="M143.306 146.458C156.127 146.458 163.555 155.825 163.555 166.85C163.555 177.874 156.673 187.016 144.169 187.016C130.333 187.016 123.725 175.44 123.725 166.741C123.725 158.042 130.333 146.458 143.306 146.458Z" fill="#263238"/>
<path d="M143.436 154.375C151.246 154.375 155.775 160.085 155.775 166.802C155.775 173.518 151.584 179.093 143.961 179.093C135.531 179.093 131.504 172.039 131.504 166.737C131.504 161.435 135.531 154.375 143.436 154.375Z" fill="#C7C7C7"/>
<path d="M123.56 100.402H118.254L114.618 95.0649H120.835L123.56 100.402Z" fill="#1E3050"/>
<path d="M114.618 95.0649L116.748 98.1888L118.254 100.402H123.56L122.124 97.5901L120.831 95.0649H114.618Z" fill="#1E3050"/>
<path opacity="0.1" d="M114.618 95.0649L116.748 98.1888L122.124 97.5901L120.831 95.0649H114.618Z" fill="black"/>
<path d="M136.455 140.227L131.287 141.416L126.549 137.025L132.606 135.637L136.455 140.227Z" fill="#1E3050"/>
<path d="M126.549 137.025L129.322 139.598L131.283 141.416L136.459 140.227L134.429 137.81L132.606 135.637L126.549 137.025Z" fill="#1E3050"/>
<path opacity="0.1" d="M126.549 137.025L129.322 139.598L134.429 137.81L132.606 135.637L126.549 137.025Z" fill="black"/>
<path d="M165.507 149.061L160.487 151.699C160.487 151.699 145.948 149.061 136.624 151.056C127.3 153.052 124.784 158.033 124.784 158.033H120.072C120.072 158.033 124.115 143.667 130.975 138.452C137.835 133.237 148.859 134.404 154.955 137.689C161.051 140.973 165.507 149.061 165.507 149.061Z" fill="#1E3050"/>
<path opacity="0.1" d="M159.958 150.705C158.985 149.69 157.932 148.756 156.808 147.911C155.694 147.045 154.516 146.265 153.285 145.577C150.897 144.25 148.279 143.39 145.57 143.043C140.269 142.392 134.724 143.937 130.819 148.011C128.623 150.319 127.061 153.152 125.577 156.012C125.556 156.055 125.617 156.09 125.638 156.046C126.895 153.532 128.483 151.198 130.359 149.104C132.166 147.131 134.416 145.614 136.923 144.679C141.926 142.843 147.336 143.546 152.144 145.763C153.52 146.387 154.849 147.112 156.118 147.933C157.416 148.807 158.669 149.747 159.871 150.749C159.879 150.756 159.888 150.76 159.899 150.762C159.909 150.763 159.92 150.761 159.929 150.757C159.939 150.752 159.946 150.745 159.951 150.735C159.957 150.726 159.959 150.716 159.958 150.705Z" fill="black"/>
<path d="M104.791 97.5292C104.713 97.7115 94.2344 99.6379 94.2344 99.6379C94.2344 99.6379 92.4989 98.4664 93.5706 96.9825L104.083 94.7134C104.488 95.0449 104.774 95.4976 104.902 96.0046C105.029 96.5116 104.99 97.0461 104.791 97.5292Z" fill="#263238"/>
<path d="M126.784 83.9836V96.4141C126.784 96.4141 120.072 95.8284 118.284 95.7677C116.497 95.7069 108.552 96.7352 108.552 96.7352L107.936 93.9497C107.936 93.9497 114.062 91.8107 116.666 90.1403C119.269 88.4699 122.267 85.2765 123.877 84.5693C124.788 84.153 125.783 83.9525 126.784 83.9836Z" fill="#1E3050"/>
<path d="M108.578 93.5981C108.977 94.0085 109.278 94.5039 109.459 95.0472C109.639 95.5905 109.694 96.1675 109.62 96.7351C109.62 96.7351 104.617 97.6505 104.556 97.6505C104.598 97.062 104.455 96.4751 104.148 95.9713C103.841 95.4675 103.385 95.0718 102.842 94.839L108.578 93.5981Z" fill="#DBDBDB"/>
<path d="M126.849 96.414C128.665 96.414 130.138 93.6323 130.138 90.2009C130.138 86.7695 128.665 83.9878 126.849 83.9878C125.032 83.9878 123.56 86.7695 123.56 90.2009C123.56 93.6323 125.032 96.414 126.849 96.414Z" fill="#DBDBDB"/>
<path d="M127.053 95.7461C128.608 95.7461 129.869 93.2636 129.869 90.2012C129.869 87.1388 128.608 84.6562 127.053 84.6562C125.498 84.6562 124.237 87.1388 124.237 90.2012C124.237 93.2636 125.498 95.7461 127.053 95.7461Z" fill="white"/>
<path d="M127.907 100.419C129.001 102.02 133.379 123.792 134.238 124.885C135.097 125.979 136.741 126.057 136.741 126.057L139.635 133.25C139.635 133.25 132.446 135.519 128.454 138.8C123.295 143.039 118.527 157.092 118.527 157.092C117.746 157.638 108.053 161.626 105.394 161.782C105.394 161.782 117.755 148.21 118.761 129.428C119.152 122.152 114.674 111.904 114.384 106.827C114.063 101.378 115.711 100.419 118.605 100.419H127.907Z" fill="#1E3050"/>
<path d="M104.799 163.331L102.864 161.5C113.711 150.02 117.711 131.931 117.395 126.994C117.23 124.464 116.418 121.636 115.555 118.637C114.635 115.44 113.594 111.817 113.151 107.882C112.739 104.228 113.151 101.868 114.397 100.458C115.642 99.048 117.351 99.0523 118.488 99.0566H128.814V101.721H118.484C117.49 101.721 116.813 101.755 116.384 102.237C115.954 102.719 115.394 103.972 115.802 107.587C116.236 111.296 117.186 114.654 118.119 117.9C119.022 121.041 119.855 124.004 120.054 126.82C120.393 132.092 116.232 151.282 104.799 163.331Z" fill="#DBDBDB"/>
<path d="M134.29 130.825C134.897 133.064 136.811 134.487 138.563 134.01C140.316 133.532 141.249 131.333 140.637 129.098C140.026 126.864 138.112 125.432 136.359 125.909C134.606 126.386 133.678 128.591 134.29 130.825Z" fill="#DBDBDB"/>
<path d="M134.941 130.647C135.483 132.643 137.14 133.927 138.642 133.519C140.143 133.112 140.915 131.163 140.377 129.181C139.839 127.198 138.177 125.901 136.68 126.308C135.184 126.716 134.398 128.651 134.941 130.647Z" fill="white"/>
<path opacity="0.1" d="M126.615 130.465C126.133 128.213 125.612 125.97 125.161 123.714C124.71 121.458 124.293 119.197 123.942 116.928C123.599 114.815 123.23 112.68 123.096 110.541C122.961 108.307 123.096 106.051 124.18 104.033C124.183 104.029 124.184 104.025 124.185 104.02C124.185 104.016 124.185 104.011 124.184 104.007C124.183 104.002 124.181 103.998 124.178 103.995C124.175 103.991 124.171 103.988 124.167 103.986C124.163 103.983 124.159 103.982 124.155 103.981C124.15 103.981 124.145 103.981 124.141 103.982C124.136 103.983 124.132 103.985 124.129 103.988C124.125 103.991 124.122 103.995 124.12 103.999C123.005 105.626 122.64 107.582 122.579 109.522C122.585 111.66 122.774 113.794 123.144 115.9C123.777 120.524 124.645 125.113 125.747 129.649C126.376 132.214 127.187 134.734 128.055 137.225C128.055 137.233 128.058 137.241 128.064 137.246C128.07 137.252 128.077 137.255 128.085 137.255C128.093 137.255 128.101 137.252 128.107 137.246C128.113 137.241 128.116 137.233 128.116 137.225C127.598 134.96 127.098 132.707 126.615 130.465Z" fill="black"/>
<path opacity="0.1" d="M86.4507 146.844V155.955H78.6756V149.056C78.6756 149.056 74.3369 146.865 73.4691 138.895C72.6881 131.675 78.45 122.039 79.5434 120.29L84.4939 120.13V121.904C84.4939 121.904 81.2355 128.439 80.8406 131.792C79.6648 141.897 86.4507 146.844 86.4507 146.844Z" fill="black"/>
<path d="M106.005 158.085C104.955 158.424 74.7186 157.217 73.5862 156.484C73.4517 156.402 72.9137 150.583 72.9137 150.583L76.4107 128.243L96.2605 128.508L92.4294 147.598C92.4294 147.598 96.7985 149.607 100.408 151.364C102.63 152.445 104.561 153.43 105.003 153.785C106.162 154.723 107.055 157.747 106.005 158.085Z" fill="#F7A9A0"/>
<path d="M106.01 158.085C104.955 158.424 74.7187 157.217 73.5906 156.484C73.4518 156.402 72.9094 150.588 72.9094 150.588L73.9898 143.702L93.0326 144.57L92.4295 147.572C92.4295 147.572 96.7986 149.585 100.408 151.338C102.626 152.419 104.561 153.404 105.003 153.759C106.162 154.727 107.055 157.747 106.01 158.085Z" fill="#EBEBEB"/>
<path d="M105.988 158.124C104.921 158.458 74.4844 157.747 73.3433 156.983C72.9094 156.701 72.7532 152.263 72.7185 146.891V146.722L92.3557 146.961V147.295C92.3557 147.295 103.884 152.775 105.051 153.747C106.218 154.718 107.06 157.79 105.988 158.124Z" fill="#C7C7C7"/>
<path d="M105.671 156.931C100.547 156.688 79.8428 156.181 74.7578 156.328C74.7144 156.328 74.7144 156.359 74.7578 156.359C79.8341 156.714 100.539 157.053 105.671 157.018C105.78 157.014 105.78 156.936 105.671 156.931Z" fill="#263238"/>
<path d="M93.9914 147.386C91.9826 146.952 89.5051 147.217 87.9172 148.618C87.8521 148.675 87.9172 148.757 87.9996 148.74C89.9432 148.161 91.9433 147.793 93.9654 147.642C93.9964 147.64 94.0259 147.628 94.0484 147.606C94.071 147.585 94.0851 147.556 94.0882 147.525C94.0914 147.494 94.0833 147.463 94.0656 147.438C94.0478 147.412 94.0215 147.394 93.9914 147.386Z" fill="#263238"/>
<path d="M95.4275 148.301C93.4187 147.867 90.9412 148.128 89.3533 149.529C89.2925 149.586 89.3533 149.672 89.4357 149.651C91.3807 149.072 93.3822 148.704 95.4058 148.553C95.4223 148.554 95.439 148.553 95.4548 148.548C95.4706 148.543 95.4853 148.534 95.498 148.524C95.5107 148.513 95.5211 148.5 95.5288 148.485C95.5364 148.471 95.5411 148.455 95.5425 148.438C95.5439 148.421 95.5421 148.405 95.5371 148.389C95.5321 148.373 95.524 148.359 95.5133 148.346C95.5026 148.333 95.4896 148.323 95.4748 148.315C95.4601 148.307 95.444 148.303 95.4275 148.301Z" fill="#263238"/>
<path d="M96.8637 149.212C94.8548 148.778 92.3774 149.039 90.7894 150.445C90.7287 150.497 90.7894 150.583 90.8719 150.562C92.8161 149.987 94.8159 149.621 96.8376 149.468C96.8687 149.467 96.8982 149.454 96.9207 149.433C96.9432 149.411 96.9573 149.382 96.9605 149.352C96.9636 149.321 96.9556 149.29 96.9378 149.264C96.9201 149.238 96.8938 149.22 96.8637 149.212Z" fill="#263238"/>
<path d="M94.1042 144.713L71.9462 143.702C71.9462 143.702 79.6085 112.606 78.7928 111.595C77.925 110.506 48.7079 118.537 42.2908 110.58C35.722 102.428 42.2908 88.7822 42.2908 88.7822H64.7526C64.7526 88.7822 64.7526 91.2814 63.2253 95.0214C63.2253 95.0214 88.6938 90.3051 95.4059 93.8542C96.7292 94.5571 101.48 98.4793 101.558 102.198C101.949 118.642 94.1042 144.713 94.1042 144.713Z" fill="#455A64"/>
<path d="M94.3168 140.7C91.6875 140.37 89.0495 140.166 86.4072 139.971C83.7649 139.776 81.127 139.615 78.4803 139.511C76.9921 139.455 75.4996 139.468 74.0071 139.411C73.9967 139.411 73.9868 139.415 73.9795 139.423C73.9721 139.43 73.968 139.44 73.968 139.45C73.968 139.461 73.9721 139.47 73.9795 139.478C73.9868 139.485 73.9967 139.489 74.0071 139.489C75.3347 139.585 76.658 139.75 77.9857 139.854C79.3134 139.958 80.589 140.053 81.9166 140.14C84.5546 140.318 87.1969 140.461 89.8392 140.626C91.3317 140.717 92.8199 140.765 94.3124 140.8C94.3234 140.797 94.3331 140.791 94.3402 140.782C94.3473 140.773 94.3514 140.762 94.3519 140.751C94.3524 140.74 94.3493 140.729 94.3429 140.72C94.3366 140.71 94.3274 140.703 94.3168 140.7Z" fill="#263238"/>
<path d="M51.6842 90.6609C51.6548 90.7524 51.6171 90.841 51.5714 90.9256C51.5665 90.9317 51.5638 90.9394 51.5638 90.9473C51.5638 90.9551 51.5665 90.9628 51.5714 90.9689C51.3111 91.7803 51.2026 92.6394 50.951 93.4551C50.712 94.3209 50.1818 95.0779 49.4498 95.5984C47.9138 96.6657 46.0699 97.1473 44.2823 97.5899C44.2716 97.5931 44.2621 97.5997 44.2554 97.6087C44.2487 97.6177 44.2451 97.6286 44.2451 97.6398C44.2451 97.651 44.2487 97.6619 44.2554 97.6709C44.2621 97.6799 44.2716 97.6865 44.2823 97.6897C45.3128 97.6954 46.3377 97.5387 47.3194 97.2254C48.2419 96.9701 49.1115 96.5529 49.888 95.9932C50.6172 95.4413 51.1374 94.658 51.3632 93.7718C51.4723 93.3005 51.5577 92.8241 51.6191 92.3443C51.7196 91.7927 51.779 91.2343 51.797 90.6739C51.7907 90.6654 51.7826 90.6583 51.7734 90.653C51.7642 90.6477 51.754 90.6443 51.7434 90.6431C51.7329 90.6419 51.7222 90.6428 51.712 90.6459C51.7018 90.6489 51.6924 90.6541 51.6842 90.6609Z" fill="#263238"/>
<path d="M66.8394 93.9109C65.6177 94.2634 64.4276 94.7177 63.2817 95.2689L63.2253 95.295C63.2488 95.2243 63.2662 95.1517 63.2773 95.078C63.2773 94.9913 63.3034 94.9088 63.3207 94.8221C63.3381 94.7353 63.3207 94.6442 63.3467 94.553V94.4142C63.4944 94.4047 63.6385 94.3647 63.7699 94.2967C63.9013 94.2288 64.0172 94.1343 64.1104 94.0194C64.35 93.6865 64.5116 93.3039 64.5833 92.9C64.7178 92.3967 64.8436 91.8847 64.9521 91.3727C65.0605 90.8608 65.1777 90.2316 65.2688 89.6372C65.379 89.0749 65.4443 88.5048 65.4641 87.9321C65.4641 87.9114 65.4558 87.8915 65.4412 87.8769C65.4265 87.8622 65.4067 87.854 65.386 87.854C65.3652 87.854 65.3454 87.8622 65.3307 87.8769C65.3161 87.8915 65.3079 87.9114 65.3079 87.9321C65.1734 88.4571 65.1126 88.9994 65.0128 89.5288C64.913 90.0581 64.8002 90.5918 64.6787 91.1211C64.5573 91.6504 64.4271 92.1797 64.2796 92.7004C64.1321 93.221 64.0192 93.8415 63.4812 94.002C62.3705 94.3188 62.8695 91.8326 62.9172 91.338C63.03 90.21 63.0994 89.0558 63.299 87.9364C63.299 87.8931 63.2339 87.8714 63.2253 87.9364C62.9823 88.9647 62.7089 89.9757 62.5267 91.017C62.4356 91.5289 62.3705 92.0452 62.3141 92.5572C62.224 93.0008 62.2601 93.4608 62.4182 93.8849C62.4871 94.0281 62.5899 94.1524 62.7176 94.2469C62.8454 94.3415 62.9944 94.4033 63.1515 94.4272L63.1168 94.5444C63.0908 94.6268 63.0647 94.7092 63.043 94.7917C63.0213 94.8741 63.004 94.9609 62.9866 95.0433C62.9484 95.1412 62.935 95.247 62.9476 95.3514C62.9572 95.3806 62.9773 95.4053 63.004 95.4208C62.5311 95.6247 62.0538 95.8286 61.5852 96.0499C60.9961 96.2813 60.426 96.5584 59.8801 96.8786C59.815 96.909 59.8801 96.9958 59.9278 96.9827C60.5387 96.8113 61.1361 96.5952 61.7154 96.3363C62.3098 96.1107 62.8955 95.8677 63.4856 95.6204C64.6544 95.1912 65.7851 94.6644 66.8655 94.0454C66.8833 94.042 66.899 94.0316 66.9092 94.0165C66.9194 94.0015 66.9232 93.983 66.9197 93.9651C66.9163 93.9473 66.9059 93.9316 66.8908 93.9214C66.8757 93.9112 66.8573 93.9075 66.8394 93.9109Z" fill="#263238"/>
<path d="M100.899 99.3734C100.13 97.1138 98.5748 95.2059 96.5166 93.9976C94.4036 92.8305 91.9392 92.5181 89.5745 92.4444C86.8238 92.3619 84.0557 92.5051 81.3092 92.6787C78.3849 92.8609 75.4606 93.1386 72.5536 93.5464C69.6467 93.9543 66.7918 94.4532 63.9325 95.0693C63.247 95.2168 62.5658 95.3991 61.8846 95.59C61.8326 95.59 61.8412 95.7028 61.8846 95.6941C64.7265 95.2949 67.5554 94.8263 70.3973 94.4359C73.2391 94.0454 76.1114 93.7373 78.9836 93.5204C81.8559 93.3034 84.6978 93.182 87.557 93.1386C89.9 93.1039 92.3297 93.1386 94.5554 93.8935C95.656 94.2452 96.6753 94.8131 97.5535 95.5639C98.4161 96.3352 99.123 97.2645 99.6361 98.3017C100.808 100.606 100.916 103.248 101.033 105.799C101.372 113.37 95.9265 137.429 94.9589 141.294C94.9564 141.328 94.9659 141.361 94.9855 141.389C95.0052 141.416 95.0339 141.436 95.0665 141.444C95.0991 141.452 95.1336 141.449 95.1639 141.434C95.1943 141.419 95.2185 141.395 95.2323 141.364C96.3213 136.999 101.74 114.273 101.74 107.443C101.745 104.719 101.845 101.942 100.899 99.3734Z" fill="#263238"/>
<path d="M82.0469 108.975C78.0769 109.113 74.1286 109.482 70.1804 109.899C66.2321 110.315 62.2535 110.767 58.2792 111.044C56.3007 111.179 54.3179 111.266 52.3351 111.279C50.6865 111.356 49.0361 111.171 47.4453 110.732C45.8296 110.21 44.4716 109.095 43.6446 107.612C42.7765 106.058 42.2125 104.353 41.9828 102.588C41.4622 98.9999 41.9828 95.3336 42.5946 91.7932C42.6727 91.3593 42.7464 90.9254 42.8245 90.4612C42.8245 90.4178 42.7681 90.4004 42.7594 90.4612C41.9307 94.032 41.1888 97.7069 41.4578 101.395C41.5564 103.197 41.9659 104.969 42.6683 106.632C43.2807 108.205 44.37 109.548 45.7836 110.472C47.2393 111.25 48.8618 111.666 50.5128 111.682C52.4236 111.754 54.3368 111.723 56.2443 111.591C60.314 111.378 64.3664 110.927 68.4145 110.476C72.4626 110.025 76.4846 109.582 80.537 109.365C80.9709 109.343 81.4351 109.322 81.882 109.309C81.2702 113.192 76.0637 136.456 75.773 138.296C75.7427 138.478 75.9075 138.535 75.9509 138.352C76.8187 134.725 81.895 111.452 82.2291 109.174C82.2349 109.148 82.2344 109.121 82.2276 109.096C82.2208 109.07 82.2079 109.047 82.19 109.027C82.1721 109.007 82.1497 108.992 82.1248 108.983C82.0999 108.974 82.0732 108.971 82.0469 108.975Z" fill="#263238"/>
<path d="M41.0022 91.5551C41.0629 91.6419 70.7444 93.924 71.0568 93.6464C71.4906 93.2515 68.5533 62.8412 65.9023 58.381C65.3339 57.4308 63.1602 56.9318 61.2555 56.9492C60.7596 56.9468 60.2644 56.9889 59.776 57.075H59.7283C59.334 57.142 58.9541 57.2755 58.6045 57.4698C52.9034 61.0276 46.8205 75.0765 45.2889 79.3285C42.7507 86.3399 40.7809 91.2427 41.0022 91.5551Z" fill="#1E3050"/>
<path d="M64.5356 62.2596C63.0604 62.2596 60.57 59.8776 60.0754 57.6432C60.0407 57.487 60.6524 56.155 61.3119 54.4976C61.7111 53.4866 62.132 52.3586 62.44 51.2999C62.5007 51.0786 68.614 54.8447 68.614 54.8447C67.8503 56.0598 67.2383 57.3639 66.7918 58.7279C66.7516 58.8698 66.724 59.015 66.7093 59.1617C66.7111 59.1863 66.7111 59.2109 66.7093 59.2355C66.5922 60.1163 66.1106 62.2813 64.5356 62.2596Z" fill="#F7A9A0"/>
<path d="M66.7093 59.1746C66.711 59.1991 66.711 59.2238 66.7093 59.2483C66.4752 59.2142 66.2445 59.1605 66.0194 59.0878C62.1146 57.8643 62.5224 52.6664 62.6873 51.3691C63.8197 51.8811 68.627 54.8401 68.627 54.8401C67.864 56.0562 67.2507 57.3601 66.8004 58.7233C66.7583 58.8711 66.7278 59.022 66.7093 59.1746Z" fill="#263238"/>
<path d="M62.9823 43.1688C61.9106 45.5031 62.2404 52.7141 63.7546 54.5016C65.9544 57.1049 70.0328 57.8902 72.3714 55.1394C74.6362 52.4711 74.0418 43.0951 72.3063 41.4073C69.7421 38.9255 64.5703 39.7282 62.9823 43.1688Z" fill="#F7A9A0"/>
<path d="M69.2649 48.3062C69.2649 48.3062 69.2301 48.3322 69.2301 48.3539C69.2649 48.8355 69.2301 49.3995 68.7963 49.5774C68.7963 49.5774 68.7963 49.6078 68.7963 49.6034C69.3299 49.508 69.3733 48.7617 69.2649 48.3062Z" fill="#263238"/>
<path d="M68.8093 47.8203C68.0283 47.7899 68.0326 49.3605 68.7572 49.3865C69.4818 49.4126 69.4688 47.842 68.8093 47.8203Z" fill="#263238"/>
<path d="M72.0763 48.3843C72.0763 48.3843 72.1154 48.406 72.111 48.4277C72.111 48.9093 72.1631 49.469 72.6013 49.6295C72.6013 49.6295 72.6013 49.6599 72.6013 49.6555C72.0633 49.5818 71.9765 48.8398 72.0763 48.3843Z" fill="#263238"/>
<path d="M72.5102 47.8767C73.2869 47.816 73.3519 49.3823 72.6274 49.4343C71.9028 49.4864 71.8551 47.9201 72.5102 47.8767Z" fill="#263238"/>
<path d="M68.1932 47.1045C68.3981 47.0432 68.5994 46.9708 68.7963 46.8876C69.0208 46.8443 69.2241 46.7266 69.3734 46.5535C69.4103 46.4899 69.4252 46.4158 69.4158 46.3429C69.4064 46.2699 69.3732 46.2021 69.3213 46.15C69.2031 46.0635 69.0639 46.0102 68.9182 45.9957C68.7725 45.9812 68.6255 46.006 68.4926 46.0675C68.2033 46.1489 67.9554 46.3364 67.7984 46.5925C67.7668 46.6528 67.7531 46.7209 67.759 46.7887C67.7649 46.8565 67.7902 46.9212 67.8317 46.975C67.8733 47.0289 67.9294 47.0698 67.9935 47.0927C68.0576 47.1157 68.1269 47.1198 68.1932 47.1045Z" fill="#263238"/>
<path d="M73.1133 47.0825C72.902 47.0418 72.6933 46.9882 72.4885 46.922C72.2613 46.8991 72.0486 46.7997 71.8854 46.64C71.8414 46.5819 71.8176 46.5111 71.8176 46.4382C71.8176 46.3654 71.8414 46.2945 71.8854 46.2365C71.9956 46.1394 72.1298 46.0737 72.2741 46.0462C72.4183 46.0187 72.5673 46.0305 72.7054 46.0803C73.0002 46.1358 73.2635 46.2999 73.443 46.5402C73.4795 46.5957 73.4994 46.6605 73.5005 46.7269C73.5017 46.7933 73.484 46.8587 73.4495 46.9155C73.4149 46.9723 73.365 47.0181 73.3055 47.0477C73.246 47.0772 73.1794 47.0893 73.1133 47.0825Z" fill="#263238"/>
<path d="M68.8223 52.8142C68.9394 52.927 69.0566 53.0832 69.2562 53.1006C69.4366 53.0952 69.6139 53.0523 69.7768 52.9747C69.7768 52.9747 69.8072 52.9747 69.7985 53.0008C69.7292 53.0963 69.6353 53.1713 69.5269 53.2179C69.4184 53.2645 69.2994 53.2809 69.1824 53.2654C69.0825 53.24 68.9926 53.1849 68.9244 53.1075C68.8563 53.0301 68.8131 52.9339 68.8006 52.8316C68.7702 52.8099 68.8049 52.7968 68.8223 52.8142Z" fill="#263238"/>
<path d="M69.3299 51.3604C69.4537 51.5524 69.6159 51.7167 69.8063 51.8429C69.9967 51.9691 70.2112 52.0545 70.4363 52.0936C70.6322 52.1306 70.8323 52.1393 71.0307 52.1196C71.0682 52.1241 71.106 52.1241 71.1435 52.1196H71.252C71.2774 52.1142 71.3004 52.1007 71.3176 52.0811C71.3348 52.0616 71.3452 52.0371 71.3474 52.0112C71.3496 51.9953 71.3496 51.9793 71.3474 51.9634V51.9201C71.3474 51.5469 71.3171 50.9785 71.3171 50.9785C71.4559 51.048 72.1544 51.3604 72.1414 51.1651C72.0956 49.4798 71.8775 47.8035 71.4906 46.1625C71.4906 46.151 71.486 46.14 71.4779 46.1318C71.4698 46.1237 71.4587 46.1191 71.4472 46.1191C71.4357 46.1191 71.4247 46.1237 71.4165 46.1318C71.4084 46.14 71.4038 46.151 71.4038 46.1625C71.4385 47.7201 71.7423 49.2604 71.803 50.8223C71.5548 50.7083 71.292 50.6295 71.022 50.5881C70.97 50.5881 71.1131 51.6858 71.0958 51.855C70.7899 51.8852 70.4811 51.854 70.1876 51.7631C69.894 51.6722 69.6215 51.5234 69.3863 51.3256C69.3429 51.2909 69.3039 51.3213 69.3299 51.3604Z" fill="#263238"/>
<path d="M70.8094 51.9291C70.6055 52.198 70.3348 52.4089 70.0241 52.5408C69.854 52.6069 69.6677 52.619 69.4905 52.5755C69.1043 52.4757 69.0913 52.1417 69.1607 51.8119C69.2021 51.6515 69.2603 51.4959 69.3343 51.3477C69.7511 51.6943 70.2682 51.8981 70.8094 51.9291Z" fill="#263238"/>
<path d="M70.0241 52.5409C69.854 52.607 69.6677 52.6191 69.4905 52.5756C69.1043 52.4758 69.0913 52.1418 69.1607 51.812C69.3657 51.8186 69.5624 51.8942 69.7191 52.0265C69.8757 52.1587 69.9832 52.34 70.0241 52.5409Z" fill="#FF9BBC"/>
<path d="M73.3432 43.7896C73.0786 43.1734 72.7705 42.553 72.3974 42.4272C72.0243 42.3014 71.7856 43.2125 70.9396 43.2689C69.8028 43.347 69.2518 42.3014 67.6595 42.1885C65.3686 42.0324 64.362 43.924 64.31 47.1868C64.2622 50.0851 62.5094 50.3584 62.5094 50.3584C62.5094 50.3584 61.4464 43.9674 63.247 41.8501C65.0475 39.7328 69.1824 38.813 71.9592 40.8175C72.9701 41.5508 73.3432 43.7896 73.3432 43.7896Z" fill="#263238"/>
<path d="M63.9715 49.2217C63.9715 49.2217 62.6395 46.7617 61.5418 47.2086C60.4441 47.6555 61.2598 51.1134 62.4096 51.6905C62.5537 51.7771 62.7138 51.8336 62.8802 51.8566C63.0467 51.8796 63.2162 51.8687 63.3783 51.8245C63.5405 51.7804 63.692 51.7038 63.8238 51.5995C63.9556 51.4952 64.0649 51.3653 64.1451 51.2176L63.9715 49.2217Z" fill="#F7A9A0"/>
<path d="M61.8021 48.1846V48.2149C62.6135 48.6488 62.9692 49.5166 63.1905 50.3539C63.1509 50.263 63.0921 50.1818 63.018 50.1158C62.944 50.0499 62.8565 50.0008 62.7616 49.9719C62.6668 49.943 62.5668 49.9351 62.4685 49.9486C62.3703 49.9621 62.2761 49.9968 62.1926 50.0502C62.1666 50.0502 62.1926 50.1023 62.1926 50.098C62.3478 50.0682 62.5084 50.0868 62.6527 50.1512C62.797 50.2156 62.9181 50.3227 62.9996 50.4581C63.1311 50.688 63.2387 50.9308 63.3207 51.1827C63.3511 51.2607 63.4942 51.2391 63.4725 51.1479V51.1262C63.6201 50.0416 62.9519 48.4275 61.8021 48.1846Z" fill="#263238"/>
<path d="M73.07 41.8846C72.3975 41.7241 68.6705 41.8369 66.9957 42.5571C65.321 43.2774 62.3446 45.6854 62.1927 45.8112C62.0409 45.937 61.2729 39.7934 66.2581 38.674C71.6859 37.4504 73.07 41.8846 73.07 41.8846Z" fill="#1E3050"/>
<path d="M62.479 45.5595C62.479 45.5595 65.7721 41.2208 67.6031 40.2229C69.434 39.225 73.5342 38.6696 76.0723 39.789C78.0465 40.6568 73.2218 43.1993 73.2218 43.1993C73.1761 42.9911 73.0825 42.7964 72.9484 42.6307C72.8144 42.465 72.6435 42.3329 72.4495 42.2447C71.2173 41.7545 68.8743 42.1319 67.538 42.5788C65.8546 43.1472 62.479 45.5595 62.479 45.5595Z" fill="#1E3050"/>
<path opacity="0.2" d="M62.479 45.5815C62.479 45.5815 65.7721 41.2167 67.6031 40.2231C69.434 39.2296 73.5342 38.6699 76.0723 39.7893C78.0465 40.657 73.2218 43.1995 73.2218 43.1995C73.1761 42.9913 73.0825 42.7967 72.9484 42.631C72.8144 42.4653 72.6435 42.3331 72.4495 42.245C71.2173 41.7547 68.8743 42.1322 67.538 42.5791C65.8546 43.1475 62.479 45.5815 62.479 45.5815Z" fill="black"/>
<path d="M56.7259 65.5828C56.4482 74.1388 59.6068 90.1618 61.9324 91.2509C69.4384 94.7566 82.0685 94.9779 86.3943 95.0169C88.2599 95.0169 91.1235 81.749 89.2752 81.0027C88.0473 80.5081 69.5295 80.5038 69.2041 79.8443C68.8787 79.1848 64.4662 69.6569 62.5615 64.381C60.032 57.3652 56.8864 60.5585 56.7259 65.5828Z" fill="#F7A9A0"/>
<path d="M87.288 80.8252C87.288 80.8252 92.9587 81.1723 96.651 81.5715C98.7162 81.7927 102.218 82.4913 103.654 83.346C105.823 84.6476 113.997 91.364 112.409 93.3859C110.969 95.2125 104.669 88.5352 104.669 88.5352C104.669 88.5352 111.611 94.7092 109.485 96.5966C107.359 98.4839 101.241 89.9843 101.241 89.9843C101.241 89.9843 108.244 96.4924 105.732 98.0891C103.836 99.2909 97.8615 91.9107 97.8615 91.9107C97.8615 91.9107 103.845 97.5511 101.944 98.8527C99.8443 100.315 93.9046 93.8458 93.9046 93.8458C88.5115 96.397 84.9017 95.4034 82.4155 94.3925C81.8038 94.1669 87.288 80.8252 87.288 80.8252Z" fill="#F7A9A0"/>
<path d="M102.4 86.2439C103.242 86.9381 104.101 87.6366 104.877 88.4133C105.654 89.1899 106.409 89.9796 107.112 90.8169C108.052 91.894 108.867 93.0745 109.541 94.3357C108.183 92.1663 105.441 89.3895 104.66 88.6215C103.879 87.8536 103.146 87.0466 102.37 86.2786C102.348 86.2526 102.378 86.2265 102.4 86.2439Z" fill="#263238"/>
<path d="M99.5755 89.0036C100.612 89.9365 101.675 90.8302 102.673 91.8108C103.671 92.7914 104.522 93.8023 105.446 94.8479C105.515 94.926 105.446 94.939 105.372 94.8479C104.409 93.8457 103.441 92.9909 102.469 91.9974C101.498 91.0038 100.556 89.9712 99.5494 89.0166C99.5321 89.0123 99.5581 88.9906 99.5755 89.0036Z" fill="#263238"/>
<path d="M96.7074 90.9345C98.3347 92.3301 99.8134 93.8902 101.12 95.5899C101.185 95.6724 101.098 95.6811 101.024 95.5899C99.5883 94.015 98.4733 92.7698 96.6597 90.9865C96.6466 90.9648 96.7074 90.9084 96.7074 90.9345Z" fill="#263238"/>
<path d="M102.938 82.6606C101.59 82.0847 100.159 81.7259 98.6989 81.5976C95.549 81.2115 92.3817 80.9598 89.2144 80.7299C86.0471 80.4999 82.8321 80.296 79.6388 80.1788C77.8426 80.1094 76.0463 80.0559 74.2501 80.0183C72.4538 79.9836 72.0807 80.0487 70.2758 80.0704C70.228 80.0704 70.2324 80.1354 70.2758 80.1398C73.4214 80.3047 75.1569 80.4348 78.3025 80.5997C81.4481 80.7646 84.585 80.9511 87.7219 81.1681C90.8588 81.385 93.9437 81.6019 97.0415 81.949C98.5399 82.0507 100.026 82.2904 101.48 82.6649C102.905 83.1883 104.227 83.9578 105.385 84.9385C106.713 85.9841 111.689 90.7697 112.145 91.3902C112.201 91.4639 112.223 91.4422 112.192 91.3468C111.832 90.0495 105.849 84.0186 102.938 82.6606Z" fill="#263238"/>
<path d="M65.6853 71.1061L56.4568 76.3386C56.4568 76.3386 56.0663 64.6761 56.9211 61.2137C57.8843 57.3089 59.6632 58.6626 61.6677 61.9079C63.6722 65.1533 65.6853 71.1061 65.6853 71.1061Z" fill="#1E3050"/>
<path opacity="0.1" d="M65.6853 71.1061L56.4568 76.3386C56.4568 76.3386 56.0663 64.6761 56.9211 61.2137C57.8843 57.3089 59.6632 58.6626 61.6677 61.9079C63.6722 65.1533 65.6853 71.1061 65.6853 71.1061Z" fill="black"/>
<path d="M64.414 69.614C63.1515 70.1216 59.5677 72.1782 58.9732 72.5123C58.6609 72.6858 57.4373 73.4451 57.1249 73.6186C57.0859 73.6403 57.1249 73.6967 57.164 73.675C57.7671 73.3453 58.4005 73.0763 59.008 72.7509C59.6154 72.4255 63.3467 70.4644 64.4401 69.6574C64.4442 69.6533 64.4469 69.6479 64.4476 69.6421C64.4484 69.6363 64.4471 69.6304 64.4441 69.6254C64.4411 69.6204 64.4365 69.6166 64.4311 69.6145C64.4256 69.6124 64.4196 69.6122 64.414 69.614Z" fill="#263238"/>
<path d="M64.2319 66.7892C64.0887 66.2469 63.9412 65.7089 63.7763 65.1709C63.8674 65.57 63.9716 65.9692 64.0757 66.3684C63.7416 65.6134 63.3988 64.8672 63.0257 64.1426H63.004C63.4075 65.3184 63.8718 66.4725 64.3057 67.6396C64.7395 68.8067 65.1734 69.9218 65.6073 71.0629C65.412 71.2147 65.2211 71.3623 65.0215 71.4968C65.0135 71.5019 65.0078 71.5101 65.0058 71.5195C65.0038 71.5288 65.0055 71.5386 65.0107 71.5467C65.0159 71.5547 65.024 71.5604 65.0334 71.5624C65.0428 71.5645 65.0525 71.5627 65.0606 71.5575C65.2992 71.436 65.5379 71.3145 65.7852 71.2061C65.8138 71.1953 65.8372 71.1741 65.8509 71.1467C65.8646 71.1194 65.8674 71.0879 65.8589 71.0586C65.373 69.6398 64.835 68.1993 64.2319 66.7892Z" fill="#263238"/>
<g opacity="0.5">
<path d="M167.264 61.6257C167.264 62.0283 167.145 62.4219 166.921 62.7567C166.697 63.0914 166.379 63.3522 166.007 63.5061C165.635 63.66 165.226 63.7 164.831 63.6212C164.436 63.5423 164.073 63.3481 163.789 63.063C163.505 62.778 163.311 62.415 163.233 62.02C163.155 61.625 163.196 61.2157 163.351 60.844C163.505 60.4722 163.767 60.1547 164.102 59.9317C164.437 59.7086 164.831 59.59 165.234 59.5908C165.501 59.5908 165.765 59.6435 166.012 59.7458C166.258 59.8481 166.483 59.9981 166.671 60.1871C166.86 60.3761 167.009 60.6005 167.111 60.8473C167.213 61.0942 167.265 61.3587 167.264 61.6257Z" fill="#1E3050"/>
<path d="M165.234 65.0748C164.545 65.079 163.871 64.8786 163.297 64.4988C162.723 64.1191 162.275 63.5772 162.009 62.9421C161.744 62.307 161.673 61.6073 161.807 60.932C161.94 60.2566 162.271 59.6362 162.758 59.1494C163.244 58.6627 163.865 58.3317 164.54 58.1985C165.216 58.0652 165.915 58.1358 166.55 58.4012C167.185 58.6666 167.727 59.1148 168.107 59.6889C168.487 60.2631 168.687 60.9371 168.683 61.6254C168.677 62.5385 168.312 63.4125 167.666 64.0582C167.021 64.7038 166.147 65.0691 165.234 65.0748ZM165.234 58.61C164.638 58.61 164.056 58.7863 163.561 59.1167C163.065 59.4471 162.679 59.9168 162.45 60.4665C162.221 61.0163 162.16 61.6215 162.275 62.2058C162.389 62.7901 162.674 63.3275 163.094 63.75C163.513 64.1726 164.049 64.4615 164.632 64.5803C165.216 64.6991 165.821 64.6424 166.373 64.4175C166.924 64.1926 167.397 63.8095 167.73 63.3165C168.064 62.8234 168.245 62.2426 168.249 61.6471C168.252 61.2493 168.176 60.8549 168.026 60.4865C167.876 60.1182 167.654 59.7832 167.374 59.5009C167.093 59.2186 166.76 58.9945 166.393 58.8416C166.025 58.6887 165.632 58.61 165.234 58.61Z" fill="#1E3050"/>
<path d="M42.8376 42.1663C42.8384 42.5689 42.7198 42.9628 42.4967 43.298C42.2737 43.6332 41.9562 43.8947 41.5844 44.0494C41.2127 44.204 40.8034 44.2449 40.4084 44.1669C40.0134 44.0889 39.6504 43.8954 39.3654 43.611C39.0803 43.3266 38.8861 42.964 38.8072 42.5692C38.7284 42.1744 38.7684 41.765 38.9223 41.3929C39.0762 41.0208 39.337 40.7028 39.6717 40.479C40.0065 40.2552 40.4 40.1357 40.8027 40.1357C41.3416 40.1357 41.8585 40.3495 42.24 40.7302C42.6215 41.1109 42.8364 41.6273 42.8376 42.1663Z" fill="#1E3050"/>
<path d="M40.8026 45.6202C40.1152 45.6245 39.442 45.4245 38.8684 45.0458C38.2947 44.667 37.8465 44.1264 37.5804 43.4926C37.3144 42.8587 37.2425 42.1601 37.374 41.4854C37.5055 40.8107 37.8343 40.1902 38.3189 39.7026C38.8034 39.215 39.4219 38.8822 40.0958 38.7465C40.7697 38.6108 41.4687 38.6783 42.1042 38.9403C42.7397 39.2024 43.2831 39.6473 43.6654 40.2185C44.0478 40.7898 44.2519 41.4617 44.2519 42.1492C44.252 43.066 43.8893 43.9456 43.243 44.5959C42.5967 45.2462 41.7194 45.6144 40.8026 45.6202ZM40.8026 39.1511C40.2001 39.1468 39.6099 39.3218 39.1072 39.6539C38.6044 39.9859 38.2118 40.4601 37.9792 41.0159C37.7467 41.5717 37.6847 42.1842 37.8012 42.7753C37.9177 43.3665 38.2074 43.9097 38.6334 44.3357C39.0595 44.7618 39.6026 45.0515 40.1938 45.168C40.785 45.2845 41.3974 45.2225 41.9533 44.9899C42.5091 44.7574 42.9832 44.3647 43.3153 43.862C43.6473 43.3592 43.8224 42.769 43.8181 42.1665C43.8124 41.3685 43.4929 40.6048 42.9286 40.0406C42.3643 39.4763 41.6006 39.1568 40.8026 39.1511Z" fill="#1E3050"/>
<path d="M117.577 72.3684H91.2841V31.7229H56.587V42.3833H44.035V41.9494H56.1532V31.2891H91.7179V71.9345H117.143V60.6754H146.903V49.7114H165.451V58.3933H165.017V50.1453H147.336V61.1093H117.577V72.3684Z" fill="#1E3050"/>
</g>
<path d="M48.0267 21.0197C47.6666 17.4098 45.1762 13.813 40.8027 13.813C36.4292 13.813 33.9431 17.4272 33.583 21.0197C33.032 26.595 36.7894 31.6453 40.8027 36.253C44.816 31.6626 48.5778 26.6123 48.0267 21.0197ZM40.8027 25.0287C40.0199 25.0287 39.2547 24.7965 38.6039 24.3615C37.9531 23.9265 37.4459 23.3083 37.1466 22.585C36.8472 21.8617 36.7691 21.0659 36.9221 20.2982C37.0751 19.5305 37.4524 18.8254 38.0063 18.2722C38.5601 17.719 39.2655 17.3425 40.0334 17.1903C40.8013 17.0381 41.597 17.1171 42.32 17.4172C43.0429 17.7174 43.6606 18.2252 44.0949 18.8765C44.5292 19.5278 44.7605 20.2933 44.7597 21.0761C44.7619 21.5969 44.6612 22.1132 44.4634 22.595C44.2655 23.0768 43.9743 23.5148 43.6066 23.8837C43.2389 24.2527 42.8018 24.5453 42.3207 24.7447C41.8395 24.9442 41.3236 25.0466 40.8027 25.046V25.0287Z" fill="#1E3050"/>
</svg>
