<svg width="320" height="267" viewBox="0 0 320 267" fill="none" xmlns="http://www.w3.org/2000/svg">
<path d="M207.979 46.1398C207.135 42.4554 205.319 36.8013 201.976 34.8867C196.911 31.9736 191.761 38.22 185.631 39.0188C179.502 39.8177 189.203 23.6061 178.481 20.6861C167.758 17.7661 164.685 28.606 161.106 33.6058C157.526 38.6056 152.427 31.5397 147.825 32.7725C143.224 34.0052 145.782 40.6854 141.19 41.5187C136.597 42.3521 128.931 37.3522 125.351 40.2722C121.974 43.027 121.78 43.5641 116.909 46.1054L207.979 46.1398Z" fill="#1E3050"/>
<path d="M68.1696 144.312C67.6123 141.901 66.4304 138.196 64.2353 136.943C60.8583 135.035 57.5488 139.126 53.5301 139.697C49.5114 140.269 55.8687 129.594 48.8445 127.687C41.8202 125.779 39.8109 132.873 37.4723 136.144C35.1337 139.415 31.782 134.766 28.768 135.6C25.754 136.433 27.434 140.785 24.42 141.33C21.406 141.874 16.3911 138.575 14.0441 140.517C11.8237 142.328 11.7055 142.666 8.54797 144.332L68.1696 144.312Z" fill="#1E3050"/>
<path d="M313.503 122.666C311.814 115.242 308.125 103.824 301.388 99.9399C291.079 94.0585 280.779 106.661 268.462 108.342C256.144 110.022 275.672 77.2547 254.042 71.3734C232.412 65.492 226.223 87.337 219.013 97.4193C211.803 107.502 201.478 93.2528 192.191 95.7734C182.904 98.2939 188.071 111.744 178.801 113.424C169.531 115.105 154.065 105.015 146.855 110.876C140.008 116.461 139.645 117.508 129.919 122.639L313.503 122.666Z" fill="#1E3050"/>
<path opacity="0.4" d="M207.979 46.1398C207.135 42.4554 205.319 36.8013 201.976 34.8867C196.911 31.9736 191.761 38.22 185.631 39.0188C179.502 39.8177 189.203 23.6061 178.481 20.6861C167.758 17.7661 164.685 28.606 161.106 33.6058C157.526 38.6056 152.427 31.5397 147.825 32.7725C143.224 34.0052 145.782 40.6854 141.19 41.5187C136.597 42.3521 128.931 37.3522 125.351 40.2722C121.974 43.027 121.78 43.5641 116.909 46.1054L207.979 46.1398Z" fill="white"/>
<path opacity="0.4" d="M68.1696 144.312C67.6123 141.901 66.4304 138.196 64.2353 136.943C60.8583 135.035 57.5488 139.126 53.5301 139.697C49.5114 140.269 55.8687 129.594 48.8445 127.687C41.8202 125.779 39.8109 132.873 37.4723 136.144C35.1337 139.415 31.782 134.766 28.768 135.6C25.754 136.433 27.434 140.785 24.42 141.33C21.406 141.874 16.3911 138.575 14.0441 140.517C11.8237 142.328 11.7055 142.666 8.54797 144.332L68.1696 144.312Z" fill="white"/>
<path opacity="0.4" d="M313.503 122.666C311.814 115.242 308.125 103.824 301.388 99.9399C291.079 94.0585 280.779 106.661 268.462 108.342C256.144 110.022 275.672 77.2547 254.042 71.3734C232.412 65.492 226.223 87.337 219.013 97.4193C211.803 107.502 201.478 93.2528 192.191 95.7734C182.904 98.2939 188.071 111.744 178.801 113.424C169.531 115.105 154.065 105.015 146.855 110.876C140.008 116.461 139.645 117.508 129.919 122.639L313.503 122.666Z" fill="white"/>
<path d="M257.613 227.642C257.613 227.642 269.095 228.572 274.92 234.377C277.011 232.31 279.638 230.646 282.612 229.506C285.585 228.367 288.832 227.779 292.118 227.787C294.816 225.13 296.533 221.903 297.07 218.482C297.606 215.06 296.94 211.585 295.15 208.46C293.359 205.335 290.517 202.689 286.954 200.83C283.391 198.972 279.255 197.977 275.026 197.962C270.797 197.947 266.65 198.912 263.068 200.745C259.485 202.577 256.615 205.203 254.79 208.315C252.966 211.427 252.262 214.897 252.762 218.323C253.262 221.748 254.944 224.987 257.613 227.663V227.642Z" fill="#1E3050"/>
<path opacity="0.3" d="M257.613 227.642C257.613 227.642 269.095 228.572 274.92 234.377C277.011 232.31 279.638 230.646 282.612 229.506C285.585 228.367 288.832 227.779 292.118 227.787C294.816 225.13 296.533 221.903 297.07 218.482C297.606 215.06 296.94 211.585 295.15 208.46C293.359 205.335 290.517 202.689 286.954 200.83C283.391 198.972 279.255 197.977 275.026 197.962C270.797 197.947 266.65 198.912 263.068 200.745C259.485 202.577 256.615 205.203 254.79 208.315C252.966 211.427 252.262 214.897 252.762 218.323C253.262 221.748 254.944 224.987 257.613 227.663V227.642Z" fill="white"/>
<path d="M274.54 199.241L274.152 246.209H276.094L274.54 199.241Z" fill="#263238"/>
<path d="M275.123 232.607C275.123 232.607 278.998 226.919 285.98 225.176C285.98 225.176 278.61 226.602 274.929 231.498L275.123 232.607Z" fill="#263238"/>
<path d="M275.123 216.478C275.123 216.478 278.998 210.79 285.98 209.047C285.98 209.047 278.61 210.473 274.929 215.369L275.123 216.478Z" fill="#263238"/>
<path d="M275.123 224.543C275.123 224.543 278.998 218.854 285.98 217.112C285.98 217.112 278.61 218.537 274.929 223.434L275.123 224.543Z" fill="#263238"/>
<path d="M274.549 220.59C274.549 220.59 270.809 214.901 264.071 213.159C264.071 213.159 271.18 214.584 274.734 219.481L274.549 220.59Z" fill="#263238"/>
<path d="M274.549 228.496C274.549 228.496 270.809 222.807 264.071 221.065C264.071 221.065 271.18 222.491 274.734 227.387L274.549 228.496Z" fill="#263238"/>
<path d="M214.936 216.878C214.936 216.878 230.31 218.124 238.111 225.899C238.111 225.899 246.342 216.891 261.134 217.071C264.748 213.514 267.049 209.192 267.77 204.61C268.49 200.027 267.599 195.372 265.202 191.186C262.805 187 258.999 183.456 254.228 180.966C249.457 178.477 243.917 177.143 238.254 177.122C232.59 177.101 227.035 178.393 222.237 180.847C217.438 183.301 213.593 186.817 211.149 190.985C208.705 195.152 207.762 199.801 208.431 204.388C209.1 208.976 211.353 213.315 214.927 216.898L214.936 216.878Z" fill="#1E3050"/>
<path opacity="0.5" d="M214.936 216.878C214.936 216.878 230.31 218.124 238.111 225.899C238.111 225.899 246.342 216.891 261.134 217.071C264.748 213.514 267.049 209.192 267.77 204.61C268.49 200.027 267.599 195.372 265.202 191.186C262.805 187 258.999 183.456 254.228 180.966C249.457 178.477 243.917 177.143 238.254 177.122C232.59 177.101 227.035 178.393 222.237 180.847C217.438 183.301 213.593 186.817 211.149 190.985C208.705 195.152 207.762 199.801 208.431 204.388C209.1 208.976 211.353 213.315 214.927 216.898L214.936 216.878Z" fill="white"/>
<path d="M237.596 178.849L237.081 241.739H239.672L237.596 178.849Z" fill="#263238"/>
<path d="M238.381 223.531C238.381 223.531 243.573 215.907 252.919 213.579C252.919 213.579 243.05 215.48 238.119 222.043L238.381 223.531Z" fill="#263238"/>
<path d="M238.381 201.927C238.381 201.927 243.573 194.303 252.919 191.975C252.919 191.975 243.05 193.883 238.119 200.446L238.381 201.927Z" fill="#263238"/>
<path d="M238.381 212.732C238.381 212.732 243.573 205.108 252.919 202.773C252.919 202.773 243.05 204.681 238.119 211.244L238.381 212.732Z" fill="#263238"/>
<path d="M237.613 207.436C237.613 207.436 232.598 199.812 223.581 197.484C223.581 197.484 233.096 199.385 237.857 205.955L237.613 207.436Z" fill="#263238"/>
<path d="M237.613 218.021C237.613 218.021 232.598 210.398 223.581 208.07C223.581 208.07 233.096 209.977 237.857 216.541L237.613 218.021Z" fill="#263238"/>
<path d="M80.6732 216.547C80.6732 216.547 96.4186 217.814 104.397 225.775C104.397 225.775 112.839 216.554 127.969 216.747C131.673 213.106 134.033 208.683 134.773 203.99C135.514 199.298 134.605 194.531 132.152 190.244C129.699 185.957 125.803 182.326 120.919 179.776C116.034 177.225 110.361 175.86 104.562 175.838C98.762 175.816 93.0741 177.138 88.1605 179.652C83.247 182.165 79.3101 185.766 76.8085 190.034C74.3069 194.302 73.3436 199.063 74.0308 203.76C74.718 208.458 77.0275 212.9 80.6901 216.568L80.6732 216.547Z" fill="#1E3050"/>
<path opacity="0.3" d="M80.6732 216.547C80.6732 216.547 96.4186 217.814 104.397 225.775C104.397 225.775 112.839 216.554 127.969 216.747C131.673 213.106 134.033 208.683 134.773 203.99C135.514 199.298 134.605 194.531 132.152 190.244C129.699 185.957 125.803 182.326 120.919 179.776C116.034 177.225 110.361 175.86 104.562 175.838C98.762 175.816 93.0741 177.138 88.1605 179.652C83.247 182.165 79.3101 185.766 76.8085 190.034C74.3069 194.302 73.3436 199.063 74.0308 203.76C74.718 208.458 77.0275 212.9 80.6901 216.568L80.6732 216.547Z" fill="white"/>
<path d="M103.873 177.616L103.341 241.994H106.001L103.873 177.616Z" fill="#263238"/>
<path d="M104.675 223.352C104.675 223.352 109.986 215.556 119.585 213.166C119.585 213.166 109.454 215.115 104.439 221.837L104.675 223.352Z" fill="#263238"/>
<path d="M104.675 201.245C104.675 201.245 109.986 193.442 119.551 191.059C119.551 191.059 109.42 193.008 104.405 199.723L104.675 201.245Z" fill="#263238"/>
<path d="M104.675 212.298C104.675 212.298 109.986 204.495 119.551 202.112C119.551 202.112 109.42 204.061 104.405 210.783L104.675 212.298Z" fill="#263238"/>
<path d="M103.882 206.878C103.882 206.878 98.7573 199.075 89.5295 196.692C89.5295 196.692 99.2723 198.641 104.144 205.363L103.882 206.878Z" fill="#263238"/>
<path d="M103.882 217.718C103.882 217.718 98.7573 209.915 89.5295 207.525C89.5295 207.525 99.2723 209.481 104.144 216.196L103.882 217.718Z" fill="#263238"/>
<path d="M27.2908 229.178C27.2908 229.178 39.5072 230.162 45.704 236.34C45.704 236.34 52.247 229.184 63.9907 229.329C66.8632 226.504 68.6925 223.071 69.2656 219.43C69.8388 215.789 69.1322 212.091 67.2281 208.765C65.324 205.439 62.3008 202.623 58.5106 200.645C54.7204 198.666 50.3191 197.607 45.8194 197.59C41.3196 197.573 36.9066 198.599 33.0942 200.549C29.2818 202.499 26.227 205.292 24.2854 208.604C22.3439 211.915 21.5956 215.608 22.1277 219.253C22.6597 222.898 24.4503 226.344 27.2908 229.191V229.178Z" fill="#1E3050"/>
<path opacity="0.5" d="M27.2908 229.178C27.2908 229.178 39.5072 230.162 45.704 236.34C45.704 236.34 52.247 229.184 63.9907 229.329C66.8632 226.504 68.6925 223.071 69.2656 219.43C69.8388 215.789 69.1322 212.091 67.2281 208.765C65.324 205.439 62.3008 202.623 58.5106 200.645C54.7204 198.666 50.3191 197.607 45.8194 197.59C41.3196 197.573 36.9066 198.599 33.0942 200.549C29.2818 202.499 26.227 205.292 24.2854 208.604C22.3439 211.915 21.5956 215.608 22.1277 219.253C22.6597 222.898 24.4503 226.344 27.2908 229.191V229.178Z" fill="white"/>
<path d="M45.2988 198.965L44.8851 248.922H46.9451L45.2988 198.965Z" fill="#263238"/>
<path d="M45.9151 234.453C45.9151 234.453 50.0436 228.399 57.4646 226.547C57.4646 226.547 49.6299 228.062 45.7125 233.275L45.9151 234.453Z" fill="#263238"/>
<path d="M45.9151 217.298C45.9151 217.298 50.0436 211.244 57.4646 209.392C57.4646 209.392 49.6299 210.907 45.7125 216.12L45.9151 217.298Z" fill="#263238"/>
<path d="M45.9151 225.886C45.9151 225.886 50.0436 219.825 57.4646 217.979C57.4646 217.979 49.6299 219.495 45.7125 224.708L45.9151 225.886Z" fill="#263238"/>
<path d="M45.2903 221.671C45.2903 221.671 41.3054 215.617 34.1461 213.765C34.1461 213.765 41.7444 215.28 45.4845 220.493L45.2903 221.671Z" fill="#263238"/>
<path d="M45.2903 230.08C45.2903 230.08 41.3054 224.026 34.1461 222.174C34.1461 222.174 41.7444 223.689 45.4845 228.902L45.2903 230.08Z" fill="#263238"/>
<path d="M304.478 243.302L299.682 242.614C299.277 242.435 298.847 242.263 298.391 242.097L302.207 238.984L290.868 239.604L289.729 238.062L286.706 238.675L285.195 235.589L281.033 236.829L279.901 232.511L276.119 234.053L272.337 231.581L271.189 233.461L268.166 232.841L267.128 234.109L266.165 233.909L264.798 231.581L260.154 232.697L257.621 232.235L256.836 231.271H251.965L251.121 231.14L250.758 228.496L244.713 228.806L241.69 226.051L239.039 228.516L237.536 227.263L235.645 227.883L232.994 225.128C232.994 225.128 230.732 227.883 229.22 228.213C227.709 228.544 225.058 226.051 225.058 226.051L223.513 227.731L221.825 227.58L220.542 226.361L218.287 227.263L217.376 227.194L216.742 225.128L212.2 226.361L209.178 224.198L207.405 226.512L206.172 226.444L204.264 226.051L200.102 225.128L198.591 225.741L193.677 222.353V225.858H193.23L188.384 223.599L187.742 225.665H186.408L185.353 223.599L180.861 225.541H178.751L178.548 224.55L170.95 225.169L168.307 221.464L166.036 224.86L163.394 221.774L161.08 225.541H158.548L156.943 224.522L156.572 225.576L154.453 225.624L151.667 223.875L151.287 225.411L148.29 224.508L145.318 225.886H144.744L143.376 224.212L138.834 225.445L137.509 226.168L135.153 226.271L134.68 224.522L129.412 226.588L126.803 226.726C125.917 225.996 124.364 224.86 123.334 224.86C122.858 224.89 122.399 225.02 122.002 225.235C121.604 225.451 121.281 225.746 121.062 226.092L119.585 225.107L117.854 227.222L116.723 227.304L115.431 226.03L111.649 227.573L110.138 224.818L105.976 227.573L105.216 225.411L101.011 227.573L98.3604 225.107L95.6418 228.985L94.7976 229.061L92.2648 227.263L90.0697 229.501L88.5669 229.653L86.5914 227.587L85.8316 229.129L82.4545 227.587L80.5634 230.341L76.7811 229.109L72.5176 231.395L67.3592 231.994L65.1134 230.679L63.2223 231.602L60.5713 230.679L59.8199 232.531L57.169 231.912L55.1765 233.537L54.8135 233.585L53.7328 231.581L49.9843 233.461L47.7217 230.996L44.6908 234.081L39.7772 234.384L35.2435 234.694L31.8665 235.927L28.5823 237.449L26.1931 237.159L24.0318 238.282L23.8038 238.33L21.2711 237.738L19.3799 238.661L16.0029 238.358L15.4794 240.472C14.6352 240.72 13.8585 240.975 13.0649 241.243C12.3135 241.181 11.5452 241.133 11.0808 241.133C10.6165 241.133 10.0002 241.822 9.39233 242.628C3.87932 244.955 0.502281 247.868 4.85866 250.995C10.5827 255.127 25.1209 253.309 31.8243 252.944C60.5291 251.388 82.2012 246.477 93.3455 247.276C104.49 248.075 60.2421 266.993 108.095 267C155.947 267.007 254.151 262.482 268.504 261.38C282.856 260.278 254.261 255.981 258.373 250.83C262.484 245.678 295.866 250.045 301.481 248.819C305.204 248.006 304.013 245.975 302.815 244.687L304.478 243.302Z" fill="#1E3050"/>
<path opacity="0.4" d="M304.478 243.302L299.682 242.614C299.277 242.435 298.847 242.263 298.391 242.097L302.207 238.984L290.868 239.604L289.729 238.062L286.706 238.675L285.195 235.589L281.033 236.829L279.901 232.511L276.119 234.053L272.337 231.581L271.189 233.461L268.166 232.841L267.128 234.109L266.165 233.909L264.798 231.581L260.154 232.697L257.621 232.235L256.836 231.271H251.965L251.121 231.14L250.758 228.496L244.713 228.806L241.69 226.051L239.039 228.516L237.536 227.263L235.645 227.883L232.994 225.128C232.994 225.128 230.732 227.883 229.22 228.213C227.709 228.544 225.058 226.051 225.058 226.051L223.513 227.731L221.825 227.58L220.542 226.361L218.287 227.263L217.376 227.194L216.742 225.128L212.2 226.361L209.178 224.198L207.405 226.512L206.172 226.444L204.264 226.051L200.102 225.128L198.591 225.741L193.677 222.353V225.858H193.23L188.384 223.599L187.742 225.665H186.408L185.353 223.599L180.861 225.541H178.751L178.548 224.55L170.95 225.169L168.307 221.464L166.036 224.86L163.394 221.774L161.08 225.541H158.548L156.943 224.522L156.572 225.576L154.453 225.624L151.667 223.875L151.287 225.411L148.29 224.508L145.318 225.886H144.744L143.376 224.212L138.834 225.445L137.509 226.168L135.153 226.271L134.68 224.522L129.412 226.588L126.803 226.726C125.917 225.996 124.364 224.86 123.334 224.86C122.858 224.89 122.399 225.02 122.002 225.235C121.604 225.451 121.281 225.746 121.062 226.092L119.585 225.107L117.854 227.222L116.723 227.304L115.431 226.03L111.649 227.573L110.138 224.818L105.976 227.573L105.216 225.411L101.011 227.573L98.3604 225.107L95.6418 228.985L94.7976 229.061L92.2648 227.263L90.0697 229.501L88.5669 229.653L86.5914 227.587L85.8316 229.129L82.4545 227.587L80.5634 230.341L76.7811 229.109L72.5176 231.395L67.3592 231.994L65.1134 230.679L63.2223 231.602L60.5713 230.679L59.8199 232.531L57.169 231.912L55.1765 233.537L54.8135 233.585L53.7328 231.581L49.9843 233.461L47.7217 230.996L44.6908 234.081L39.7772 234.384L35.2435 234.694L31.8665 235.927L28.5823 237.449L26.1931 237.159L24.0318 238.282L23.8038 238.33L21.2711 237.738L19.3799 238.661L16.0029 238.358L15.4794 240.472C14.6352 240.72 13.8585 240.975 13.0649 241.243C12.3135 241.181 11.5452 241.133 11.0808 241.133C10.6165 241.133 10.0002 241.822 9.39233 242.628C3.87932 244.955 0.502281 247.868 4.85866 250.995C10.5827 255.127 25.1209 253.309 31.8243 252.944C60.5291 251.388 82.2012 246.477 93.3455 247.276C104.49 248.075 60.2421 266.993 108.095 267C155.947 267.007 254.151 262.482 268.504 261.38C282.856 260.278 254.261 255.981 258.373 250.83C262.484 245.678 295.866 250.045 301.481 248.819C305.204 248.006 304.013 245.975 302.815 244.687L304.478 243.302Z" fill="white"/>
<path d="M185.902 149.896C185.902 149.896 183.462 155.103 181.587 158.161C179.713 161.218 176.522 174.248 175.762 180.681C175.002 187.113 173.888 195.232 173.888 195.232C173.888 195.232 169.565 201.665 167.505 204.116C165.445 206.568 162.44 207.945 164.128 209.626C165.817 211.306 169.954 209.013 172.959 207.636C175.965 206.258 176.336 203.806 178.025 203.194C179.713 202.581 183.284 203.035 182.719 199.061C182.153 195.088 179.527 193.091 180.093 192.016C180.659 190.942 184.593 180.378 186.282 177.623C187.97 174.868 191.727 171.645 193.23 167.361C194.172 164.307 194.615 161.165 194.547 158.016C194.547 158.016 198.11 152.197 198.675 151.887C199.241 151.577 187.97 151.122 185.902 149.896Z" fill="white"/>
<mask id="mask0_604_4037" style="mask-type:luminance" maskUnits="userSpaceOnUse" x="163" y="149" width="36" height="62">
<path d="M185.902 149.896C185.902 149.896 183.462 155.103 181.587 158.161C179.713 161.218 176.522 174.248 175.762 180.681C175.002 187.113 173.888 195.232 173.888 195.232C173.888 195.232 169.565 201.665 167.505 204.116C165.445 206.568 162.44 207.945 164.128 209.626C165.817 211.306 169.954 209.013 172.959 207.636C175.965 206.258 176.336 203.806 178.025 203.194C179.713 202.581 183.284 203.035 182.719 199.061C182.153 195.088 179.527 193.091 180.093 192.016C180.659 190.942 184.593 180.378 186.282 177.623C187.97 174.868 191.727 171.645 193.23 167.361C194.172 164.307 194.615 161.165 194.547 158.016C194.547 158.016 198.11 152.197 198.675 151.887C199.241 151.577 187.97 151.122 185.902 149.896Z" fill="white"/>
</mask>
<g mask="url(#mask0_604_4037)">
<path d="M185.902 149.896C185.902 149.896 183.462 155.103 181.587 158.161C179.713 161.218 176.522 174.248 175.762 180.681C175.002 187.113 173.888 195.232 173.888 195.232C173.888 195.232 169.565 201.665 167.505 204.116C165.445 206.568 162.44 207.945 164.128 209.626C165.817 211.306 169.954 209.013 172.959 207.636C175.965 206.258 176.336 203.806 178.025 203.194C179.713 202.581 183.284 203.035 182.719 199.061C182.153 195.088 179.527 193.091 180.093 192.016C180.659 190.942 184.593 180.378 186.282 177.623C187.97 174.868 191.727 171.645 193.23 167.361C194.172 164.307 194.615 161.165 194.547 158.016C194.547 158.016 198.11 152.197 198.675 151.887C199.241 151.577 187.97 151.122 185.902 149.896Z" fill="#D9D9D9" stroke="#263238" stroke-linecap="round" stroke-linejoin="round"/>
<path opacity="0.25" d="M183.208 155.289C184.846 155.978 187.987 157.245 189.912 157.245H192.605C192.605 157.245 194.699 161.15 191.11 167.74C187.522 174.331 181.233 182.134 179.738 187.257C178.894 190.115 176.682 199.027 174.875 206.361C176.243 205.081 176.783 203.655 178.016 203.207C179.705 202.594 183.276 203.049 182.71 199.075C182.144 195.102 179.519 193.104 180.084 192.03C180.65 190.956 184.593 180.378 186.281 177.623C187.97 174.868 191.727 171.645 193.23 167.361C194.172 164.307 194.615 161.165 194.547 158.016C194.547 158.016 198.109 152.197 198.675 151.887C199.241 151.577 187.97 151.122 185.901 149.896C185.901 149.896 184.593 152.624 183.208 155.289Z" fill="black"/>
</g>
<path d="M185.902 149.896C185.902 149.896 183.462 155.103 181.587 158.161C179.713 161.218 176.522 174.248 175.762 180.681C175.002 187.113 173.888 195.232 173.888 195.232C173.888 195.232 169.565 201.665 167.505 204.116C165.445 206.568 162.44 207.945 164.128 209.626C165.817 211.306 169.954 209.013 172.959 207.636C175.965 206.258 176.336 203.806 178.025 203.194C179.713 202.581 183.284 203.035 182.719 199.061C182.153 195.088 179.527 193.091 180.093 192.016C180.659 190.942 184.593 180.378 186.282 177.623C187.97 174.868 191.727 171.645 193.23 167.361C194.172 164.307 194.615 161.165 194.547 158.016C194.547 158.016 198.11 152.197 198.675 151.887C199.241 151.577 187.97 151.122 185.902 149.896Z" stroke="#263238" stroke-linecap="round" stroke-linejoin="round"/>
<path d="M164.12 209.639C165.808 211.327 169.945 209.026 172.951 207.649C175.956 206.272 176.328 203.82 178.016 203.207C179.705 202.594 183.276 203.049 182.71 199.075C182.212 195.535 180.085 193.566 180.009 192.422C179.618 193.548 178.788 194.54 177.645 195.246C175.205 196.933 173.888 195.246 173.888 195.246C173.888 195.246 169.565 201.678 167.505 204.13C165.445 206.582 162.431 207.98 164.12 209.639Z" fill="#263238" stroke="#263238" stroke-linecap="round" stroke-linejoin="round"/>
<path d="M182.719 199.11C181.806 199.763 180.793 200.317 179.705 200.756C176.513 201.982 175.762 204.275 171.262 207.188C170.236 207.924 169.02 208.461 167.705 208.762C166.39 209.062 165.009 209.117 163.664 208.924C163.748 209.177 163.901 209.413 164.111 209.612C165.8 211.3 169.937 208.999 172.942 207.622C175.948 206.245 176.319 203.793 178.008 203.18C179.696 202.567 183.242 203.042 182.719 199.11Z" fill="white" stroke="#263238" stroke-linecap="round" stroke-linejoin="round"/>
<path d="M234.353 150.661L238.676 156.026C238.676 156.026 240.55 163.071 243.37 167.664C246.19 172.258 253.138 180.061 256.515 183.442C259.892 186.823 261.024 193.4 261.024 193.4C261.024 193.4 259.335 196.314 260.458 198.455C261.581 200.597 264.78 202.133 265.346 204.123C265.912 206.113 269.289 210.865 271.914 210.555C274.54 210.246 276.237 207.498 274.169 203.51C272.1 199.523 268.158 196.465 267.035 192.326C265.912 188.187 262.341 171.032 259.335 165.674C257.63 162.585 255.619 159.614 253.324 156.79L250.504 147.596C250.504 147.596 239.993 152.197 234.353 150.661Z" fill="white"/>
<mask id="mask1_604_4037" style="mask-type:luminance" maskUnits="userSpaceOnUse" x="234" y="147" width="42" height="64">
<path d="M234.353 150.661L238.676 156.026C238.676 156.026 240.55 163.071 243.37 167.664C246.19 172.258 253.138 180.061 256.515 183.442C259.892 186.823 261.024 193.4 261.024 193.4C261.024 193.4 259.335 196.314 260.458 198.455C261.581 200.597 264.78 202.133 265.346 204.123C265.912 206.113 269.289 210.865 271.914 210.555C274.54 210.246 276.237 207.498 274.169 203.51C272.1 199.523 268.158 196.465 267.035 192.326C265.912 188.187 262.341 171.032 259.335 165.674C257.63 162.585 255.619 159.614 253.324 156.79L250.504 147.596C250.504 147.596 239.993 152.197 234.353 150.661Z" fill="white"/>
</mask>
<g mask="url(#mask1_604_4037)">
<path d="M234.353 150.661L238.676 156.026C238.676 156.026 240.55 163.071 243.37 167.664C246.19 172.258 253.138 180.061 256.515 183.442C259.892 186.823 261.024 193.4 261.024 193.4C261.024 193.4 259.335 196.314 260.458 198.455C261.581 200.597 264.78 202.133 265.346 204.123C265.912 206.113 269.289 210.865 271.914 210.555C274.54 210.246 276.237 207.498 274.169 203.51C272.1 199.523 268.158 196.465 267.035 192.326C265.912 188.187 262.341 171.032 259.335 165.674C257.63 162.585 255.619 159.614 253.324 156.79L250.504 147.596C250.504 147.596 239.993 152.197 234.353 150.661Z" fill="#D9D9D9" stroke="#263238" stroke-linecap="round" stroke-linejoin="round"/>
<path opacity="0.25" d="M259.335 165.674C257.63 162.585 255.619 159.614 253.324 156.79L250.504 147.596C250.504 147.596 239.993 152.197 234.353 150.661L238.651 155.991C239.385 155.991 240.196 156.026 241.065 156.026C243.432 155.975 245.767 155.562 247.946 154.807C247.946 154.807 255.122 164.076 258.71 171.886C261.201 177.306 264.417 185.536 266.545 190.398C265.084 184.372 261.986 170.412 259.335 165.674Z" fill="black"/>
</g>
<path d="M234.353 150.661L238.676 156.026C238.676 156.026 240.55 163.071 243.37 167.664C246.19 172.258 253.138 180.061 256.515 183.442C259.892 186.823 261.024 193.4 261.024 193.4C261.024 193.4 259.335 196.314 260.458 198.455C261.581 200.597 264.78 202.133 265.346 204.123C265.912 206.113 269.289 210.865 271.914 210.555C274.54 210.246 276.237 207.498 274.169 203.51C272.1 199.523 268.158 196.465 267.035 192.326C265.912 188.187 262.341 171.032 259.335 165.674C257.63 162.585 255.619 159.614 253.324 156.79L250.504 147.596C250.504 147.596 239.993 152.197 234.353 150.661Z" stroke="#263238" stroke-linecap="round" stroke-linejoin="round"/>
<path d="M274.169 203.51C272.387 200.067 269.213 197.312 267.651 193.986C267.379 194.642 266.908 195.232 266.283 195.701C264.215 197.078 261.024 193.4 261.024 193.4C261.024 193.4 259.335 196.314 260.458 198.455C261.581 200.597 264.781 202.133 265.346 204.123C265.912 206.113 269.289 210.865 271.915 210.555C274.54 210.246 276.237 207.498 274.169 203.51Z" fill="#263238" stroke="#263238" stroke-linecap="round" stroke-linejoin="round"/>
<path d="M265.346 204.123C265.584 204.842 265.924 205.535 266.359 206.189C266.258 206.015 266.17 205.835 266.098 205.652C265.152 203.2 264.595 200.142 262.526 198.6C261.515 197.787 260.714 196.818 260.171 195.749C259.963 196.653 260.062 197.587 260.458 198.448C261.589 200.604 264.797 202.133 265.346 204.123Z" fill="white" stroke="#263238" stroke-linecap="round" stroke-linejoin="round"/>
<path d="M274.928 205.48C274.7 206.768 274.236 208.235 273.24 209.027C271.492 210.452 268.267 208.806 266.748 206.775C268.107 208.744 270.184 210.762 271.923 210.556C274.084 210.308 275.612 208.379 274.928 205.48Z" fill="white" stroke="#263238" stroke-linecap="round" stroke-linejoin="round"/>
<path d="M241.682 102.563C241.682 102.563 242.053 102.866 240.365 103.782C238.676 104.698 234.548 105.469 235.485 106.695C236.422 107.921 237.359 108.534 236.608 108.995C235.856 109.457 234.733 109.457 233.796 110.063C232.859 110.669 230.039 103.328 230.039 103.328C230.039 103.328 236.988 100.545 241.682 102.563Z" fill="white"/>
<mask id="mask2_604_4037" style="mask-type:luminance" maskUnits="userSpaceOnUse" x="230" y="101" width="12" height="10">
<path d="M241.682 102.563C241.682 102.563 242.053 102.866 240.365 103.782C238.676 104.698 234.548 105.469 235.485 106.695C236.422 107.921 237.359 108.534 236.608 108.995C235.856 109.457 234.733 109.457 233.796 110.063C232.859 110.669 230.039 103.328 230.039 103.328C230.039 103.328 236.988 100.545 241.682 102.563Z" fill="white"/>
</mask>
<g mask="url(#mask2_604_4037)">
<path d="M241.682 102.563C241.682 102.563 242.053 102.866 240.365 103.782C238.676 104.698 234.548 105.469 235.485 106.695C236.422 107.921 237.359 108.534 236.608 108.995C235.856 109.457 234.733 109.457 233.796 110.063C232.859 110.669 230.039 103.328 230.039 103.328C230.039 103.328 236.988 100.545 241.682 102.563Z" fill="#1E3050"/>
<path opacity="0.25" d="M241.682 102.563C241.682 102.563 242.053 102.866 240.365 103.782C238.676 104.698 234.548 105.469 235.485 106.695C236.422 107.921 237.359 108.534 236.608 108.995C235.856 109.457 234.733 109.457 233.796 110.063C232.859 110.669 230.039 103.328 230.039 103.328C230.039 103.328 236.988 100.545 241.682 102.563Z" fill="black"/>
</g>
<path d="M241.682 102.563C241.682 102.563 242.053 102.866 240.365 103.782C238.676 104.698 234.548 105.469 235.485 106.695C236.422 107.921 237.359 108.534 236.608 108.995C235.856 109.457 234.733 109.457 233.796 110.063C232.859 110.669 230.039 103.328 230.039 103.328C230.039 103.328 236.988 100.545 241.682 102.563Z" stroke="#263238" stroke-linecap="round" stroke-linejoin="round"/>
<path d="M198.675 107.618L196.987 115.579C196.987 115.579 190.038 127.838 187.599 134.119C185.159 140.399 181.587 151.425 181.587 151.425C181.587 151.425 184.213 153.112 192.107 154.18C200.001 155.247 209.921 151.122 209.921 151.122C209.921 151.122 212.926 137.948 213.863 136.26C214.801 134.573 217.426 130.131 217.426 130.131H219.875L226.257 150.358C226.257 150.358 232.074 151.584 235.46 152.038C238.845 152.493 243.902 152.803 248.419 150.199C251.347 148.385 253.777 146.091 255.553 143.464C255.553 143.464 248.419 129.69 245.219 124.009C242.019 118.327 234.708 108.686 234.708 108.686L232.454 102.405L198.675 107.618Z" fill="#263238" stroke="#263238" stroke-linecap="round" stroke-linejoin="round"/>
<path d="M199.055 118.644L206.94 124.773" stroke="white" stroke-linecap="round" stroke-linejoin="round"/>
<path d="M208.637 126.75L209.946 127.528" stroke="white" stroke-linecap="round" stroke-linejoin="round"/>
<path d="M199.241 121.096L207.143 125.848" stroke="white" stroke-linecap="round" stroke-linejoin="round"/>
<path d="M205.919 150.819C207.042 150.479 208.136 150.079 209.195 149.621" stroke="white" stroke-linecap="round" stroke-linejoin="round"/>
<path d="M183.656 150.199C189.287 152.11 195.473 152.663 201.478 151.79" stroke="white" stroke-linecap="round" stroke-linejoin="round"/>
<path d="M227.034 148.822C227.034 148.822 239.993 155.564 254.05 142.693" stroke="white" stroke-linecap="round" stroke-linejoin="round"/>
<path d="M236.988 114.202L233.231 120.022" stroke="white" stroke-linecap="round" stroke-linejoin="round"/>
<path d="M206.375 112.212C213.349 112.786 220.379 111.723 226.637 109.147" stroke="white" stroke-linecap="round" stroke-linejoin="round"/>
<path d="M233.695 105.807L232.479 102.405L198.709 107.618L198.405 109.037C203.929 110.353 209.742 110.652 215.425 109.911C221.681 109.092 227.807 107.715 233.695 105.807Z" fill="white"/>
<mask id="mask3_604_4037" style="mask-type:luminance" maskUnits="userSpaceOnUse" x="198" y="102" width="36" height="9">
<path d="M233.695 105.807L232.479 102.405L198.709 107.618L198.405 109.037C203.929 110.353 209.742 110.652 215.425 109.911C221.681 109.092 227.807 107.715 233.695 105.807Z" fill="white"/>
</mask>
<g mask="url(#mask3_604_4037)">
<path d="M233.695 105.807L232.479 102.405L198.709 107.618L198.405 109.037C203.929 110.353 209.742 110.652 215.425 109.911C221.681 109.092 227.807 107.715 233.695 105.807Z" fill="#949494" stroke="#263238" stroke-linecap="round" stroke-linejoin="round"/>
</g>
<path d="M233.695 105.807L232.479 102.405L198.709 107.618L198.405 109.037C203.929 110.353 209.742 110.652 215.425 109.911C221.681 109.092 227.807 107.715 233.695 105.807Z" stroke="#263238" stroke-linecap="round" stroke-linejoin="round"/>
<path d="M252.252 46.9522C250.402 41.4907 247.955 36.1757 244.94 31.0712C242.652 27.0975 240.381 22.1184 236.852 18.7645C234.598 16.6227 230.461 14.9354 229.524 15.2453C228.587 15.5552 224.459 16.9257 224.459 18.7645C224.459 20.6033 225.961 20.6033 225.961 20.6033C225.961 20.6033 225.582 22.9035 226.713 23.8194C227.844 24.7353 233.661 24.4323 233.661 24.4323C234.7 25.6785 235.564 27.016 236.236 28.4198C237.359 31.4775 238.355 32.0905 239.107 37.6068C239.85 41.996 240.915 46.3449 242.298 50.6298C241.574 50.9929 240.936 51.4595 240.415 52.0071C239.292 53.0815 232.158 58.894 232.158 58.894C230.095 59.6922 227.958 60.3576 225.767 60.8842C223.845 61.3719 221.985 62.0084 220.212 62.785C219.055 62.6748 217.89 62.5715 217.266 62.5715C215.949 62.5715 206.755 63.9489 206.755 63.9489C204.629 62.9179 202.362 62.095 200 61.4972C197.81 60.9705 195.673 60.3051 193.609 59.5069C193.609 59.5069 186.475 53.6875 185.353 52.6201C184.832 52.0724 184.194 51.6059 183.47 51.2427C184.853 46.9578 185.918 42.609 186.661 38.2197C187.269 33.7708 188.839 28.7159 192.115 25.0453C192.115 25.0453 197.932 25.3552 199.063 24.4323C200.195 23.5095 199.806 21.2162 199.806 21.2162C199.806 21.2162 201.309 21.2162 201.309 19.3774C201.309 17.5386 197.181 16.1613 196.244 15.8582C195.306 15.5552 191.178 17.2356 188.915 19.3774C186.653 21.5192 186.855 23.6679 184.601 26.7325C182.347 29.7972 174.47 44.6382 173.516 47.5651C172.562 50.492 171.456 52.1586 171.642 53.5429C171.828 54.9271 180.844 62.8814 183.098 65.0301C185.353 67.1788 193.989 74.527 193.989 74.527C193.989 74.527 197.181 87.3916 198.118 91.992C199.055 96.5924 198.498 109.299 198.498 109.299C198.498 109.299 208.823 107.46 218.591 106.544C228.359 105.628 239.056 102.563 240.373 102.563H241.69C241.69 102.563 234.362 95.2081 234.362 94.1338C234.362 93.2798 234.607 77.6743 234.7 71.4073C237.426 69.0658 241.285 65.7326 242.678 64.4034C244.932 62.2547 253.949 54.2936 254.134 52.9162C254.32 51.5388 253.189 49.8653 252.252 46.9522Z" fill="white"/>
<mask id="mask4_604_4037" style="mask-type:luminance" maskUnits="userSpaceOnUse" x="171" y="15" width="84" height="95">
<path d="M252.252 46.9522C250.402 41.4907 247.955 36.1757 244.94 31.0712C242.652 27.0975 240.381 22.1184 236.852 18.7645C234.598 16.6227 230.461 14.9354 229.524 15.2453C228.587 15.5552 224.459 16.9257 224.459 18.7645C224.459 20.6033 225.961 20.6033 225.961 20.6033C225.961 20.6033 225.582 22.9035 226.713 23.8194C227.844 24.7353 233.661 24.4323 233.661 24.4323C234.7 25.6785 235.564 27.016 236.236 28.4198C237.359 31.4775 238.355 32.0905 239.107 37.6068C239.85 41.996 240.915 46.3449 242.298 50.6298C241.574 50.9929 240.936 51.4595 240.415 52.0071C239.292 53.0815 232.158 58.894 232.158 58.894C230.095 59.6922 227.958 60.3576 225.767 60.8842C223.845 61.3719 221.985 62.0084 220.212 62.785C219.055 62.6748 217.89 62.5715 217.266 62.5715C215.949 62.5715 206.755 63.9489 206.755 63.9489C204.629 62.9179 202.362 62.095 200 61.4972C197.81 60.9705 195.673 60.3051 193.609 59.5069C193.609 59.5069 186.475 53.6875 185.353 52.6201C184.832 52.0724 184.194 51.6059 183.47 51.2427C184.853 46.9578 185.918 42.609 186.661 38.2197C187.269 33.7708 188.839 28.7159 192.115 25.0453C192.115 25.0453 197.932 25.3552 199.063 24.4323C200.195 23.5095 199.806 21.2162 199.806 21.2162C199.806 21.2162 201.309 21.2162 201.309 19.3774C201.309 17.5386 197.181 16.1613 196.244 15.8582C195.306 15.5552 191.178 17.2356 188.915 19.3774C186.653 21.5192 186.855 23.6679 184.601 26.7325C182.347 29.7972 174.47 44.6382 173.516 47.5651C172.562 50.492 171.456 52.1586 171.642 53.5429C171.828 54.9271 180.844 62.8814 183.098 65.0301C185.353 67.1788 193.989 74.527 193.989 74.527C193.989 74.527 197.181 87.3916 198.118 91.992C199.055 96.5924 198.498 109.299 198.498 109.299C198.498 109.299 208.823 107.46 218.591 106.544C228.359 105.628 239.056 102.563 240.373 102.563H241.69C241.69 102.563 234.362 95.2081 234.362 94.1338C234.362 93.2798 234.607 77.6743 234.7 71.4073C237.426 69.0658 241.285 65.7326 242.678 64.4034C244.932 62.2547 253.949 54.2936 254.134 52.9162C254.32 51.5388 253.189 49.8653 252.252 46.9522Z" fill="white"/>
</mask>
<g mask="url(#mask4_604_4037)">
<path d="M252.252 46.9522C250.402 41.4907 247.955 36.1757 244.94 31.0712C242.652 27.0975 240.381 22.1184 236.852 18.7645C234.598 16.6227 230.461 14.9354 229.524 15.2453C228.587 15.5552 224.459 16.9257 224.459 18.7645C224.459 20.6033 225.961 20.6033 225.961 20.6033C225.961 20.6033 225.582 22.9035 226.713 23.8194C227.844 24.7353 233.661 24.4323 233.661 24.4323C234.7 25.6785 235.564 27.016 236.236 28.4198C237.359 31.4775 238.355 32.0905 239.107 37.6068C239.85 41.996 240.915 46.3449 242.298 50.6298C241.574 50.9929 240.936 51.4595 240.415 52.0071C239.292 53.0815 232.158 58.894 232.158 58.894C230.095 59.6922 227.958 60.3576 225.767 60.8842C223.845 61.3719 221.985 62.0084 220.212 62.785C219.055 62.6748 217.89 62.5715 217.266 62.5715C215.949 62.5715 206.755 63.9489 206.755 63.9489C204.629 62.9179 202.362 62.095 200 61.4972C197.81 60.9705 195.673 60.3051 193.609 59.5069C193.609 59.5069 186.475 53.6875 185.353 52.6201C184.832 52.0724 184.194 51.6059 183.47 51.2427C184.853 46.9578 185.918 42.609 186.661 38.2197C187.269 33.7708 188.839 28.7159 192.115 25.0453C192.115 25.0453 197.932 25.3552 199.063 24.4323C200.195 23.5095 199.806 21.2162 199.806 21.2162C199.806 21.2162 201.309 21.2162 201.309 19.3774C201.309 17.5386 197.181 16.1613 196.244 15.8582C195.306 15.5552 191.178 17.2356 188.915 19.3774C186.653 21.5192 186.855 23.6679 184.601 26.7325C182.347 29.7972 174.47 44.6382 173.516 47.5651C172.562 50.492 171.456 52.1586 171.642 53.5429C171.828 54.9271 180.844 62.8814 183.098 65.0301C185.353 67.1788 193.989 74.527 193.989 74.527C193.989 74.527 197.181 87.3916 198.118 91.992C199.055 96.5924 198.498 109.299 198.498 109.299C198.498 109.299 208.823 107.46 218.591 106.544C228.359 105.628 239.056 102.563 240.373 102.563H241.69C241.69 102.563 234.362 95.2081 234.362 94.1338C234.362 93.2798 234.607 77.6743 234.7 71.4073C237.426 69.0658 241.285 65.7326 242.678 64.4034C244.932 62.2547 253.949 54.2936 254.134 52.9162C254.32 51.5388 253.189 49.8653 252.252 46.9522Z" fill="#D9D9D9" stroke="#263238" stroke-linecap="round" stroke-linejoin="round"/>
<path opacity="0.25" d="M199.241 95.0359C198.675 92.8872 197.923 80.4772 196.986 76.4966C196.049 72.516 193.795 70.9871 192.478 69.2999C191.161 67.6126 187.412 65.1678 182.71 61.0357C178.007 56.9036 173.702 53.3844 174.462 50.3198C174.976 48.1918 180.042 36.2087 183.081 29.1084C179.932 34.3768 174.301 45.134 173.516 47.5651C172.579 50.4782 171.456 52.1586 171.642 53.5428C171.827 54.9271 180.844 62.8813 183.098 65.03C185.352 67.1787 193.989 74.527 193.989 74.527C193.989 74.527 197.181 87.3915 198.118 91.9919C198.495 94.4543 198.673 96.9344 198.65 99.4159C199.122 97.4532 199.426 95.7246 199.241 95.0359Z" fill="black"/>
<path opacity="0.25" d="M251.289 52.1588C251.289 54.459 237.578 62.7301 234.404 67.0206C231.229 71.3111 232.15 81.8823 232.15 86.1659C232.211 87.9051 232.149 89.6458 231.964 91.3792L234.412 93.8034C234.412 91.3517 234.649 77.275 234.742 71.4212C237.469 69.0797 241.327 65.7465 242.72 64.4173C244.974 62.2687 253.991 54.3075 254.176 52.9301C254.362 51.5528 253.239 49.8655 252.302 46.9524C250.453 41.4909 248.006 36.1758 244.991 31.0714C242.703 27.0977 240.432 22.1185 236.903 18.7646C236.903 18.7646 242.855 30.5618 246.426 38.3714C249.997 46.1811 251.289 49.8655 251.289 52.1588Z" fill="black"/>
</g>
<path d="M252.252 46.9522C250.402 41.4907 247.955 36.1757 244.94 31.0712C242.652 27.0975 240.381 22.1184 236.852 18.7645C234.598 16.6227 230.461 14.9354 229.524 15.2453C228.587 15.5552 224.459 16.9257 224.459 18.7645C224.459 20.6033 225.961 20.6033 225.961 20.6033C225.961 20.6033 225.582 22.9035 226.713 23.8194C227.844 24.7353 233.661 24.4323 233.661 24.4323C234.7 25.6785 235.564 27.016 236.236 28.4198C237.359 31.4775 238.355 32.0905 239.107 37.6068C239.85 41.996 240.915 46.3449 242.298 50.6298C241.574 50.9929 240.936 51.4595 240.415 52.0071C239.292 53.0815 232.158 58.894 232.158 58.894C230.095 59.6922 227.958 60.3576 225.767 60.8842C223.845 61.3719 221.985 62.0084 220.212 62.785C219.055 62.6748 217.89 62.5715 217.266 62.5715C215.949 62.5715 206.755 63.9489 206.755 63.9489C204.629 62.9179 202.362 62.095 200 61.4972C197.81 60.9705 195.673 60.3051 193.609 59.5069C193.609 59.5069 186.475 53.6875 185.353 52.6201C184.832 52.0724 184.194 51.6059 183.47 51.2427C184.853 46.9578 185.918 42.609 186.661 38.2197C187.269 33.7708 188.839 28.7159 192.115 25.0453C192.115 25.0453 197.932 25.3552 199.063 24.4323C200.195 23.5095 199.806 21.2162 199.806 21.2162C199.806 21.2162 201.309 21.2162 201.309 19.3774C201.309 17.5386 197.181 16.1613 196.244 15.8582C195.306 15.5552 191.178 17.2356 188.915 19.3774C186.653 21.5192 186.855 23.6679 184.601 26.7325C182.347 29.7972 174.47 44.6382 173.516 47.5651C172.562 50.492 171.456 52.1586 171.642 53.5429C171.828 54.9271 180.844 62.8814 183.098 65.0301C185.353 67.1788 193.989 74.527 193.989 74.527C193.989 74.527 197.181 87.3916 198.118 91.992C199.055 96.5924 198.498 109.299 198.498 109.299C198.498 109.299 208.823 107.46 218.591 106.544C228.359 105.628 239.056 102.563 240.373 102.563H241.69C241.69 102.563 234.362 95.2081 234.362 94.1338C234.362 93.2798 234.607 77.6743 234.7 71.4073C237.426 69.0658 241.285 65.7326 242.678 64.4034C244.932 62.2547 253.949 54.2936 254.134 52.9162C254.32 51.5388 253.189 49.8653 252.252 46.9522Z" stroke="#263238" stroke-linecap="round" stroke-linejoin="round"/>
<path d="M199.789 21.2164C199.789 21.2164 195.095 18.0003 194.724 19.3776C194.352 20.755 197.544 22.5938 197.544 22.5938" stroke="#263238" stroke-linecap="round" stroke-linejoin="round"/>
<path d="M193.415 20.9131C193.466 21.3152 193.418 21.7214 193.275 22.1085C193.132 22.4956 192.898 22.8559 192.584 23.1687C192.27 23.4816 191.884 23.7409 191.447 23.9317C191.01 24.1225 190.531 24.2411 190.038 24.2807" stroke="#263238" stroke-linecap="round" stroke-linejoin="round"/>
<path d="M196.05 21.6774L192.293 20.1417L192.478 19.0742L193.601 18.6128" stroke="#263238" stroke-linecap="round" stroke-linejoin="round"/>
<path d="M196.412 16.8433C196.6 17.692 196.716 18.5503 196.759 19.412" stroke="#263238" stroke-linecap="round" stroke-linejoin="round"/>
<path d="M198.506 17.27C198.714 18.31 198.714 19.3705 198.506 20.4104" stroke="#263238" stroke-linecap="round" stroke-linejoin="round"/>
<path d="M200.431 17.9863C200.515 18.4642 200.446 18.9516 200.232 19.4016C200.017 19.8515 199.664 20.2488 199.207 20.5551" stroke="#263238" stroke-linecap="round" stroke-linejoin="round"/>
<path d="M225.961 20.6033C225.961 20.6033 232.479 19.226 231.542 20.7548C230.605 22.2837 227.599 22.752 227.599 22.752" stroke="#263238" stroke-linecap="round" stroke-linejoin="round"/>
<path d="M235.485 22.9036C234.665 22.3738 233.783 21.9123 232.851 21.5263C231.913 21.2164 231.728 20.1489 231.728 20.1489C231.728 20.1489 233.796 19.8459 233.796 19.0815C233.796 18.317 232.293 17.7041 232.293 17.7041L232.099 18.4754" stroke="#263238" stroke-linecap="round" stroke-linejoin="round"/>
<path d="M229.651 16.5264C229.651 16.5264 228.908 19.5635 231.728 20.1144" stroke="#263238" stroke-linecap="round" stroke-linejoin="round"/>
<path d="M227.549 16.6987C227.549 16.6987 227.025 18.9852 228.773 20.1421" stroke="#263238" stroke-linecap="round" stroke-linejoin="round"/>
<path d="M225.962 17.5591C225.962 17.5591 225.43 19.5563 226.654 20.2656" stroke="#263238" stroke-linecap="round" stroke-linejoin="round"/>
<path d="M218.583 106.544C228.351 105.621 239.048 102.563 240.365 102.563H241.682C241.682 102.563 234.353 95.2081 234.353 94.1338C234.353 93.2798 234.598 77.6743 234.691 71.4073L238.912 67.7504C236.844 67.2476 234.607 66.373 233.779 64.8648C232.749 62.9985 233.248 59.7685 233.779 57.5234L232.091 58.9008C230.027 59.699 227.89 60.3645 225.7 60.8911C223.778 61.3787 221.918 62.0152 220.145 62.7918C218.988 62.6817 217.823 62.5784 217.198 62.5784C215.881 62.5784 206.687 63.9557 206.687 63.9557C204.562 62.9247 202.295 62.1018 199.933 61.504C197.742 60.9774 195.606 60.3119 193.542 59.5137L193.272 59.2934C193.668 61.8051 193.758 64.3426 193.542 66.8689C193.187 69.1346 190.959 70.1952 189.414 70.6635C191.82 72.7295 193.922 74.527 193.922 74.527C193.922 74.527 197.113 87.3916 198.05 91.992C198.987 96.5923 198.43 109.299 198.43 109.299C198.43 109.299 208.815 107.432 218.583 106.544Z" fill="#1E3050" stroke="#263238" stroke-linecap="round" stroke-linejoin="round"/>
<path d="M214.497 78.0668C213.726 77.3909 213.021 76.668 212.386 75.9043" stroke="#263238" stroke-linecap="round" stroke-linejoin="round"/>
<path d="M234.354 94.1337C230.726 90.6259 226.774 87.3497 222.534 84.3337C220.364 82.8255 218.617 81.517 217.232 80.4014" stroke="#263238" stroke-linecap="round" stroke-linejoin="round"/>
<path d="M202.938 56.9725C202.938 56.9725 201.917 55.299 199.696 51.9589C197.476 48.6188 199.35 42.7788 207.717 40.5475C216.084 38.3161 221.369 42.4964 222.559 45.2787C223.749 48.061 222.728 51.1256 222.044 52.7991C221.64 53.7865 221.412 54.8164 221.369 55.8569C220.929 55.4256 220.41 55.0517 219.832 54.7481C218.633 54.0594 216.59 46.6699 213.855 46.1189C211.119 45.568 205.328 46.8283 204.855 50.2717C204.382 53.7151 204.306 59.0592 202.938 56.9725Z" fill="#263238" stroke="#263238" stroke-linecap="round" stroke-linejoin="round"/>
<path d="M220.685 55.2993C220.685 55.2993 221.707 52.9371 223.074 54.0528C224.442 55.1684 223.75 57.4962 222.897 58.5016C222.044 59.5071 221.369 58.9217 220.854 57.813C220.55 56.9985 220.492 56.136 220.685 55.2993Z" fill="white"/>
<mask id="mask5_604_4037" style="mask-type:luminance" maskUnits="userSpaceOnUse" x="220" y="53" width="4" height="7">
<path d="M220.685 55.2993C220.685 55.2993 221.707 52.9371 223.074 54.0528C224.442 55.1684 223.75 57.4962 222.897 58.5016C222.044 59.5071 221.369 58.9217 220.854 57.813C220.55 56.9985 220.492 56.136 220.685 55.2993Z" fill="white"/>
</mask>
<g mask="url(#mask5_604_4037)">
<path d="M220.685 55.2993C220.685 55.2993 221.707 52.9371 223.074 54.0528C224.442 55.1684 223.75 57.4962 222.897 58.5016C222.044 59.5071 221.369 58.9217 220.854 57.813C220.55 56.9985 220.492 56.136 220.685 55.2993Z" fill="#D9D9D9" stroke="#263238" stroke-linecap="round" stroke-linejoin="round"/>
</g>
<path d="M220.685 55.2993C220.685 55.2993 221.707 52.9371 223.074 54.0528C224.442 55.1684 223.75 57.4962 222.897 58.5016C222.044 59.5071 221.369 58.9217 220.854 57.813C220.55 56.9985 220.492 56.136 220.685 55.2993Z" stroke="#263238" stroke-linecap="round" stroke-linejoin="round"/>
<path d="M203.715 56.6768C203.715 56.6768 201.951 54.6108 201.005 55.9881C200.06 57.3655 201.495 59.4935 202.643 60.2373C203.791 60.9811 204.255 60.3062 204.382 59.1216C204.403 58.2749 204.174 57.4364 203.715 56.6768Z" fill="white"/>
<mask id="mask6_604_4037" style="mask-type:luminance" maskUnits="userSpaceOnUse" x="200" y="55" width="5" height="6">
<path d="M203.715 56.6768C203.715 56.6768 201.951 54.6108 201.005 55.9881C200.06 57.3655 201.495 59.4935 202.643 60.2373C203.791 60.9811 204.255 60.3062 204.382 59.1216C204.403 58.2749 204.174 57.4364 203.715 56.6768Z" fill="white"/>
</mask>
<g mask="url(#mask6_604_4037)">
<path d="M203.715 56.6768C203.715 56.6768 201.951 54.6108 201.005 55.9881C200.06 57.3655 201.495 59.4935 202.643 60.2373C203.791 60.9811 204.255 60.3062 204.382 59.1216C204.403 58.2749 204.174 57.4364 203.715 56.6768Z" fill="#D9D9D9" stroke="#263238" stroke-linecap="round" stroke-linejoin="round"/>
</g>
<path d="M203.715 56.6768C203.715 56.6768 201.951 54.6108 201.005 55.9881C200.06 57.3655 201.495 59.4935 202.643 60.2373C203.791 60.9811 204.255 60.3062 204.382 59.1216C204.403 58.2749 204.174 57.4364 203.715 56.6768Z" stroke="#263238" stroke-linecap="round" stroke-linejoin="round"/>
<path d="M206.012 63.2329C205.935 65.2366 206.104 67.2415 206.518 69.2175C206.884 71.0067 207.397 72.7738 208.055 74.5066L214.201 69.7753L221.875 73.1154C221.875 73.1154 223.074 66.7176 220.685 63.9284C218.296 61.1393 210.444 60.8707 208.401 61.8624C207.514 62.2036 206.706 62.6672 206.012 63.2329Z" fill="white" stroke="#263238" stroke-linecap="round" stroke-linejoin="round"/>
<path d="M208.232 64.6305C208.232 64.6305 212.673 74.093 215.062 73.3974C217.451 72.7019 218.135 64.3481 218.135 64.3481C218.135 64.3481 210.765 65.6015 208.232 64.6305Z" fill="white"/>
<mask id="mask7_604_4037" style="mask-type:luminance" maskUnits="userSpaceOnUse" x="208" y="64" width="11" height="10">
<path d="M208.232 64.6305C208.232 64.6305 212.673 74.093 215.062 73.3974C217.451 72.7019 218.135 64.3481 218.135 64.3481C218.135 64.3481 210.765 65.6015 208.232 64.6305Z" fill="white"/>
</mask>
<g mask="url(#mask7_604_4037)">
<path d="M208.232 64.6305C208.232 64.6305 212.673 74.093 215.062 73.3974C217.451 72.7019 218.135 64.3481 218.135 64.3481C218.135 64.3481 210.765 65.6015 208.232 64.6305Z" fill="#D9D9D9" stroke="#263238" stroke-linecap="round" stroke-linejoin="round"/>
<path opacity="0.25" d="M208.232 64.6305C208.232 64.6305 212.673 74.093 215.062 73.3974C217.451 72.7019 218.135 64.3481 218.135 64.3481C218.135 64.3481 210.765 65.6015 208.232 64.6305Z" fill="black"/>
</g>
<path d="M208.232 64.6305C208.232 64.6305 212.673 74.093 215.062 73.3974C217.451 72.7019 218.135 64.3481 218.135 64.3481C218.135 64.3481 210.765 65.6015 208.232 64.6305Z" stroke="#263238" stroke-linecap="round" stroke-linejoin="round"/>
<path d="M202.424 52.9372C202.424 52.9372 203.268 59.0596 204.306 61.8419C205.345 64.6242 209.287 67.1516 214.573 66.456C219.858 65.7605 221.74 59.4797 221.74 59.0596C221.74 58.6395 221.403 51.126 219.351 48.3437C217.299 45.5614 213.382 42.9169 207.92 45.0036C202.457 47.0903 201.917 51.4084 202.424 52.9372Z" fill="white"/>
<mask id="mask8_604_4037" style="mask-type:luminance" maskUnits="userSpaceOnUse" x="202" y="44" width="20" height="23">
<path d="M202.424 52.9372C202.424 52.9372 203.268 59.0596 204.306 61.8419C205.345 64.6242 209.287 67.1516 214.573 66.456C219.858 65.7605 221.74 59.4797 221.74 59.0596C221.74 58.6395 221.403 51.126 219.351 48.3437C217.299 45.5614 213.382 42.9169 207.92 45.0036C202.457 47.0903 201.917 51.4084 202.424 52.9372Z" fill="white"/>
</mask>
<g mask="url(#mask8_604_4037)">
<path d="M202.424 52.9372C202.424 52.9372 203.268 59.0596 204.306 61.8419C205.345 64.6242 209.287 67.1516 214.573 66.456C219.858 65.7605 221.74 59.4797 221.74 59.0596C221.74 58.6395 221.403 51.126 219.351 48.3437C217.299 45.5614 213.382 42.9169 207.92 45.0036C202.457 47.0903 201.917 51.4084 202.424 52.9372Z" fill="#D9D9D9" stroke="#263238" stroke-linecap="round" stroke-linejoin="round"/>
<path opacity="0.25" d="M221.74 59.0595C221.74 58.6394 221.403 51.1259 219.351 48.3436C218.943 47.7867 218.474 47.2612 217.95 46.7734C218.448 48.5089 221.031 57.8543 218.988 61.0429C216.734 64.569 211.854 64.8789 207.346 63.0401C203.969 61.6627 203.04 53.6671 202.761 49.6108C202.297 50.6774 202.192 51.8262 202.457 52.9371C202.457 52.9371 203.302 59.0595 204.34 61.8418C205.379 64.6241 209.321 67.1515 214.606 66.456C219.891 65.7604 221.74 59.4796 221.74 59.0595Z" fill="black"/>
</g>
<path d="M202.424 52.9372C202.424 52.9372 203.268 59.0596 204.306 61.8419C205.345 64.6242 209.287 67.1516 214.573 66.456C219.858 65.7605 221.74 59.4797 221.74 59.0596C221.74 58.6395 221.403 51.126 219.351 48.3437C217.299 45.5614 213.382 42.9169 207.92 45.0036C202.457 47.0903 201.917 51.4084 202.424 52.9372Z" stroke="#263238" stroke-linecap="round" stroke-linejoin="round"/>
<path d="M207.278 56.5179C208.774 56.8752 210.359 56.9061 211.875 56.6076C213.39 56.3091 214.783 55.6917 215.915 54.8169C216.675 55.0235 216.388 58.763 212.192 59.3071C211.09 59.4458 209.966 59.2335 209.051 58.7143C208.136 58.195 207.501 57.4086 207.278 56.5179Z" fill="white" stroke="#263238" stroke-linecap="round" stroke-linejoin="round"/>
<path d="M209.701 53.2055C209.701 53.2055 208.654 54.397 209.178 54.8171C209.701 55.2372 211.778 55.3267 212.825 54.397C213.872 53.4673 212.2 52.6133 212.2 52.6133" stroke="#263238" stroke-linecap="round" stroke-linejoin="round"/>
<path d="M205.699 53.7699C205.699 53.7699 206.214 52.3926 208.941 52.3926" stroke="#263238" stroke-linecap="round" stroke-linejoin="round"/>
<path d="M213.686 51.8211C214.185 51.3722 214.867 51.0868 215.605 51.0184C216.343 50.95 217.086 51.1031 217.696 51.4493" stroke="#263238" stroke-linecap="round" stroke-linejoin="round"/>
<path d="M208.57 49.5829C208.57 49.5829 204.669 48.9493 204.188 51.8349" stroke="#263238" stroke-width="2" stroke-linecap="round" stroke-linejoin="round"/>
<path d="M212.707 49.2247C212.707 49.2247 215.459 47.4066 218.017 49.3556" stroke="#263238" stroke-width="2" stroke-linecap="round" stroke-linejoin="round"/>
<path d="M115.794 52.1585C115.794 52.1585 115.794 48.9148 111.514 46.5457C107.233 44.1766 96.9757 45.5471 93.1512 49.5415C89.3267 53.5358 89.0143 56.4283 84.582 57.5302C80.1496 58.6321 70.0438 59.913 63.0196 65.8908C55.9954 71.8685 59.0432 84.1133 62.2598 85.1119C65.4764 86.1105 61.4915 84.2372 61.9474 80.9798C62.0309 80.0813 62.4184 79.2193 63.0668 78.4898C63.7152 77.7602 64.599 77.1918 65.6199 76.8477C65.6199 76.8477 61.4915 82.2125 70.2127 89.2026C78.9339 96.1928 88.5753 94.5744 96.6887 93.197C104.802 91.8196 114.739 86.9575 115.507 81.2139C116.275 75.4703 113.667 72.2266 115.507 69.6097C117.348 66.9927 124.076 67.3577 124.997 62.3716C125.917 57.3856 123.443 50.788 115.794 52.1585Z" fill="#263238" stroke="#263238" stroke-linecap="round" stroke-linejoin="round"/>
<path d="M145.267 141.35C145.267 141.35 149.539 136.943 151.177 136.798C152.815 136.653 155.246 139.684 156.31 141.997C157.374 144.311 159.848 149.063 159.848 151.377C159.848 155.42 157.72 156.715 156.842 155.992C155.964 155.268 153.651 150.799 152.418 149.931C151.633 149.396 150.718 149.002 149.733 148.774C149.733 148.774 147.015 143.161 145.267 141.35Z" fill="white" stroke="#263238" stroke-linecap="round" stroke-linejoin="round"/>
<path d="M149.598 137.899C149.598 137.899 154.774 142.121 156.614 146.164C158.455 150.206 159.02 154.152 157.357 155.805" stroke="#263238" stroke-linecap="round" stroke-linejoin="round"/>
<path d="M135.744 172.595C135.744 172.595 140.869 172.884 142.642 173.029C144.415 173.174 144.415 176.638 143.706 179.089C142.996 181.541 142.11 183.132 142.861 185.873C143.613 188.614 141.62 191.644 140.556 192.946C139.493 194.247 137.179 193.958 137.019 192.946C136.859 191.933 137.551 186.018 135.077 182.698C132.604 179.379 132.907 174.923 135.744 172.595Z" fill="white" stroke="#263238" stroke-linecap="round" stroke-linejoin="round"/>
<path d="M140.548 172.857C141.628 174.465 142.017 176.322 141.654 178.132C141.097 181.293 141.84 186.272 141.84 187.478C141.84 188.683 139.805 193.352 139.07 193.504" stroke="#263238" stroke-linecap="round" stroke-linejoin="round"/>
<path d="M158.944 24.1019C158.024 24.1019 154.352 24.8526 154.048 25.7272C153.744 26.6018 153.288 35.0864 153.288 35.0864C153.288 35.0864 146.855 45.0723 144.719 48.8187C142.583 52.5651 136.909 61.5524 136.909 61.5524L122.683 73.6595C122.683 73.6595 120.539 74.5341 116.867 76.2764C116.52 76.4417 116.157 76.6277 115.794 76.8136L109.04 78.0257L103.249 77.1304C100.501 75.3834 97.6406 73.758 94.6794 72.2614C91.0069 70.5191 88.8624 69.6444 88.8624 69.6444L74.6367 57.5374C74.6367 57.5374 68.9717 48.5846 66.8273 44.8037C64.6829 41.0228 58.2581 31.0714 58.2581 31.0714C58.2581 31.0714 57.8022 22.5868 57.4982 21.7122C57.1943 20.8376 53.5133 20.0869 52.6015 20.0869C51.6897 20.0869 50.0012 24.0813 50.6091 24.9559C51.2169 25.8305 52.8886 25.8236 52.8886 25.8236C52.8107 26.8212 52.8107 27.8218 52.8886 28.8194C53.0405 29.4461 55.3369 30.6926 55.3369 30.6926C55.3369 30.6926 58.5535 41.5531 60.6895 49.0391C62.8255 56.5251 65.5862 61.5249 66.8104 62.3995C68.0346 63.2741 80.1244 73.2531 82.5727 76.6277C84.5485 79.1248 86.8592 81.4346 89.4619 83.5145C89.4619 83.5145 88.0857 89.0239 88.0857 91.999C88.0857 94.9742 91.7583 101.358 92.9824 104.23C94.2066 107.102 95.7347 120.455 95.7347 120.834C95.7347 121.213 96.4945 129.443 96.4945 129.443C96.4945 129.443 88.2377 144.174 85.6374 154.655C83.037 165.137 84.2528 171.135 90.2217 173.381C96.1906 175.626 123.274 178.745 124.043 179.496C124.811 180.247 125.419 180.743 126.491 180.743C127.563 180.743 128.939 180.247 129.868 180.743C130.797 181.238 130.78 181.617 131.852 181.617C132.364 181.673 132.853 181.828 133.278 182.067C133.704 182.306 134.054 182.624 134.3 182.995C134.604 183.49 136.445 182.492 137.053 178.745C137.661 174.999 136.749 173.236 135.829 173.133C134.908 173.029 135.069 171.755 133.541 171.755C131.897 171.841 130.262 172.009 128.644 172.258C127.847 172.062 127.026 171.938 126.196 171.886C125.275 171.886 124.203 171.259 123.587 171.135C122.971 171.011 112.882 167.637 112.882 167.637L112.493 167.472C122.709 162.72 137.196 154.311 137.196 154.311C137.196 154.311 141.358 154.097 143.182 152.823C144.418 151.922 145.549 150.928 146.559 149.855L149.683 148.795C149.643 147.127 149.01 145.504 147.859 144.125C146.044 142.218 145.259 141.371 145.259 141.371C145.259 141.371 140.32 143.278 138.758 143.705C137.196 144.132 134.858 144.339 133.558 145.399C132.257 146.46 128.88 148.581 128.88 148.581L117.441 153.457C117.441 153.457 132.004 138.189 133.819 131.826C135.381 126.371 132.975 120.345 128.99 115.945C125.976 112.639 121.746 110.118 118.538 106.916C117.002 105.394 115.828 104.264 115.938 103.61C116.115 102.598 117.567 97.5016 118.884 93.1629L122.987 86.7444C124.001 85.8836 128.526 81.235 128.948 80.6427C131.396 77.2682 143.486 67.2823 144.71 66.4076C145.934 65.533 148.687 60.547 150.831 53.0541C152.975 45.5612 156.184 34.7076 156.184 34.7076C156.184 34.7076 158.48 33.4611 158.632 32.8344C158.71 31.8368 158.71 30.8362 158.632 29.8386C158.632 29.8386 160.321 29.8386 160.928 28.964C161.536 28.0894 159.865 24.1019 158.944 24.1019Z" fill="white" stroke="#263238" stroke-linecap="round" stroke-linejoin="round"/>
<path d="M145.267 141.35C145.267 141.35 140.328 143.257 138.767 143.684C137.205 144.111 134.866 144.318 133.566 145.378C132.266 146.439 128.889 148.56 128.889 148.56L117.449 153.436C117.449 153.436 132.012 138.168 133.828 131.804C135.389 126.35 132.983 120.324 128.998 115.923C127.48 114.333 125.802 112.847 123.984 111.481C120.788 113.756 117.317 115.759 113.624 117.459C108.225 120.042 101.948 121.133 95.7262 120.572C95.7262 120.703 95.7262 120.786 95.7262 120.813C95.7262 121.185 96.486 129.422 96.486 129.422C96.486 129.422 88.2292 144.153 85.6288 154.634C83.0285 165.116 84.2443 171.114 90.2132 173.359C96.1821 175.605 123.266 178.724 124.034 179.475C124.802 180.226 125.41 180.721 126.483 180.721C127.555 180.721 128.931 180.226 129.86 180.721C130.788 181.217 130.771 181.596 131.844 181.596C132.356 181.652 132.844 181.806 133.27 182.046C133.695 182.285 134.045 182.603 134.292 182.973C134.596 183.469 136.436 182.471 137.044 178.724C137.652 174.978 136.74 173.215 135.82 173.112C134.9 173.008 135.06 171.734 133.532 171.734C131.889 171.82 130.253 171.987 128.635 172.237C127.838 172.041 127.017 171.916 126.187 171.865C125.267 171.865 124.195 171.238 123.578 171.114C122.962 170.99 112.873 167.616 112.873 167.616L112.485 167.451C122.7 162.699 137.188 154.29 137.188 154.29C137.188 154.29 141.35 154.076 143.174 152.802C144.41 151.9 145.54 150.907 146.551 149.834L149.674 148.774C149.635 147.106 149.001 145.483 147.851 144.104C146.052 142.197 145.267 141.35 145.267 141.35Z" fill="#263238" stroke="#263238" stroke-linecap="round" stroke-linejoin="round"/>
<path d="M106.195 128.568L109.201 129.725C109.201 129.725 96.6381 154.407 94.8482 161.48C93.0584 168.553 95.2028 172.017 98.563 172.017C101.923 172.017 111.48 167.974 111.48 167.974" stroke="white" stroke-linecap="round" stroke-linejoin="round"/>
<path d="M117.449 153.436C117.449 153.436 109.91 162.527 107.765 164.655" stroke="white" stroke-linecap="round" stroke-linejoin="round"/>
<path d="M56.122 23.4544C56.122 23.4544 53.0573 19.9559 52.6014 19.2053C52.1455 18.4546 51.2253 20.5826 51.9851 21.8291C52.4715 22.6041 53.0913 23.3184 53.8256 23.9503C53.8256 23.9503 52.6014 26.946 54.4335 28.1926" fill="white"/>
<path d="M56.122 23.4544C56.122 23.4544 53.0573 19.9559 52.6014 19.2053C52.1455 18.4546 51.2253 20.5826 51.9851 21.8291C52.4715 22.6041 53.0913 23.3184 53.8256 23.9503C53.8256 23.9503 52.6014 26.946 54.4335 28.1926" stroke="#263238" stroke-linecap="round" stroke-linejoin="round"/>
<path d="M154.554 28.1306C154.554 28.1306 157.61 24.639 158.075 23.8884C158.539 23.1377 159.451 25.2657 158.683 26.5122C158.197 27.2861 157.581 28.0002 156.851 28.6334C156.851 28.6334 158.075 31.6291 156.234 32.8757" fill="white"/>
<path d="M154.554 28.1306C154.554 28.1306 157.61 24.639 158.075 23.8884C158.539 23.1377 159.451 25.2657 158.683 26.5122C158.197 27.2861 157.581 28.0002 156.851 28.6334C156.851 28.6334 158.075 31.6291 156.234 32.8757" stroke="#263238" stroke-linecap="round" stroke-linejoin="round"/>
<path d="M89.4788 83.4937C89.4788 83.4937 88.1027 89.0031 88.1027 91.9782C88.1027 94.9533 91.7752 101.337 92.9993 104.209C94.2235 107.081 95.7516 120.435 95.7516 120.813C95.7516 120.917 95.8107 121.654 95.9036 122.659C101.315 123.892 112.476 124.312 125.782 112.935C123.367 110.931 120.716 109.064 118.547 106.895C117.01 105.373 115.837 104.244 115.946 103.589C116.124 102.577 117.576 97.4808 118.893 93.1421L122.996 86.7236C124.009 85.8627 128.534 81.2141 128.956 80.6219C131.405 77.2473 143.494 67.2614 144.719 66.3868C145.943 65.5122 148.695 60.5261 150.84 53.0333C151.625 50.2785 152.528 47.0486 153.431 44.0804C151.705 43.7877 150.035 43.3058 148.467 42.648C146.99 45.0032 145.538 47.3585 144.719 48.791C142.574 52.5374 136.909 61.5247 136.909 61.5247L122.683 73.6317C122.683 73.6317 120.539 74.5064 116.867 76.2487C116.52 76.414 116.157 76.6 115.794 76.7859L109.04 77.998L103.249 77.1302C100.501 75.3832 97.6407 73.7579 94.6794 72.2613C91.0069 70.5189 88.8625 69.6443 88.8625 69.6443L74.6367 57.5373C74.6367 57.5373 68.9717 48.5844 66.8273 44.8035C65.8395 43.0818 63.9484 40.031 62.1923 37.228C60.7133 37.735 59.2029 38.1787 57.6671 38.5572C58.6549 41.9042 59.7778 45.7815 60.7064 49.0251C62.8509 56.518 65.6031 61.5109 66.8273 62.3856C68.0515 63.2602 80.1413 73.2392 82.5896 76.6137C84.566 79.1084 86.8766 81.416 89.4788 83.4937Z" fill="#1E3050"/>
<mask id="mask9_604_4037" style="mask-type:luminance" maskUnits="userSpaceOnUse" x="57" y="37" width="97" height="87">
<path d="M89.4788 83.4937C89.4788 83.4937 88.1027 89.0031 88.1027 91.9782C88.1027 94.9533 91.7752 101.337 92.9993 104.209C94.2235 107.081 95.7516 120.435 95.7516 120.813C95.7516 120.917 95.8107 121.654 95.9036 122.659C101.315 123.892 112.476 124.312 125.782 112.935C123.367 110.931 120.716 109.064 118.547 106.895C117.01 105.373 115.837 104.244 115.946 103.589C116.124 102.577 117.576 97.4808 118.893 93.1421L122.996 86.7236C124.009 85.8627 128.534 81.2141 128.956 80.6219C131.405 77.2473 143.494 67.2614 144.719 66.3868C145.943 65.5122 148.695 60.5261 150.84 53.0333C151.625 50.2785 152.528 47.0486 153.431 44.0804C151.705 43.7877 150.035 43.3058 148.467 42.648C146.99 45.0032 145.538 47.3585 144.719 48.791C142.574 52.5374 136.909 61.5247 136.909 61.5247L122.683 73.6317C122.683 73.6317 120.539 74.5064 116.867 76.2487C116.52 76.414 116.157 76.6 115.794 76.7859L109.04 77.998L103.249 77.1302C100.501 75.3832 97.6407 73.7579 94.6794 72.2613C91.0069 70.5189 88.8625 69.6443 88.8625 69.6443L74.6367 57.5373C74.6367 57.5373 68.9717 48.5844 66.8273 44.8035C65.8395 43.0818 63.9484 40.031 62.1923 37.228C60.7133 37.735 59.2029 38.1787 57.6671 38.5572C58.6549 41.9042 59.7778 45.7815 60.7064 49.0251C62.8509 56.518 65.6031 61.5109 66.8273 62.3856C68.0515 63.2602 80.1413 73.2392 82.5896 76.6137C84.566 79.1084 86.8766 81.416 89.4788 83.4937Z" fill="white"/>
</mask>
<g mask="url(#mask9_604_4037)">
<path d="M89.901 70.0715C89.2256 69.7823 88.8626 69.6377 88.8626 69.6377L88.0183 68.9146L81.1207 74.9336C81.6144 75.4424 82.0765 75.9711 82.5053 76.5176L89.901 70.0715Z" fill="#263238"/>
<path d="M83.4422 65.0234L81.8128 63.646L74.2145 68.5425C74.7464 69.0039 75.2867 69.4722 75.8101 69.9199L83.4422 65.0234Z" fill="#263238"/>
<path d="M95.7347 72.7778L94.6794 72.2544L93.6916 71.7861L85.249 79.6784C85.7725 80.2087 86.2875 80.7046 86.7771 81.1522L95.7347 72.7778Z" fill="#263238"/>
<path d="M76.6627 59.2246L67.8824 63.1914L69.571 64.5688L78.3006 60.6157L76.6627 59.2246Z" fill="#263238"/>
<path d="M98.2084 74.1143L94.5527 77.4406C94.3857 77.4832 94.2327 77.5562 94.1053 77.6541C93.9446 77.7821 93.8381 77.9485 93.8014 78.1293L88.6514 82.8123C89.1579 83.2393 89.4956 83.501 89.4956 83.501C89.4956 83.501 89.2423 84.5065 88.9553 85.8976L89.8924 84.7406C92.1804 85.5395 98.5461 86.9788 114.722 86.9788C116.377 86.9788 118.136 86.9628 119.999 86.9306C120.168 86.9273 120.335 86.8945 120.488 86.8342C121.063 87.2102 121.736 87.474 122.455 87.6055L123.013 86.7309C123.215 86.5587 123.561 86.2282 123.984 85.815C123.702 85.8298 123.42 85.8298 123.139 85.815C120.227 85.5257 118.445 80.4639 117.677 75.9117L116.833 76.2905C116.487 76.4558 116.124 76.6417 115.761 76.8277L115.457 76.8828C115.583 77.5714 115.727 78.2601 115.912 78.9488C104.726 81.2972 98.9091 79.3896 96.7394 78.3221L100.116 75.2644C99.5339 74.8718 98.8838 74.493 98.2084 74.1143ZM106.077 81.9515C109.594 81.9115 113.091 81.5136 116.487 80.7669C116.954 82.2615 117.667 83.6977 118.606 85.0367C101.18 85.264 93.9786 83.8935 91.4121 83.1635L95.1859 79.7201C96.79 80.5741 100.218 81.9515 106.077 81.9515Z" fill="#263238"/>
<path d="M68.4736 47.5791L61.0356 50.1479C61.2383 50.7953 61.4325 51.4151 61.6351 52.0211L69.5205 49.2664L68.4736 47.5791Z" fill="#263238"/>
<path d="M65.0373 41.8013L59.1274 43.585C59.3047 44.2117 59.4905 44.8315 59.6678 45.4513L66.0757 43.523L65.0373 41.8013Z" fill="#263238"/>
<path d="M73.0578 55.0101C72.7285 54.4936 72.374 53.9151 71.994 53.3091L63.6865 57.2828C63.982 57.937 64.2691 58.5362 64.5308 59.0733L73.0578 55.0101Z" fill="#263238"/>
<path d="M140.548 55.6851C140.176 56.298 139.805 56.8971 139.45 57.4619C141.755 59.1629 144.406 61.0292 147.158 62.744C147.445 62.1793 147.733 61.5595 148.003 60.8777C145.36 59.1836 142.777 57.3448 140.548 55.6851Z" fill="#263238"/>
<path d="M116.385 101.82C116.537 101.248 116.723 100.566 116.934 99.8225C104.616 101.2 95.5574 99.9947 90.4243 98.8584C90.7873 99.6228 91.1504 100.373 91.505 101.083C96.2547 101.98 101.117 102.419 105.992 102.391C109.468 102.387 112.94 102.196 116.385 101.82Z" fill="#263238"/>
<path d="M143.393 51.0296C145.625 52.3574 147.939 53.5917 150.324 54.7278C150.502 54.1768 150.671 53.6121 150.839 53.0336C150.839 52.951 150.839 52.8615 150.907 52.7788C148.676 51.7014 146.515 50.5314 144.432 49.2734C144.136 49.7968 143.781 50.3891 143.393 51.0296Z" fill="#263238"/>
<path d="M88.1111 91.6685C88.1111 91.7718 88.1111 91.882 88.1111 91.9784C88.1277 92.5185 88.2097 93.056 88.3559 93.583C93.3455 93.28 103.671 93.0872 118.361 94.9604C118.538 94.3543 118.724 93.7483 118.901 93.156V93.094C103.764 91.1313 93.2357 91.3379 88.1111 91.6685Z" fill="#263238"/>
<path d="M122.878 110.607C122.295 110.153 121.729 109.691 121.189 109.23C112.384 114.051 101.906 116.02 95.3126 116.805C95.4055 117.494 95.4815 118.183 95.549 118.734C102.438 117.942 113.515 115.883 122.878 110.607Z" fill="#263238"/>
<path d="M94.0714 108.651C94.1812 109.271 94.2909 109.925 94.4007 110.593C95.2449 110.593 96.2243 110.593 97.2374 110.593C104.866 110.656 112.462 109.781 119.771 107.997C119.357 107.625 118.926 107.253 118.546 106.861L118.091 106.413C109.125 108.603 99.7448 108.81 94.0714 108.651Z" fill="#263238"/>
<path d="M135.179 62.9918C137.196 65.0579 139.4 67.0482 141.595 68.9076L143.283 67.5302C141.088 65.6501 138.851 63.6185 136.842 61.5869L135.179 62.9918Z" fill="#263238"/>
<path d="M135.837 73.8455L137.441 72.4681C134.878 70.8686 132.55 69.0338 130.501 67L128.863 68.3774C130.931 70.4061 133.27 72.2402 135.837 73.8455Z" fill="#263238"/>
<path d="M128.956 80.6221C129.232 80.246 129.534 79.8827 129.86 79.534C128.551 77.5231 126.643 74.5342 124.954 71.6899L123.266 73.1637C125.132 76.2834 127.192 79.472 128.399 81.297C128.661 80.9665 128.872 80.7254 128.956 80.6221Z" fill="#263238"/>
<path opacity="0.25" d="M153.212 44.0737C149.599 50.5748 142.693 62.9987 141.325 65.471C139.459 68.8594 124.727 81.0421 122.236 82.2267C119.746 83.4112 118.293 86.2899 117.255 89.3339C116.267 92.2332 113.405 94.5196 113.135 97.6531C111.717 96.7716 108.914 96.0347 105.013 95.7661C97.5416 95.2565 90.492 96.7854 90.492 91.2002C90.492 85.615 94.8484 80.1813 95.0595 78.5009C95.2705 76.8205 91.1168 79.8783 89.0399 78.6731C86.963 77.4679 72.8554 64.2865 68.7017 60.0787C66.0592 57.379 61.3651 46.2086 58.3089 38.4609L57.6672 38.6262C58.655 41.9732 59.7779 45.8505 60.7066 49.0942C62.851 56.587 65.6033 61.58 66.8274 62.4477C68.0516 63.3155 80.1414 73.3082 82.5898 76.6828C84.5656 79.1799 86.8762 81.4897 89.4789 83.5696C89.4789 83.5696 88.1028 89.079 88.1028 92.0541C88.1028 95.0292 91.7753 101.413 92.9995 104.285C94.2236 107.157 95.7518 120.51 95.7518 120.889C95.7518 120.993 95.8109 121.729 95.9037 122.735C96.651 122.903 97.4092 123.036 98.1748 123.134C98.0313 117.9 96.9675 106.992 98.7911 104.609C100.775 102.019 110.349 101.902 113.143 100.422C113.262 103.185 114.473 105.842 116.597 107.997C118.108 109.616 121.552 111.826 124.853 113.761L125.748 113.018C123.334 111.014 120.683 109.147 118.513 106.978C116.976 105.456 115.803 104.326 115.913 103.672C116.09 102.66 117.542 97.5636 118.859 93.2249L122.962 86.8064C123.975 85.9455 128.501 81.2969 128.923 80.7047C131.371 77.3301 143.461 67.3442 144.685 66.4696C145.909 65.595 148.661 60.6089 150.806 53.1161C151.591 50.3614 152.494 47.1314 153.398 44.1632L153.212 44.0737Z" fill="black"/>
</g>
<path d="M89.4788 83.4937C89.4788 83.4937 88.1027 89.0031 88.1027 91.9782C88.1027 94.9533 91.7752 101.337 92.9993 104.209C94.2235 107.081 95.7516 120.435 95.7516 120.813C95.7516 120.917 95.8107 121.653 95.9036 122.659C101.315 123.892 112.476 124.312 125.782 112.935C123.367 110.931 120.716 109.064 118.547 106.895C117.01 105.373 115.837 104.244 115.946 103.589C116.124 102.577 117.576 97.4808 118.893 93.1421L122.996 86.7236C124.009 85.8627 128.534 81.2141 128.956 80.6219C131.405 77.2473 143.494 67.2614 144.719 66.3868C145.943 65.5122 148.695 60.5261 150.84 53.0333C151.625 50.2785 152.528 47.0486 153.431 44.0804C151.705 43.7877 150.035 43.3058 148.467 42.648C146.99 45.0032 145.538 47.3585 144.719 48.791C142.574 52.5374 136.909 61.5247 136.909 61.5247L122.683 73.6317C122.683 73.6317 120.539 74.5064 116.867 76.2487C116.52 76.414 116.157 76.6 115.794 76.7859L109.04 77.998L103.249 77.1302C100.501 75.3832 97.6407 73.7579 94.6794 72.2613C91.0069 70.5189 88.8625 69.6443 88.8625 69.6443L74.6367 57.5372C74.6367 57.5372 68.9717 48.5844 66.8273 44.8035C65.8395 43.0818 63.9484 40.031 62.1923 37.228C60.7133 37.735 59.2029 38.1787 57.6671 38.5572C58.6549 41.9042 59.7778 45.7815 60.7064 49.0251C62.8509 56.518 65.6031 61.5109 66.8273 62.3856C68.0515 63.2602 80.1413 73.2392 82.5896 76.6137C84.566 79.1084 86.8766 81.416 89.4788 83.4937Z" stroke="#263238" stroke-linecap="round" stroke-linejoin="round"/>
<path d="M101.72 67.3853C101.72 67.3853 101.872 75.25 101.104 77.1232C100.336 78.9964 96.0385 82.6327 97.8959 85.6147C99.7533 88.5966 106.465 85.2359 108.871 81.6203C111.277 78.0047 110.104 76.8753 110.104 76.8753V71.3658L101.72 67.3853Z" fill="white"/>
<mask id="mask10_604_4037" style="mask-type:luminance" maskUnits="userSpaceOnUse" x="97" y="67" width="14" height="20">
<path d="M101.72 67.3853C101.72 67.3853 101.872 75.25 101.104 77.1232C100.336 78.9964 96.0385 82.6327 97.8959 85.6147C99.7533 88.5966 106.465 85.2359 108.871 81.6203C111.277 78.0047 110.104 76.8753 110.104 76.8753V71.3658L101.72 67.3853Z" fill="white"/>
</mask>
<g mask="url(#mask10_604_4037)">
<path d="M110.138 71.3796L101.695 67.3853C101.695 67.3853 101.847 75.25 101.079 77.1232C100.967 77.3824 100.828 77.6335 100.665 77.8739C102.268 78.2967 103.988 78.3278 105.612 77.9634C107.32 77.3765 108.855 76.4983 110.112 75.3877L110.138 71.3796Z" fill="#1E3050"/>
<path opacity="0.5" d="M110.138 71.3796L101.695 67.3853C101.695 67.3853 101.847 75.25 101.079 77.1232C100.967 77.3824 100.828 77.6335 100.665 77.8739C102.268 78.2967 103.988 78.3278 105.612 77.9634C107.32 77.3765 108.855 76.4983 110.112 75.3877L110.138 71.3796Z" fill="white"/>
</g>
<path d="M101.72 67.3853C101.72 67.3853 101.872 75.25 101.104 77.1232C100.336 78.9964 96.0385 82.6327 97.8959 85.6147C99.7533 88.5966 106.465 85.2359 108.871 81.6203C111.277 78.0047 110.104 76.8753 110.104 76.8753V71.3658L101.72 67.3853Z" stroke="#263238" stroke-linecap="round" stroke-linejoin="round"/>
<path d="M100.032 62.1444C100.032 62.1444 97.1275 59.8993 96.3592 61.5245C95.591 63.1498 97.5834 65.5189 98.6556 65.7668L99.7278 66.0147C100.203 67.7938 101.262 69.434 102.792 70.7598C105.241 72.7569 107.993 73.7555 111.049 72.509C114.106 71.2625 116.562 68.1359 117.322 64.3963C117.785 62.5485 117.941 60.6584 117.787 58.7767C117.787 58.15 116.41 53.6598 112.425 52.5372C108.441 51.4147 108.905 52.7852 105.849 55.657C103.733 57.7101 101.789 59.8775 100.032 62.1444Z" fill="white"/>
<mask id="mask11_604_4037" style="mask-type:luminance" maskUnits="userSpaceOnUse" x="96" y="52" width="22" height="22">
<path d="M100.032 62.1444C100.032 62.1444 97.1275 59.8993 96.3592 61.5245C95.591 63.1498 97.5834 65.5189 98.6556 65.7668L99.7278 66.0147C100.203 67.7938 101.262 69.434 102.792 70.7598C105.241 72.7569 107.993 73.7555 111.049 72.509C114.106 71.2625 116.562 68.1359 117.322 64.3963C117.785 62.5485 117.941 60.6584 117.787 58.7767C117.787 58.15 116.41 53.6598 112.425 52.5372C108.441 51.4147 108.905 52.7852 105.849 55.657C103.733 57.7101 101.789 59.8775 100.032 62.1444Z" fill="white"/>
</mask>
<g mask="url(#mask11_604_4037)">
<path d="M116.951 56.4692C117.204 58.5353 117.626 63.8932 115.803 66.462C113.523 69.6713 111.235 72.7221 106.676 71.2001C102.117 69.6782 100.657 65.7802 100.657 65.7802C100.657 65.7802 99.4157 65.9524 97.5415 64.5957C97.3496 64.4491 97.1264 64.3324 96.8829 64.2513C97.2539 64.9032 97.8767 65.4379 98.6559 65.7733L99.7281 66.0212C100.203 67.8003 101.263 69.4405 102.793 70.7663C105.241 72.7634 107.993 73.762 111.05 72.5155C114.106 71.269 116.563 68.1424 117.322 64.4029C117.785 62.555 117.941 60.6649 117.787 58.7832C117.651 57.9822 117.369 57.2023 116.951 56.4692Z" fill="#1E3050"/>
<path opacity="0.5" d="M116.951 56.4692C117.204 58.5353 117.626 63.8932 115.803 66.462C113.523 69.6713 111.235 72.7221 106.676 71.2001C102.117 69.6782 100.657 65.7802 100.657 65.7802C100.657 65.7802 99.4157 65.9524 97.5415 64.5957C97.3496 64.4491 97.1264 64.3324 96.8829 64.2513C97.2539 64.9032 97.8767 65.4379 98.6559 65.7733L99.7281 66.0212C100.203 67.8003 101.263 69.4405 102.793 70.7663C105.241 72.7634 107.993 73.762 111.05 72.5155C114.106 71.269 116.563 68.1424 117.322 64.4029C117.785 62.555 117.941 60.6649 117.787 58.7832C117.651 57.9822 117.369 57.2023 116.951 56.4692Z" fill="white"/>
</g>
<path d="M100.032 62.1444C100.032 62.1444 97.1275 59.8992 96.3592 61.5245C95.591 63.1498 97.5834 65.5189 98.6556 65.7668L99.7278 66.0147C100.203 67.7938 101.262 69.434 102.792 70.7598C105.241 72.7569 107.993 73.7555 111.049 72.509C114.106 71.2625 116.562 68.1359 117.322 64.3963C117.785 62.5485 117.941 60.6584 117.787 58.7767C117.787 58.15 116.41 53.6598 112.425 52.5372C108.441 51.4147 108.905 52.7852 105.849 55.657C103.733 57.7101 101.789 59.8775 100.032 62.1444Z" stroke="#263238" stroke-linecap="round" stroke-linejoin="round"/>
<path d="M112.738 59.6514C112.738 59.6514 111.666 61.2698 112.122 61.6485C112.577 62.0273 114.114 62.7711 113.346 63.143C112.621 63.3984 111.839 63.5274 111.049 63.5218" stroke="#263238" stroke-linecap="round" stroke-linejoin="round"/>
<path d="M106.617 64.0449C106.617 64.0449 108.449 65.7942 114.266 65.1675C114.266 65.1675 110.746 68.0393 109.201 68.0393C107.656 68.0393 106.617 64.0449 106.617 64.0449Z" stroke="#263238" stroke-linecap="round" stroke-linejoin="round"/>
<path d="M105.545 60.0236C105.545 60.0236 107.689 59.4038 108.922 60.4024" stroke="#263238" stroke-linecap="round" stroke-linejoin="round"/>
<path d="M113.194 61.0221C113.194 61.0221 115.642 60.4023 116.098 61.7728" stroke="#263238" stroke-linecap="round" stroke-linejoin="round"/>
<path d="M105.393 57.9026C105.873 57.4502 106.517 57.1342 107.232 57.0005C107.947 56.8667 108.696 56.9222 109.37 57.1588" stroke="#263238" stroke-linecap="round" stroke-linejoin="round"/>
<path d="M113.498 58.5358C113.498 58.5358 115.49 57.0345 116.875 59.7823" stroke="#263238" stroke-linecap="round" stroke-linejoin="round"/>
</svg>
