<svg width="50" height="40" viewBox="0 0 50 40" fill="none" xmlns="http://www.w3.org/2000/svg">
<path d="M41.1945 6.36618C40.7071 5.90508 40.2197 5.44397 39.7322 4.98286C38.27 3.50732 36.7103 2.03178 34.7606 1.10957C32.5186 0.00290872 30.0815 0.279565 27.6445 0.279565C23.9401 0.279565 14.6793 0.279565 9.22034 0.279565L12.9247 4.98286C19.6509 4.98286 30.179 4.98286 35.0531 4.98286C37.1002 4.98286 38.8549 5.35175 40.5121 6.36618C40.8045 6.4584 41.097 6.4584 41.1945 6.36618Z" fill="#C0C8D7"/>
<path d="M45.2887 13.9282C44.8013 13.4671 44.3139 13.006 43.8265 12.5449C42.3642 11.0694 40.8045 9.59382 38.8549 8.6716C36.6128 7.56495 34.1757 7.84162 31.7387 7.84162C28.5218 7.84162 20.8207 7.84162 15.3617 7.84162L19.066 12.5449C25.6948 12.5449 34.7606 12.5449 39.2448 12.5449C41.2919 12.5449 43.0466 12.9138 44.7038 13.9282C44.8988 14.0204 45.0937 14.0204 45.2887 13.9282Z" fill="#C0C8D7"/>
<path d="M49.8702 21.306C49.3828 20.8449 48.8954 20.3838 48.408 19.9227C46.9458 18.4471 45.3861 16.9716 43.4364 16.0494C41.1943 14.9427 38.7573 15.2194 36.3202 15.2194C33.2983 15.2194 26.6695 15.2194 21.308 15.2194L25.0123 19.9227C31.4461 19.9227 39.6346 19.9227 43.7289 19.9227C45.776 19.9227 47.5307 20.2916 49.1879 21.306C49.4803 21.3982 49.6753 21.4904 49.8702 21.306Z" fill="#C0C8D7"/>
<path d="M8.83032 33.7559C9.31773 34.217 9.80514 34.6781 10.2926 35.1392C11.7548 36.6148 13.3145 38.0903 15.2641 39.0125C17.5062 40.1192 19.9433 39.8425 22.3803 39.8425H40.8045L37.1001 35.1392C30.3739 35.1392 19.8458 35.1392 14.9717 35.1392C12.9246 35.1392 11.1699 34.7704 9.51269 33.7559C9.22025 33.6637 9.02529 33.6637 8.83032 33.7559Z" fill="#C0C8D7"/>
<path d="M4.73608 26.1937C5.22349 26.6548 5.71091 27.1159 6.19832 27.577C7.66055 29.0526 9.22025 30.5281 11.1699 31.4503C13.412 32.557 15.849 32.2803 18.2861 32.2803H34.6631L30.9588 27.577C24.33 27.577 15.2641 27.577 10.78 27.577C8.73285 27.577 6.97816 27.2081 5.32097 26.1937C5.126 26.1015 4.93105 26.1015 4.73608 26.1937Z" fill="#C0C8D7"/>
<path d="M0.251953 18.7237C0.739364 19.1848 1.22677 19.6459 1.71418 20.1071C3.17642 21.5826 4.73614 23.0581 6.68578 23.9804C8.92787 25.087 11.3649 24.8103 13.802 24.8103H28.8142L25.1099 20.1071C18.6761 20.1071 10.4876 20.1071 6.39333 20.1071C4.3462 20.1071 2.59152 19.7382 0.934325 18.7237C0.641879 18.6315 0.446917 18.6315 0.251953 18.7237Z" fill="#C0C8D7"/>
</svg>
