<svg width="100" height="80" viewBox="0 0 100 80" fill="none" xmlns="http://www.w3.org/2000/svg">
<path d="M82.5151 12.3507C81.5328 11.4197 80.5505 10.4888 79.5682 9.55782C76.6212 6.57876 73.4778 3.59971 69.5485 1.7378C65.0298 -0.496497 60.1183 0.0620593 55.2067 0.0620593C47.741 0.0620593 29.0769 0.0620593 18.075 0.0620593L25.5406 9.55782C39.0966 9.55782 60.3147 9.55782 70.1379 9.55782C74.2636 9.55782 77.8 10.3026 81.1399 12.3507C81.7293 12.5369 82.3187 12.5369 82.5151 12.3507Z" fill="white"/>
<path d="M90.7666 27.6181C89.7843 26.6872 88.8019 25.7562 87.8196 24.8253C84.8727 21.8462 81.7293 18.8671 77.8 17.0052C73.2813 14.7709 68.3697 15.3295 63.4581 15.3295C56.9748 15.3295 41.4541 15.3295 30.4521 15.3295L37.9178 24.8253C51.2773 24.8253 69.5485 24.8253 78.5858 24.8253C82.7116 24.8253 86.2479 25.57 89.5878 27.6181C89.9807 27.8043 90.3737 27.8043 90.7666 27.6181Z" fill="white"/>
<path d="M100 42.5135C99.0176 41.5826 98.0353 40.6516 97.053 39.7207C94.106 36.7416 90.9626 33.7625 87.0333 31.9006C82.5147 29.6663 77.6031 30.2249 72.6915 30.2249C66.6011 30.2249 53.2416 30.2249 42.436 30.2249L49.9016 39.7207C62.8683 39.7207 79.3713 39.7207 87.6227 39.7207C91.7485 39.7207 95.2848 40.4654 98.6247 42.5135C99.2141 42.6997 99.607 42.8859 100 42.5135Z" fill="white"/>
<path d="M17.2888 67.6493C18.2711 68.5803 19.2535 69.5113 20.2358 70.4422C23.1827 73.4213 26.3261 76.4003 30.2554 78.2622C34.7741 80.4965 39.6857 79.9379 44.5973 79.9379H81.729L74.2634 70.4422C60.7074 70.4422 39.4893 70.4422 29.6661 70.4422C25.5403 70.4422 22.0039 69.6974 18.6641 67.6493C18.0747 67.4632 17.6817 67.4632 17.2888 67.6493Z" fill="white"/>
<path d="M9.0376 52.3816C10.0199 53.3126 11.0022 54.2436 11.9846 55.1745C14.9315 58.1536 18.0749 61.1327 22.0042 62.9946C26.5229 65.2289 31.4345 64.6703 36.3461 64.6703H69.352L61.8864 55.1745C48.5268 55.1745 30.2557 55.1745 21.2184 55.1745C17.0926 55.1745 13.5563 54.4297 10.2164 52.3816C9.82344 52.1955 9.43053 52.1955 9.0376 52.3816Z" fill="white"/>
<path d="M0 37.3C0.98232 38.231 1.96464 39.1619 2.94696 40.0929C5.89392 43.0719 9.03735 46.051 12.9666 47.9129C17.4853 50.1472 22.3969 49.5886 27.3085 49.5886H57.5639L50.0983 40.0929C37.1317 40.0929 20.6287 40.0929 12.3772 40.0929C8.25149 40.0929 4.71513 39.3481 1.37524 37.3C0.78585 37.1138 0.392928 37.1138 0 37.3Z" fill="white"/>
</svg>
